<svg width="50" height="44" viewBox="0 0 50 44" fill="currentColor" xmlns="http://www.w3.org/2000/svg">
<path d="M11.8164 0.125C8.94531 0.125 6.44531 2.07812 5.75195 4.86133L0.185547 27.1172C0.0585938 27.6152 0 28.123 0 28.6309V37.625C0 41.0723 2.80273 43.875 6.25 43.875H43.75C47.1973 43.875 50 41.0723 50 37.625V28.6309C50 28.123 49.9414 27.6152 49.8145 27.1172L44.248 4.86133C43.5547 2.07812 41.0547 0.125 38.1836 0.125H11.8164ZM11.8164 6.375H38.1836L42.8711 25.125H37.8711C36.6895 25.125 35.6055 25.7891 35.0781 26.8535L33.6816 29.6465C33.1543 30.7012 32.0703 31.375 30.8887 31.375H19.1211C17.9395 31.375 16.8555 30.7109 16.3281 29.6465L14.9316 26.8535C14.4043 25.7988 13.3203 25.125 12.1387 25.125H7.12891L11.8164 6.375Z" fill="currentColor"/>
</svg>
