<svg width="50" height="38" viewBox="0 0 50 38" fill="#7209b7" xmlns="http://www.w3.org/2000/svg">
<path d="M44.873 0.724733C45.8008 -0.0467519 47.0996 -0.222533 48.2031 0.295045C49.3066 0.812623 50 1.91614 50 3.12708L50 34.3771C50 35.588 49.2969 36.6915 48.2031 37.2091C47.1094 37.7267 45.8105 37.5607 44.873 36.7794L28.125 22.8243L28.125 18.7521L28.125 14.6798L44.873 0.724733ZM25 9.37708L25 18.7521L25 31.2521L25 34.3771C25 35.588 24.2969 36.6915 23.2031 37.2091C22.1094 37.7267 20.8105 37.5607 19.873 36.7794L1.12305 21.1544C0.410155 20.5587 -1.55849e-06 19.6798 -1.63959e-06 18.7521C-1.7207e-06 17.8243 0.410154 16.9454 1.12305 16.3497L19.873 0.724735C20.8008 -0.0467497 22.0996 -0.22253 23.2031 0.295048C24.3066 0.812626 25 1.91614 25 3.12708L25 9.37708Z" fill="#7209b7"/>
</svg>
