<svg width="50" height="58" viewBox="0 0 50 58" fill="none" xmlns="http://www.w3.org/2000/svg">
<path d="M14.2857 0C16.2612 0 17.8571 1.5941 17.8571 3.56722V7.13443H32.1429V3.56722C32.1429 1.5941 33.7388 0 35.7143 0C37.6897 0 39.2857 1.5941 39.2857 3.56722V7.13443H44.6429C47.6004 7.13443 50 9.53116 50 12.4853V17.8361H0V12.4853C0 9.53116 2.39955 7.13443 5.35714 7.13443H10.7143V3.56722C10.7143 1.5941 12.3103 0 14.2857 0ZM0 21.4033H50V51.7246C50 54.6787 47.6004 57.0755 44.6429 57.0755H5.35714C2.39955 57.0755 0 54.6787 0 51.7246V21.4033ZM8.92857 28.5377C7.94643 28.5377 7.14286 29.3404 7.14286 30.3213V37.4558C7.14286 38.4368 7.94643 39.2394 8.92857 39.2394H41.0714C42.0536 39.2394 42.8571 38.4368 42.8571 37.4558V30.3213C42.8571 29.3404 42.0536 28.5377 41.0714 28.5377H8.92857Z" fill="#7209B7"/>
</svg>
