<svg width="50" height="54" viewBox="0 0 50 54" fill="currentColor" xmlns="http://www.w3.org/2000/svg">
<path d="M26.3958 0.302083C25.9583 0.104166 25.4896 0 25 0C24.5104 0 24.0417 0.104166 23.6042 0.302083L3.98962 8.62498C1.69796 9.59373 -0.0103693 11.8541 4.738e-05 14.5833C0.0521306 24.9166 4.30212 43.8228 22.25 52.4166C23.9896 53.2499 26.0104 53.2499 27.75 52.4166C45.6979 43.8228 49.9479 24.9166 50 14.5833C50.0104 11.8541 48.302 9.59373 46.0104 8.62498L26.3958 0.302083ZM13.3334 23.052C13.3334 19.5312 16.1875 16.6666 19.7188 16.6666C21.4063 16.6666 23.0313 17.3437 24.2292 18.5312L25 19.302L25.7708 18.5312C26.9687 17.3333 28.5937 16.6666 30.2812 16.6666C33.8021 16.6666 36.6666 19.5208 36.6666 23.052C36.6666 24.7395 35.9896 26.3645 34.8021 27.5624L26.1875 36.177C25.5417 36.8228 24.4792 36.8228 23.8333 36.177L15.2188 27.5624C14.0209 26.3645 13.3542 24.7395 13.3542 23.052H13.3334Z" fill="#7209b7"/>
</svg>
