<svg width="50" height="39" viewBox="0 0 50 39" fill="none" xmlns="http://www.w3.org/2000/svg">
<path d="M23.8889 0.555462C22.969 -0.138866 21.7192 -0.182261 20.7384 0.425276C19.7577 1.03281 19.2717 2.19581 19.4973 3.32409L20.3392 7.54214C18.6554 8.32326 17.1366 9.26928 15.7913 10.2761C14.4634 11.2741 13.2744 12.3504 12.2589 13.4266L4.1787 8.71381C3.09382 8.08024 1.71384 8.25382 0.819892 9.13909C-0.0740547 10.0244 -0.256316 11.3957 0.368579 12.4892L4.34361 19.4412L0.368579 26.3931C-0.256316 27.4867 -0.0653756 28.858 0.828572 29.7433C1.72252 30.6285 3.09382 30.8021 4.18738 30.1685L12.2676 25.4558C13.2918 26.5233 14.4721 27.6082 15.8 28.6063C17.1453 29.6131 18.6641 30.5591 20.3479 31.3402L19.506 35.5583C19.2803 36.6865 19.775 37.8409 20.7471 38.4484C21.7192 39.0559 22.9689 39.0125 23.8976 38.3182L30.6326 33.267C35.3974 32.9198 39.4419 30.9236 42.5403 28.5976C45.9425 26.046 48.3727 22.9823 49.6225 20.8298C50.1258 19.9706 50.1258 18.9031 49.6225 18.0438C48.3727 15.8914 45.9338 12.8277 42.5403 10.2761C39.4332 7.95005 35.3974 5.95386 30.6326 5.6067L23.8889 0.555462ZM33.3318 19.4412C33.3318 18.7046 33.6244 17.9982 34.1452 17.4773C34.6661 16.9565 35.3725 16.6639 36.1091 16.6639C36.8457 16.6639 37.5521 16.9565 38.073 17.4773C38.5938 17.9982 38.8864 18.7046 38.8864 19.4412C38.8864 20.1778 38.5938 20.8842 38.073 21.405C37.5521 21.9259 36.8457 22.2185 36.1091 22.2185C35.3725 22.2185 34.6661 21.9259 34.1452 21.405C33.6244 20.8842 33.3318 20.1778 33.3318 19.4412Z" fill="#2269A7"/>
</svg>
