<svg width="50" height="58" viewBox="0 0 50 58" fill="currentColor" xmlns="http://www.w3.org/2000/svg">
<path d="M15.0893 2.40416C15.692 1.18764 16.9308 0.428711 18.2812 0.428711H31.7188C33.0692 0.428711 34.308 1.18764 34.9107 2.40416L35.7143 4.00014H46.4286C48.404 4.00014 50 5.59612 50 7.57157C50 9.54701 48.404 11.143 46.4286 11.143H3.57143C1.59598 11.143 0 9.54701 0 7.57157C0 5.59612 1.59598 4.00014 3.57143 4.00014H14.2857L15.0893 2.40416ZM3.57143 14.7144H46.4286V50.4287C46.4286 54.3684 43.2254 57.5716 39.2857 57.5716H10.7143C6.77455 57.5716 3.57143 54.3684 3.57143 50.4287V14.7144ZM14.2857 21.8573C13.3036 21.8573 12.5 22.6609 12.5 23.643V48.643C12.5 49.6251 13.3036 50.4287 14.2857 50.4287C15.2679 50.4287 16.0714 49.6251 16.0714 48.643V23.643C16.0714 22.6609 15.2679 21.8573 14.2857 21.8573ZM25 21.8573C24.0179 21.8573 23.2143 22.6609 23.2143 23.643V48.643C23.2143 49.6251 24.0179 50.4287 25 50.4287C25.9821 50.4287 26.7857 49.6251 26.7857 48.643V23.643C26.7857 22.6609 25.9821 21.8573 25 21.8573ZM35.7143 21.8573C34.7321 21.8573 33.9286 22.6609 33.9286 23.643V48.643C33.9286 49.6251 34.7321 50.4287 35.7143 50.4287C36.6964 50.4287 37.5 49.6251 37.5 48.643V23.643C37.5 22.6609 36.6964 21.8573 35.7143 21.8573Z" fill="currentColor"/>
</svg>
