<svg width="50" height="38" viewBox="0 0 50 38" fill="#7209b7" xmlns="http://www.w3.org/2000/svg">
<path d="M5.12695 36.7821C4.19922 37.5536 2.90039 37.7294 1.79687 37.2118C0.693359 36.6942 0 35.5907 0 34.3798V3.12976C0 1.91882 0.703125 0.815307 1.79687 0.297729C2.89062 -0.219849 4.18945 -0.0538336 5.12695 0.727416L21.875 14.6825V18.7548V22.827L5.12695 36.7821ZM25 28.1298V18.7548V6.25476V3.12976C25 1.91882 25.7031 0.815307 26.7969 0.297729C27.8906 -0.219849 29.1895 -0.0538336 30.127 0.727416L48.877 16.3524C49.5898 16.9481 50 17.827 50 18.7548C50 19.6825 49.5898 20.5614 48.877 21.1571L30.127 36.7821C29.1992 37.5536 27.9004 37.7294 26.7969 37.2118C25.6934 36.6942 25 35.5907 25 34.3798V28.1298Z" fill="#7209b7"/>
</svg>
