<svg width="36" height="42" viewBox="0 0 36 42" fill="none" xmlns="http://www.w3.org/2000/svg">
<path d="M17.6241 0.0369177C17.8732 -0.0123059 18.1303 -0.0123059 18.3794 0.0369177L34.4493 3.31849C35.3492 3.49897 36 4.31116 36 5.24641C36 6.18166 35.3492 6.99385 34.4493 7.17433L28.2865 8.43774V13.1222C28.2865 18.9224 23.6825 23.6232 18.0018 23.6232C12.3211 23.6232 7.7171 18.9224 7.7171 13.1222V8.43774L3.86034 7.65016V12.9909L5.12182 19.4228C5.19413 19.8084 5.09771 20.2104 4.85667 20.5139C4.61562 20.8175 4.24601 20.9979 3.86034 20.9979H1.28916C0.903487 20.9979 0.541916 20.8257 0.292834 20.5139C0.0437513 20.2022 -0.0526676 19.8084 0.0276815 19.4228L1.28916 12.9909V7.1005C0.525846 6.82977 0.00357677 6.09142 0.00357677 5.24641C0.00357677 4.31116 0.654405 3.49897 1.55432 3.31849L17.6241 0.0369177ZM8.99465 26.8802C9.83831 26.6012 10.7463 26.913 11.3569 27.5775L17.0617 33.7715C17.5679 34.3211 18.4276 34.3211 18.9338 33.7715L24.6386 27.5775C25.2493 26.913 26.1572 26.6012 27.0009 26.8802C32.2236 28.5948 36 33.5828 36 39.4814C36 40.8761 34.8912 42 33.5333 42H2.4703C1.1124 42 0.00357677 40.8679 0.00357677 39.4814C0.00357677 33.5828 3.77999 28.5948 8.99465 26.8802Z" fill="#7209B7"/>
</svg>
