<svg width="50" height="35" viewBox="0 0 50 35" fill="none" xmlns="http://www.w3.org/2000/svg">
<path d="M14.1797 12.8984L15.1875 13.3984C15.6484 13.6328 16.1563 13.75 16.6797 13.75C18.5156 13.75 20.0078 12.2578 20.0078 10.4219V8.75C20.0078 5.99219 17.7656 3.75 15.0078 3.75H10C7.24219 3.75 5 5.99219 5 8.75V10.4219C5 12.2578 6.49219 13.75 8.32812 13.75C8.84375 13.75 9.35156 13.6328 9.82031 13.3984L10.8281 12.8984L11.4844 12.5703L10.5547 11.9531C10.2031 11.7188 10 11.3281 10 10.9141V10.625C10 9.58594 10.8359 8.75 11.875 8.75H13.125C14.1641 8.75 15 9.58594 15 10.625V10.9141C15 11.3281 14.7891 11.7188 14.4453 11.9531L13.5234 12.5703L14.1797 12.8984ZM13.5078 16.7578L12.5 16.25L11.4922 16.75C10.5078 17.2422 9.42187 17.5 8.32812 17.5C8.04687 17.5 7.77344 17.4844 7.5 17.4531V17.5C7.5 20.2578 9.74219 22.5 12.5 22.5H17.5C18.8828 22.5 20 23.6172 20 25C20 26.3828 18.8828 27.5 17.5 27.5H30V23.75V22.5C30 20.6484 31.0078 19.0313 32.5 18.1719C33.2344 17.75 34.0859 17.5 35 17.5V16.25C35 14.1797 36.6797 12.5 38.75 12.5C39.4375 12.5 40 13.0625 40 13.75V16.25V17.5V21.25C40 21.9375 40.5625 22.5 41.25 22.5C41.9375 22.5 42.5 21.9375 42.5 21.25V13.4609C42.5 9.69531 40.0937 6.35156 36.5156 5.15625L35.8516 4.9375C35.2266 4.72656 34.8672 4.07031 35.0391 3.42969C35.2109 2.78906 35.8438 2.39844 36.4922 2.52344L38.0469 2.83594C45 4.22656 50 10.3281 50 17.4141V17.5C50 27.1641 42.1641 35 32.5 35H32.4141H20H19.9531C10.3125 35 2.5 27.1875 2.5 17.5469V17.5V14.4375C1.71094 13.2969 1.25 11.9141 1.25 10.4219V8.75V8.64063C0.523437 8.38281 0 7.69531 0 6.875C0 5.83594 0.835937 5 1.875 5H2.09375C3.5 2.04688 6.50781 0 10 0H15C18.4922 0 21.5 2.04688 22.9063 5H23.125C24.1641 5 25 5.83594 25 6.875C25 7.69531 24.4766 8.38281 23.75 8.64063V8.75V10.4219C23.75 10.5312 23.75 10.6406 23.7422 10.7578C24.6797 10.2734 25.75 10.0078 26.875 10.0078H27.5C28.8828 10.0078 30 11.125 30 12.5078C30 13.8906 28.8828 15.0078 27.5 15.0078H26.875C25.8359 15.0078 25 15.8438 25 16.8828V17.5078H29.4062C28.2187 18.8359 27.5 20.5859 27.5 22.5078H25C21.6953 22.5078 18.8906 20.3672 17.8906 17.4063C17.4922 17.4766 17.0859 17.5078 16.6719 17.5078C15.5703 17.5078 14.4922 17.25 13.5078 16.7578ZM7.5 7.5C7.83152 7.5 8.14946 7.6317 8.38388 7.86612C8.6183 8.10054 8.75 8.41848 8.75 8.75C8.75 9.08152 8.6183 9.39946 8.38388 9.63388C8.14946 9.8683 7.83152 10 7.5 10C7.16848 10 6.85054 9.8683 6.61612 9.63388C6.3817 9.39946 6.25 9.08152 6.25 8.75C6.25 8.41848 6.3817 8.10054 6.61612 7.86612C6.85054 7.6317 7.16848 7.5 7.5 7.5ZM16.25 8.75C16.25 8.41848 16.3817 8.10054 16.6161 7.86612C16.8505 7.6317 17.1685 7.5 17.5 7.5C17.8315 7.5 18.1495 7.6317 18.3839 7.86612C18.6183 8.10054 18.75 8.41848 18.75 8.75C18.75 9.08152 18.6183 9.39946 18.3839 9.63388C18.1495 9.8683 17.8315 10 17.5 10C17.1685 10 16.8505 9.8683 16.6161 9.63388C16.3817 9.39946 16.25 9.08152 16.25 8.75Z" fill="#182737" fill-opacity="0.1"/>
</svg>
