<svg width="292" height="28" viewBox="0 0 292 28" fill="none" xmlns="http://www.w3.org/2000/svg">
<path d="M33.68 5.392C35.536 5.264 37.176 5.2 38.6 5.2C42.552 5.2 44.528 6.52 44.528 9.16C44.528 10.152 44.24 11.008 43.664 11.728C43.088 12.432 42.168 12.912 40.904 13.168C42.12 13.312 43.08 13.68 43.784 14.272C44.488 14.864 44.84 15.896 44.84 17.368C44.84 20.456 42.864 22 38.912 22H33.68V5.392ZM35.672 21.76H38.912C40.336 21.76 41.344 21.392 41.936 20.656C42.544 19.904 42.848 18.76 42.848 17.224C42.848 15.688 42.544 14.664 41.936 14.152C41.328 13.64 40.424 13.368 39.224 13.336H35.672V21.76ZM38.6 5.44C37.672 5.44 36.696 5.496 35.672 5.608V13.096H39.224C41.48 13 42.608 11.704 42.608 9.208C42.608 7.992 42.272 7.064 41.6 6.424C40.928 5.768 39.928 5.44 38.6 5.44ZM52.3355 22.096C50.6555 22.096 49.2875 21.616 48.2315 20.656C47.1755 19.696 46.6475 18.216 46.6475 16.216C46.6475 14.216 47.1915 12.664 48.2795 11.56C49.3835 10.456 50.7755 9.904 52.4555 9.904C54.1515 9.904 55.5275 10.384 56.5835 11.344C57.6395 12.304 58.1675 13.784 58.1675 15.784C58.1675 17.784 57.6155 19.336 56.5115 20.44C55.4235 21.544 54.0315 22.096 52.3355 22.096ZM52.5035 10.096C51.2875 10.096 50.2795 10.64 49.4795 11.728C48.6795 12.8 48.2795 14.304 48.2795 16.24C48.2795 18.16 48.6475 19.584 49.3835 20.512C50.1195 21.44 51.0955 21.904 52.3115 21.904C53.5275 21.904 54.5355 21.368 55.3355 20.296C56.1355 19.208 56.5355 17.704 56.5355 15.784C56.5355 13.848 56.1675 12.416 55.4315 11.488C54.6955 10.56 53.7195 10.096 52.5035 10.096ZM69.5684 22C68.9124 22 68.4084 21.856 68.0564 21.568C67.7204 21.28 67.5444 20.992 67.5284 20.704L67.5044 20.296V12.76C67.5044 11.496 67.1764 10.688 66.5204 10.336C66.1844 10.176 65.7684 10.096 65.2724 10.096C64.2484 10.096 63.3284 10.504 62.5124 11.32C61.6964 12.12 61.2884 12.84 61.2884 13.48V22H59.6084V10H61.2884V12.736C61.5604 12.048 62.0644 11.408 62.8004 10.816C63.5364 10.208 64.3444 9.904 65.2244 9.904C66.1044 9.904 66.8164 9.992 67.3604 10.168C67.9204 10.328 68.3284 10.56 68.5844 10.864C68.9844 11.36 69.1844 12 69.1844 12.784V20.296C69.1844 20.76 69.2724 21.12 69.4484 21.376C69.6404 21.616 69.8324 21.744 70.0244 21.76L70.2884 21.808H71.0324V22H69.5684ZM73.6389 16.144C73.6389 18.128 73.9829 19.584 74.6709 20.512C75.3749 21.44 76.2949 21.904 77.4309 21.904C79.0309 21.904 80.4549 21.664 81.7029 21.184L81.7749 21.352C80.4949 21.848 79.0469 22.096 77.4309 22.096C75.8309 22.096 74.5269 21.616 73.5189 20.656C72.5109 19.696 72.0069 18.216 72.0069 16.216C72.0069 14.216 72.5349 12.664 73.5909 11.56C74.6469 10.456 75.9909 9.904 77.6229 9.904C78.9349 9.904 80.0389 10.296 80.9349 11.08C81.8309 11.864 82.2789 13.024 82.2789 14.56C82.2789 14.64 82.2789 14.72 82.2789 14.8H73.7109C73.6629 15.232 73.6389 15.68 73.6389 16.144ZM80.6469 14.608C80.6309 13.072 80.3349 11.936 79.7589 11.2C79.1829 10.464 78.4389 10.096 77.5269 10.096C76.6149 10.096 75.7989 10.496 75.0789 11.296C74.3749 12.096 73.9269 13.2 73.7349 14.608H80.6469ZM91.8753 5.392C93.7313 5.264 95.3633 5.2 96.7713 5.2C100.739 5.2 102.723 6.6 102.723 9.4C102.723 10.696 102.387 11.832 101.715 12.808C101.363 13.336 100.819 13.76 100.083 14.08C99.3473 14.384 98.4593 14.536 97.4193 14.536H93.8673V22H91.8753V5.392ZM96.7953 5.44C95.8673 5.44 94.8913 5.496 93.8673 5.608V14.296H97.4193C99.6753 14.2 100.803 12.584 100.803 9.448C100.803 8.168 100.467 7.184 99.7953 6.496C99.1233 5.792 98.1233 5.44 96.7953 5.44ZM106.053 16.144C106.053 18.128 106.397 19.584 107.085 20.512C107.789 21.44 108.709 21.904 109.845 21.904C111.445 21.904 112.869 21.664 114.117 21.184L114.189 21.352C112.909 21.848 111.461 22.096 109.845 22.096C108.245 22.096 106.941 21.616 105.933 20.656C104.925 19.696 104.421 18.216 104.421 16.216C104.421 14.216 104.949 12.664 106.005 11.56C107.061 10.456 108.405 9.904 110.037 9.904C111.349 9.904 112.453 10.296 113.349 11.08C114.245 11.864 114.693 13.024 114.693 14.56C114.693 14.64 114.693 14.72 114.693 14.8H106.125C106.077 15.232 106.053 15.68 106.053 16.144ZM113.061 14.608C113.045 13.072 112.749 11.936 112.173 11.2C111.597 10.464 110.853 10.096 109.941 10.096C109.029 10.096 108.213 10.496 107.493 11.296C106.789 12.096 106.341 13.2 106.149 14.608H113.061ZM116.278 10.192V10H116.782V7.6H118.462V10H122.134V10.192H118.462V18.928C118.462 19.968 118.574 20.72 118.798 21.184C119.038 21.648 119.526 21.88 120.262 21.88C121.014 21.88 121.774 21.728 122.542 21.424L122.614 21.616C121.814 21.92 120.894 22.072 119.854 22.072C118.83 22.072 118.062 21.864 117.55 21.448C117.038 21.016 116.782 20.168 116.782 18.904V10.192H116.278ZM141.161 6.208C139.705 5.648 138.329 5.368 137.033 5.368C135.753 5.368 134.753 5.64 134.033 6.184C133.313 6.728 132.953 7.48 132.953 8.44C132.953 9.608 133.561 10.512 134.777 11.152C135.321 11.424 135.913 11.68 136.553 11.92C137.209 12.144 137.865 12.4 138.521 12.688C139.177 12.976 139.777 13.304 140.321 13.672C140.865 14.04 141.305 14.552 141.641 15.208C141.977 15.848 142.145 16.672 142.145 17.68C142.145 18.672 141.865 19.52 141.305 20.224C140.745 20.928 140.065 21.408 139.265 21.664C138.481 21.904 137.561 22.024 136.505 22.024C134.537 22.024 132.857 21.536 131.465 20.56L131.585 20.368C132.113 20.784 132.793 21.128 133.625 21.4C134.473 21.656 135.337 21.784 136.217 21.784C137.513 21.784 138.617 21.488 139.529 20.896C140.457 20.288 140.921 19.4 140.921 18.232C140.921 16.952 140.313 15.952 139.097 15.232C138.553 14.912 137.953 14.616 137.297 14.344C136.657 14.072 136.009 13.792 135.353 13.504C134.697 13.2 134.097 12.864 133.553 12.496C132.337 11.696 131.729 10.56 131.729 9.088C131.729 7.92 132.121 6.976 132.905 6.256C133.689 5.52 134.865 5.152 136.433 5.152C138.017 5.152 139.625 5.424 141.257 5.968L141.161 6.208ZM145.617 19.24C145.617 20.504 145.953 21.312 146.625 21.664C146.945 21.824 147.353 21.904 147.849 21.904C148.857 21.904 149.753 21.52 150.537 20.752C151.337 19.984 151.769 19.272 151.833 18.616V10H153.513V20.296C153.513 20.76 153.601 21.12 153.777 21.376C153.969 21.616 154.161 21.744 154.353 21.76L154.617 21.808H155.361V22H153.897C153.241 22 152.737 21.856 152.385 21.568C152.049 21.28 151.873 20.992 151.857 20.704L151.833 20.296V19.264C151.545 19.952 151.033 20.6 150.297 21.208C149.561 21.8 148.753 22.096 147.873 22.096C147.009 22.096 146.297 22.016 145.737 21.856C145.193 21.68 144.801 21.44 144.561 21.136C144.145 20.64 143.937 20 143.937 19.216V10H145.617V19.24ZM156.809 10H158.489V12.976C158.761 12.24 159.265 11.544 160.001 10.888C160.737 10.232 161.569 9.904 162.497 9.904C165.745 9.904 167.369 11.808 167.369 15.616C167.369 19.936 165.273 22.096 161.081 22.096C160.329 22.096 159.465 21.92 158.489 21.568V28H156.809V10ZM162.473 10.096C161.481 10.096 160.585 10.528 159.785 11.392C158.985 12.24 158.553 13.008 158.489 13.696V21.352C159.465 21.72 160.321 21.904 161.057 21.904C164.145 21.904 165.689 19.8 165.689 15.592C165.689 11.928 164.617 10.096 162.473 10.096ZM169.536 10H171.216V12.976C171.488 12.24 171.992 11.544 172.728 10.888C173.464 10.232 174.296 9.904 175.224 9.904C178.472 9.904 180.096 11.808 180.096 15.616C180.096 19.936 178 22.096 173.808 22.096C173.056 22.096 172.192 21.92 171.216 21.568V28H169.536V10ZM175.2 10.096C174.208 10.096 173.312 10.528 172.512 11.392C171.712 12.24 171.28 13.008 171.216 13.696V21.352C172.192 21.72 173.048 21.904 173.784 21.904C176.872 21.904 178.416 19.8 178.416 15.592C178.416 11.928 177.344 10.096 175.2 10.096ZM185.071 22C183.663 22 182.775 21.632 182.407 20.896C182.327 20.736 182.287 20.592 182.287 20.464V4.024H183.967V20.296C183.967 20.76 184.055 21.12 184.23 21.376C184.423 21.616 184.615 21.744 184.807 21.76L185.071 21.808H185.815V22H185.071ZM189.603 22C188.947 22 188.443 21.856 188.091 21.568C187.755 21.28 187.579 20.992 187.563 20.704L187.539 20.296V10H189.219V20.296C189.219 20.76 189.307 21.12 189.483 21.376C189.675 21.616 189.859 21.744 190.035 21.76L190.323 21.808H191.067V22H189.603ZM187.683 7.312C187.491 7.12 187.395 6.88 187.395 6.592C187.395 6.304 187.491 6.064 187.683 5.872C187.875 5.664 188.115 5.56 188.403 5.56C188.691 5.56 188.931 5.664 189.123 5.872C189.331 6.064 189.435 6.304 189.435 6.592C189.435 6.88 189.331 7.12 189.123 7.312C188.931 7.504 188.691 7.6 188.403 7.6C188.115 7.6 187.875 7.504 187.683 7.312ZM193.428 16.144C193.428 18.128 193.772 19.584 194.46 20.512C195.164 21.44 196.084 21.904 197.22 21.904C198.82 21.904 200.244 21.664 201.492 21.184L201.564 21.352C200.284 21.848 198.836 22.096 197.22 22.096C195.62 22.096 194.316 21.616 193.308 20.656C192.3 19.696 191.796 18.216 191.796 16.216C191.796 14.216 192.324 12.664 193.38 11.56C194.436 10.456 195.78 9.904 197.412 9.904C198.724 9.904 199.828 10.296 200.724 11.08C201.62 11.864 202.068 13.024 202.068 14.56C202.068 14.64 202.068 14.72 202.068 14.8H193.5C193.452 15.232 193.428 15.68 193.428 16.144ZM200.436 14.608C200.42 13.072 200.124 11.936 199.548 11.2C198.972 10.464 198.228 10.096 197.316 10.096C196.404 10.096 195.588 10.496 194.868 11.296C194.164 12.096 193.716 13.2 193.524 14.608H200.436ZM210.781 10.84C210.525 10.632 210.109 10.456 209.533 10.312C208.973 10.168 208.549 10.096 208.261 10.096C207.973 10.096 207.805 10.096 207.757 10.096C206.893 10.112 206.269 10.336 205.885 10.768C205.501 11.184 205.309 11.656 205.309 12.184C205.309 12.712 205.477 13.16 205.812 13.528C206.149 13.88 206.565 14.16 207.061 14.368C207.573 14.56 208.117 14.784 208.693 15.04C209.285 15.296 209.829 15.56 210.325 15.832C210.837 16.088 211.261 16.472 211.597 16.984C211.933 17.48 212.101 18.104 212.101 18.856C212.101 19.608 211.837 20.248 211.309 20.776C210.781 21.304 210.189 21.656 209.533 21.832C208.893 22.008 208.197 22.096 207.445 22.096C205.813 22.096 204.589 21.736 203.773 21.016L203.917 20.872C204.237 21.176 204.709 21.424 205.333 21.616C205.973 21.808 206.589 21.904 207.181 21.904C208.125 21.904 208.901 21.648 209.509 21.136C210.133 20.608 210.445 19.96 210.445 19.192C210.445 18.408 210.213 17.784 209.749 17.32C209.285 16.84 208.717 16.472 208.045 16.216C207.389 15.944 206.725 15.68 206.053 15.424C205.381 15.152 204.813 14.784 204.349 14.32C203.885 13.84 203.653 13.288 203.653 12.664C203.653 12.04 203.797 11.536 204.085 11.152C204.373 10.752 204.757 10.472 205.237 10.312C206.053 10.04 206.869 9.904 207.685 9.904C209.061 9.904 210.133 10.16 210.901 10.672L210.781 10.84ZM229.685 22.096C226.693 22.096 224.477 21.248 223.037 19.552C222.525 18.944 222.109 18.136 221.789 17.128C221.469 16.12 221.309 14.896 221.309 13.456C221.309 12.016 221.541 10.728 222.005 9.592C222.485 8.44 223.133 7.552 223.949 6.928C225.533 5.76 227.445 5.176 229.685 5.176C230.325 5.176 230.949 5.232 231.557 5.344C232.165 5.44 232.621 5.544 232.925 5.656L233.357 5.824L233.285 6.064C232.197 5.632 230.997 5.416 229.685 5.416C227.989 5.416 226.573 5.968 225.437 7.072C224.573 7.888 223.965 9.088 223.613 10.672C223.405 11.568 223.301 12.664 223.301 13.96C223.301 15.256 223.485 16.456 223.853 17.56C224.221 18.648 224.637 19.456 225.101 19.984C225.581 20.512 226.157 20.936 226.829 21.256C227.501 21.56 228.037 21.736 228.437 21.784C228.837 21.832 229.317 21.856 229.877 21.856C230.453 21.856 231.101 21.8 231.821 21.688C232.541 21.576 233.085 21.472 233.453 21.376L234.005 21.208L234.077 21.448C232.861 21.88 231.397 22.096 229.685 22.096ZM241.101 22.096C239.421 22.096 238.053 21.616 236.997 20.656C235.941 19.696 235.413 18.216 235.413 16.216C235.413 14.216 235.957 12.664 237.045 11.56C238.149 10.456 239.541 9.904 241.221 9.904C242.917 9.904 244.293 10.384 245.349 11.344C246.405 12.304 246.933 13.784 246.933 15.784C246.933 17.784 246.381 19.336 245.277 20.44C244.189 21.544 242.797 22.096 241.101 22.096ZM241.269 10.096C240.053 10.096 239.045 10.64 238.245 11.728C237.445 12.8 237.045 14.304 237.045 16.24C237.045 18.16 237.413 19.584 238.149 20.512C238.885 21.44 239.861 21.904 241.077 21.904C242.293 21.904 243.301 21.368 244.101 20.296C244.901 19.208 245.301 17.704 245.301 15.784C245.301 13.848 244.933 12.416 244.197 11.488C243.461 10.56 242.485 10.096 241.269 10.096ZM249.323 22.096C249.115 22.096 248.931 22.024 248.771 21.88C248.627 21.72 248.555 21.536 248.555 21.328C248.555 21.104 248.627 20.92 248.771 20.776C248.915 20.632 249.091 20.56 249.299 20.56C249.523 20.56 249.707 20.64 249.851 20.8C250.011 20.944 250.091 21.12 250.091 21.328C250.091 21.536 250.011 21.72 249.851 21.88C249.707 22.024 249.531 22.096 249.323 22.096Z" fill="#F19813"/>
<path d="M9.73203 7.44527C10.3466 9.16911 9.71914 10.909 8.33094 11.335C6.94275 11.7609 5.31817 10.7081 4.70358 8.98427C4.08899 7.26043 4.71647 5.52052 6.10467 5.09458C7.49287 4.66865 9.11744 5.72143 9.73203 7.44527ZM4.31248 11.6926C5.12477 12.9945 4.92707 14.5094 3.8741 15.072C2.82113 15.6345 1.3083 15.0358 0.500306 13.7339C-0.307685 12.4319 -0.118581 10.9171 0.934386 10.3545C1.98735 9.79194 3.50019 10.3907 4.30818 11.6926H4.31248ZM2.97156 19.8336C5.22362 14.1558 9.22489 12.7132 10.9999 12.7132C12.7749 12.7132 16.7762 14.1558 19.0282 19.8336C19.1829 20.2234 19.2517 20.6413 19.2517 21.0592V21.1235C19.2517 22.1602 18.3535 23 17.2446 23C16.7504 23 16.2604 22.9437 15.7834 22.8312L12.0013 21.9472C11.3437 21.7945 10.6561 21.7945 9.9985 21.9472L6.21641 22.8312C5.73935 22.9437 5.2494 23 4.75515 23C3.64631 23 2.74807 22.1602 2.74807 21.1235V21.0592C2.74807 20.6413 2.81683 20.2234 2.97156 19.8336ZM18.1257 15.072C17.0727 14.5094 16.875 12.9945 17.6873 11.6926C18.4996 10.3907 20.0081 9.79194 21.0611 10.3545C22.1141 10.9171 22.3118 12.4319 21.4995 13.7339C20.6872 15.0358 19.1787 15.6345 18.1257 15.072ZM13.325 11.335C11.9368 10.909 11.3093 9.16911 11.9239 7.44527C12.5385 5.72143 14.1631 4.66865 15.5513 5.09458C16.9395 5.52052 17.567 7.26043 16.9524 8.98427C16.3378 10.7081 14.7132 11.7609 13.325 11.335Z" fill="#F19813"/>
</svg>
