<svg width="1306" height="862" viewBox="0 0 1306 862" fill="none" xmlns="http://www.w3.org/2000/svg">
<g opacity="0.7">
<path d="M309.869 495.262L313.192 496.893C314.712 497.657 316.384 498.034 318.105 498.024C324.141 497.989 329.018 493.035 328.982 486.976L328.95 481.458C328.896 472.356 321.481 464.999 312.414 465.052L295.95 465.149C286.883 465.202 279.555 472.646 279.608 481.748L279.641 487.266C279.676 493.325 284.611 498.221 290.647 498.185C292.342 498.176 294.01 497.779 295.546 496.996L298.85 495.327L301.001 494.231L297.933 492.212C296.772 491.445 296.097 490.16 296.089 488.793L296.083 487.839C296.063 484.41 298.795 481.635 302.211 481.615L306.321 481.591C309.737 481.571 312.502 484.314 312.522 487.743L312.527 488.697C312.535 490.063 311.849 491.357 310.724 492.137L307.705 494.192L309.869 495.262ZM307.735 508.012L304.412 506.356L301.108 508.026C297.881 509.669 294.316 510.541 290.72 510.562C289.795 510.567 288.896 510.521 287.996 510.423L287.997 510.578C288.051 519.68 295.466 527.037 304.533 526.983L320.971 526.887C325.518 526.86 329.212 530.526 329.239 535.09C329.266 539.654 325.614 543.362 321.068 543.389L362.165 543.148L362.092 530.771L362.068 526.646C362.032 520.535 365.314 515.178 370.203 512.313C372.609 510.906 375.404 510.065 378.409 510.047L378.385 505.921C378.345 499.089 383.835 493.512 390.641 493.472C392.902 493.459 394.762 495.305 394.775 497.574L394.824 505.825L394.848 509.95L394.921 522.327C394.934 524.596 396.794 526.442 399.054 526.428C401.315 526.415 403.153 524.548 403.14 522.279L402.989 496.571C402.916 484.143 394.94 473.154 383.153 469.278L380.965 468.569C378.907 467.885 377.712 465.726 378.265 463.608C378.818 461.491 380.891 460.189 383.025 460.589L388.142 461.591C411.029 466.046 427.586 486.087 427.723 509.474L427.725 509.757C427.912 541.653 402.302 567.666 370.529 567.852L370.247 567.854L329.433 568.094L329.279 568.095C297.583 568.281 271.746 542.647 271.559 510.829L271.559 510.675L271.499 500.567C268.883 496.818 267.341 492.263 267.312 487.338L267.279 481.82L267.277 481.459C264.883 480.622 263.149 478.363 263.133 475.656C263.113 472.227 265.845 469.452 269.261 469.432L269.981 469.427C274.547 459.654 284.396 452.84 295.877 452.773L312.316 452.676C323.797 452.609 333.726 459.306 338.406 469.025L339.125 469.021C342.542 469.001 345.306 471.744 345.326 475.173C345.342 477.881 343.635 480.16 341.251 481.025L341.253 481.386L341.285 486.903C341.287 487.264 341.29 487.625 341.266 488.012C344.339 486.396 347.853 485.498 351.551 485.477L353.606 485.464C358.153 485.438 361.847 489.103 361.874 493.667C361.901 498.231 358.249 501.94 353.703 501.967L351.648 501.979C348.232 501.999 345.5 504.774 345.52 508.203L345.532 510.266L360.019 510.181C356.14 514.587 353.811 520.377 353.849 526.72L345.629 526.768C334.764 526.832 325.502 519.821 322.157 510.068C320.848 510.308 319.513 510.419 318.152 510.427C314.53 510.448 310.981 509.618 307.735 508.012ZM287.803 477.574C288.893 477.568 289.941 477.996 290.716 478.765C291.492 479.534 291.931 480.581 291.937 481.675C291.944 482.769 291.517 483.821 290.751 484.6C289.984 485.378 288.942 485.819 287.852 485.825C286.762 485.831 285.714 485.403 284.939 484.634C284.163 483.865 283.724 482.818 283.718 481.724C283.711 480.629 284.138 479.578 284.904 478.799C285.671 478.021 286.713 477.58 287.803 477.574ZM316.595 481.53C316.589 480.436 317.015 479.384 317.782 478.606C318.548 477.828 319.59 477.387 320.68 477.381C321.77 477.374 322.818 477.803 323.593 478.572C324.369 479.341 324.808 480.388 324.814 481.482C324.821 482.576 324.394 483.628 323.628 484.406C322.862 485.185 321.819 485.625 320.729 485.632C319.639 485.638 318.591 485.21 317.816 484.441C317.041 483.671 316.601 482.625 316.595 481.53Z" fill="#D9D9D9" fill-opacity="0.25"/>
<path d="M74.8689 43.2619L78.1919 44.8926C79.7119 45.6573 81.3837 46.0342 83.1047 46.0241C89.1407 45.9887 94.0177 41.035 93.9821 34.9757L93.9496 29.4578C93.8962 20.3559 86.481 12.9991 77.4141 13.0523L60.9499 13.149C51.883 13.2023 44.5548 20.6457 44.6082 29.7477L44.6406 35.2655C44.6762 41.3249 49.611 46.2209 55.6471 46.1854C57.3423 46.1755 59.0096 45.7789 60.5462 44.9963L63.8499 43.3266L66.0011 42.231L62.9326 40.212C61.7722 39.4453 61.0968 38.16 61.0888 36.7934L61.0832 35.8394C61.063 32.41 63.7951 29.6349 67.2113 29.6149L71.3209 29.5907C74.7371 29.5707 77.5016 32.3135 77.5217 35.7428L77.5273 36.6968C77.5354 38.0634 76.8494 39.3567 75.7238 40.1369L72.7049 42.1916L74.8689 43.2619ZM72.7347 56.0124L69.4115 54.3559L66.1078 56.0255C62.881 57.669 59.3157 58.5408 55.7198 58.562C54.7951 58.5674 53.8958 58.5211 52.9962 58.4232L52.9972 58.578C53.0506 67.6799 60.4658 75.0367 69.5327 74.9834L85.9713 74.8869C90.5175 74.8602 94.2122 78.5258 94.239 83.0896C94.2658 87.6535 90.6145 91.3622 86.0682 91.3889L127.165 91.1475L127.092 78.771L127.068 74.6455C127.032 68.5345 130.314 63.1777 135.203 60.3126C137.609 58.906 140.404 58.0645 143.409 58.0468L143.385 53.9213C143.345 47.0885 148.835 41.5124 155.641 41.4724C157.902 41.4591 159.762 43.3047 159.775 45.5737L159.824 53.8248L159.848 57.9503L159.921 70.3268C159.934 72.5958 161.794 74.4415 164.055 74.4282C166.315 74.4149 168.153 72.5476 168.14 70.2785L167.989 44.5714C167.916 32.1433 159.94 21.1541 148.153 17.2781L145.965 16.569C143.907 15.8849 142.712 13.7259 143.265 11.6083C143.818 9.49065 145.891 8.18921 148.025 8.58924L153.142 9.59059C176.029 14.0459 192.586 34.087 192.723 57.4735L192.725 57.7571C192.912 89.6525 167.302 115.666 135.529 115.852L135.247 115.854L94.4329 116.094L94.2788 116.095C62.5831 116.281 36.7464 90.6472 36.5595 58.8292L36.5586 58.6745L36.4992 48.567C33.8829 44.8177 32.3406 40.2628 32.3117 35.3379L32.2793 29.8201L32.2772 29.4591C29.8834 28.6222 28.1492 26.3633 28.1333 23.656C28.1131 20.2266 30.8453 17.4515 34.2614 17.4315L34.9806 17.4272C39.5467 7.65357 49.3958 0.839951 60.8772 0.772506L77.3157 0.67594C88.7971 0.608495 98.7256 7.30593 103.406 17.0253L104.125 17.0211C107.542 17.001 110.306 19.7438 110.326 23.1731C110.342 25.8805 108.635 28.1596 106.251 29.0246L106.253 29.3855L106.285 34.9034C106.287 35.2644 106.29 35.6254 106.266 36.0123C109.339 34.3955 112.853 33.4982 116.551 33.4765L118.606 33.4644C123.153 33.4377 126.847 37.1033 126.874 41.6671C126.901 46.231 123.249 49.9397 118.703 49.9665L116.648 49.9785C113.232 49.9986 110.5 52.7737 110.52 56.203L110.532 58.2658L125.019 58.1807C121.14 62.587 118.811 68.3766 118.849 74.7195L110.629 74.7678C99.7644 74.8316 90.5019 67.8209 87.1568 58.0679C85.8482 58.3076 84.5131 58.4186 83.1518 58.4266C79.5302 58.4479 75.9806 57.6178 72.7347 56.0124ZM52.8033 25.5739C53.8932 25.5675 54.9411 25.996 55.7163 26.7651C56.4916 27.5343 56.9307 28.5811 56.9372 29.6752C56.9436 30.7694 56.5168 31.8213 55.7506 32.5995C54.9844 33.3777 53.9417 33.8185 52.8517 33.8249C51.7618 33.8313 50.7139 33.4028 49.9387 32.6336C49.1634 31.8645 48.7243 30.8177 48.7179 29.7235C48.7114 28.6294 49.1383 27.5775 49.9044 26.7993C50.6706 26.0211 51.7133 25.5803 52.8033 25.5739ZM81.595 29.5304C81.5886 28.4362 82.0154 27.3843 82.7816 26.6061C83.5477 25.8279 84.5905 25.3871 85.6804 25.3807C86.7704 25.3743 87.8182 25.8028 88.5935 26.572C89.3687 27.3411 89.8079 28.3879 89.8143 29.4821C89.8207 30.5763 89.3939 31.6281 88.6278 32.4063C87.8616 33.1846 86.8189 33.6253 85.7289 33.6318C84.639 33.6382 83.5911 33.2096 82.8159 32.4405C82.0406 31.6713 81.6015 30.6245 81.595 29.5304Z" fill="#D9D9D9" fill-opacity="0.25"/>
<path d="M650.869 319.262L654.192 320.893C655.712 321.657 657.384 322.034 659.105 322.024C665.141 321.989 670.018 317.035 669.982 310.976L669.95 305.458C669.896 296.356 662.481 288.999 653.414 289.052L636.95 289.149C627.883 289.202 620.555 296.646 620.608 305.748L620.641 311.265C620.676 317.325 625.611 322.221 631.647 322.185C633.342 322.175 635.01 321.779 636.546 320.996L639.85 319.327L642.001 318.231L638.933 316.212C637.772 315.445 637.097 314.16 637.089 312.793L637.083 311.839C637.063 308.41 639.795 305.635 643.211 305.615L647.321 305.591C650.737 305.571 653.502 308.313 653.522 311.743L653.527 312.697C653.535 314.063 652.849 315.357 651.724 316.137L648.705 318.192L650.869 319.262ZM648.735 332.012L645.412 330.356L642.108 332.025C638.881 333.669 635.316 334.541 631.72 334.562C630.795 334.567 629.896 334.521 628.996 334.423L628.997 334.578C629.051 343.68 636.466 351.037 645.533 350.983L661.971 350.887C666.518 350.86 670.212 354.526 670.239 359.09C670.266 363.653 666.614 367.362 662.068 367.389L703.165 367.147L703.092 354.771L703.068 350.645C703.032 344.534 706.314 339.178 711.203 336.313C713.609 334.906 716.404 334.064 719.409 334.047L719.385 329.921C719.345 323.088 724.835 317.512 731.641 317.472C733.902 317.459 735.762 319.305 735.775 321.574L735.824 329.825L735.848 333.95L735.921 346.327C735.934 348.596 737.794 350.441 740.054 350.428C742.315 350.415 744.153 348.548 744.14 346.278L743.989 320.571C743.916 308.143 735.94 297.154 724.153 293.278L721.965 292.569C719.907 291.885 718.712 289.726 719.265 287.608C719.818 285.491 721.891 284.189 724.025 284.589L729.142 285.591C752.029 290.046 768.586 310.087 768.723 333.473L768.725 333.757C768.912 365.652 743.302 391.666 711.529 391.852L711.247 391.854L670.433 392.094L670.279 392.095C638.583 392.281 612.746 366.647 612.559 334.829L612.559 334.674L612.499 324.567C609.883 320.818 608.341 316.263 608.312 311.338L608.279 305.82L608.277 305.459C605.883 304.622 604.149 302.363 604.133 299.656C604.113 296.227 606.845 293.451 610.261 293.431L610.981 293.427C615.547 283.654 625.396 276.84 636.877 276.772L653.316 276.676C664.797 276.608 674.726 283.306 679.406 293.025L680.125 293.021C683.542 293.001 686.306 295.744 686.326 299.173C686.342 301.88 684.635 304.16 682.251 305.024L682.253 305.385L682.285 310.903C682.287 311.264 682.29 311.625 682.266 312.012C685.339 310.395 688.853 309.498 692.551 309.476L694.606 309.464C699.153 309.438 702.847 313.103 702.874 317.667C702.901 322.231 699.249 325.94 694.703 325.966L692.648 325.978C689.232 325.999 686.5 328.774 686.52 332.203L686.532 334.266L701.019 334.181C697.14 338.587 694.811 344.376 694.849 350.719L686.629 350.768C675.764 350.832 666.502 343.821 663.157 334.068C661.848 334.308 660.513 334.419 659.152 334.427C655.53 334.448 651.981 333.618 648.735 332.012ZM628.803 301.574C629.893 301.567 630.941 301.996 631.716 302.765C632.492 303.534 632.931 304.581 632.937 305.675C632.944 306.769 632.517 307.821 631.751 308.599C630.984 309.378 629.942 309.818 628.852 309.825C627.762 309.831 626.714 309.403 625.939 308.634C625.163 307.864 624.724 306.818 624.718 305.723C624.711 304.629 625.138 303.577 625.904 302.799C626.671 302.021 627.713 301.58 628.803 301.574ZM657.595 305.53C657.589 304.436 658.015 303.384 658.782 302.606C659.548 301.828 660.59 301.387 661.68 301.381C662.77 301.374 663.818 301.803 664.593 302.572C665.369 303.341 665.808 304.388 665.814 305.482C665.821 306.576 665.394 307.628 664.628 308.406C663.862 309.184 662.819 309.625 661.729 309.632C660.639 309.638 659.591 309.21 658.816 308.44C658.041 307.671 657.601 306.624 657.595 305.53Z" fill="#D9D9D9" fill-opacity="0.25"/>
<path d="M369.869 159.262L373.192 160.893C374.712 161.657 376.384 162.034 378.105 162.024C384.141 161.989 389.018 157.035 388.982 150.976L388.95 145.458C388.896 136.356 381.481 128.999 372.414 129.052L355.95 129.149C346.883 129.202 339.555 136.646 339.608 145.748L339.641 151.266C339.676 157.325 344.611 162.221 350.647 162.185C352.342 162.175 354.01 161.779 355.546 160.996L358.85 159.327L361.001 158.231L357.933 156.212C356.772 155.445 356.097 154.16 356.089 152.793L356.083 151.839C356.063 148.41 358.795 145.635 362.211 145.615L366.321 145.591C369.737 145.571 372.502 148.313 372.522 151.743L372.527 152.697C372.535 154.063 371.849 155.357 370.724 156.137L367.705 158.192L369.869 159.262ZM367.735 172.012L364.412 170.356L361.108 172.026C357.881 173.669 354.316 174.541 350.72 174.562C349.795 174.567 348.896 174.521 347.996 174.423L347.997 174.578C348.051 183.68 355.466 191.037 364.533 190.983L380.971 190.887C385.518 190.86 389.212 194.526 389.239 199.09C389.266 203.653 385.614 207.362 381.068 207.389L422.165 207.148L422.092 194.771L422.068 190.645C422.032 184.535 425.314 179.178 430.203 176.313C432.609 174.906 435.404 174.064 438.409 174.047L438.385 169.921C438.345 163.088 443.835 157.512 450.641 157.472C452.902 157.459 454.762 159.305 454.775 161.574L454.824 169.825L454.848 173.95L454.921 186.327C454.934 188.596 456.794 190.441 459.054 190.428C461.315 190.415 463.153 188.548 463.14 186.279L462.989 160.571C462.916 148.143 454.94 137.154 443.153 133.278L440.965 132.569C438.907 131.885 437.712 129.726 438.265 127.608C438.818 125.491 440.891 124.189 443.025 124.589L448.142 125.591C471.029 130.046 487.586 150.087 487.723 173.474L487.725 173.757C487.912 205.653 462.302 231.666 430.529 231.852L430.247 231.854L389.433 232.094L389.279 232.095C357.583 232.281 331.746 206.647 331.559 174.829L331.559 174.675L331.499 164.567C328.883 160.818 327.341 156.263 327.312 151.338L327.279 145.82L327.277 145.459C324.883 144.622 323.149 142.363 323.133 139.656C323.113 136.227 325.845 133.452 329.261 133.431L329.981 133.427C334.547 123.654 344.396 116.84 355.877 116.773L372.316 116.676C383.797 116.608 393.726 123.306 398.406 133.025L399.125 133.021C402.542 133.001 405.306 135.744 405.326 139.173C405.342 141.88 403.635 144.16 401.251 145.025L401.253 145.386L401.285 150.903C401.287 151.264 401.29 151.625 401.266 152.012C404.339 150.396 407.853 149.498 411.551 149.476L413.606 149.464C418.153 149.438 421.847 153.103 421.874 157.667C421.901 162.231 418.249 165.94 413.703 165.966L411.648 165.979C408.232 165.999 405.5 168.774 405.52 172.203L405.532 174.266L420.019 174.181C416.14 178.587 413.811 184.377 413.849 190.72L405.629 190.768C394.764 190.832 385.502 183.821 382.157 174.068C380.848 174.308 379.513 174.419 378.152 174.427C374.53 174.448 370.981 173.618 367.735 172.012ZM347.803 141.574C348.893 141.567 349.941 141.996 350.716 142.765C351.492 143.534 351.931 144.581 351.937 145.675C351.944 146.769 351.517 147.821 350.751 148.599C349.984 149.378 348.942 149.818 347.852 149.825C346.762 149.831 345.714 149.403 344.939 148.634C344.163 147.864 343.724 146.818 343.718 145.724C343.711 144.629 344.138 143.577 344.904 142.799C345.671 142.021 346.713 141.58 347.803 141.574ZM376.595 145.53C376.589 144.436 377.015 143.384 377.782 142.606C378.548 141.828 379.59 141.387 380.68 141.381C381.77 141.374 382.818 141.803 383.593 142.572C384.369 143.341 384.808 144.388 384.814 145.482C384.821 146.576 384.394 147.628 383.628 148.406C382.862 149.185 381.819 149.625 380.729 149.632C379.639 149.638 378.591 149.21 377.816 148.44C377.041 147.671 376.601 146.625 376.595 145.53Z" fill="#D9D9D9" fill-opacity="0.25"/>
<path d="M649.869 727.261L653.192 728.892C654.712 729.656 656.384 730.033 658.105 730.023C664.141 729.988 669.018 725.034 668.982 718.975L668.95 713.457C668.896 704.355 661.481 696.998 652.414 697.052L635.95 697.148C626.883 697.202 619.555 704.645 619.608 713.747L619.641 719.265C619.676 725.324 624.611 730.22 630.647 730.185C632.342 730.175 634.01 729.778 635.546 728.996L638.85 727.326L641.001 726.23L637.933 724.211C636.772 723.444 636.097 722.159 636.089 720.793L636.083 719.839C636.063 716.409 638.795 713.634 642.211 713.614L646.321 713.59C649.737 713.57 652.502 716.313 652.522 719.742L652.527 720.696C652.535 722.063 651.849 723.356 650.724 724.136L647.705 726.191L649.869 727.261ZM647.735 740.012L644.412 738.355L641.108 740.025C637.881 741.668 634.316 742.54 630.72 742.561C629.795 742.567 628.896 742.52 627.996 742.422L627.997 742.577C628.051 751.679 635.466 759.036 644.533 758.983L660.971 758.886C665.518 758.859 669.212 762.525 669.239 767.089C669.266 771.653 665.614 775.361 661.068 775.388L702.165 775.147L702.092 762.77L702.068 758.645C702.032 752.534 705.314 747.177 710.203 744.312C712.609 742.905 715.404 742.064 718.409 742.046L718.385 737.921C718.345 731.088 723.835 725.512 730.641 725.472C732.902 725.458 734.762 727.304 734.775 729.573L734.824 737.824L734.848 741.949L734.921 754.326C734.934 756.595 736.794 758.441 739.054 758.427C741.315 758.414 743.153 756.547 743.14 754.278L742.989 728.571C742.916 716.143 734.94 705.153 723.153 701.277L720.965 700.568C718.907 699.884 717.712 697.725 718.265 695.608C718.818 693.49 720.891 692.188 723.025 692.588L728.142 693.59C751.029 698.045 767.586 718.086 767.723 741.473L767.725 741.756C767.912 773.652 742.302 799.665 710.529 799.851L710.247 799.853L669.433 800.093L669.279 800.094C637.583 800.28 611.746 774.646 611.559 742.828L611.559 742.674L611.499 732.566C608.883 728.817 607.341 724.262 607.312 719.337L607.279 713.819L607.277 713.458C604.883 712.621 603.149 710.363 603.133 707.655C603.113 704.226 605.845 701.451 609.261 701.431L609.981 701.426C614.547 691.653 624.396 684.839 635.877 684.772L652.316 684.675C663.797 684.608 673.726 691.305 678.406 701.024L679.125 701.02C682.542 701 685.306 703.743 685.326 707.172C685.342 709.88 683.635 712.159 681.251 713.024L681.253 713.385L681.285 718.903C681.287 719.264 681.29 719.625 681.266 720.011C684.339 718.395 687.853 717.497 691.551 717.476L693.606 717.464C698.153 717.437 701.847 721.103 701.874 725.666C701.901 730.23 698.249 733.939 693.703 733.966L691.648 733.978C688.232 733.998 685.5 736.773 685.52 740.202L685.532 742.265L700.019 742.18C696.14 746.586 693.811 752.376 693.849 758.719L685.629 758.767C674.764 758.831 665.502 751.82 662.157 742.067C660.848 742.307 659.513 742.418 658.152 742.426C654.53 742.447 650.981 741.617 647.735 740.012ZM627.803 709.573C628.893 709.567 629.941 709.995 630.716 710.764C631.492 711.533 631.931 712.58 631.937 713.674C631.944 714.769 631.517 715.82 630.751 716.599C629.984 717.377 628.942 717.818 627.852 717.824C626.762 717.83 625.714 717.402 624.939 716.633C624.163 715.864 623.724 714.817 623.718 713.723C623.711 712.629 624.138 711.577 624.904 710.798C625.671 710.02 626.713 709.579 627.803 709.573ZM656.595 713.53C656.589 712.435 657.015 711.384 657.782 710.605C658.548 709.827 659.59 709.386 660.68 709.38C661.77 709.374 662.818 709.802 663.593 710.571C664.369 711.34 664.808 712.387 664.814 713.481C664.821 714.575 664.394 715.627 663.628 716.406C662.862 717.184 661.819 717.625 660.729 717.631C659.639 717.637 658.591 717.209 657.816 716.44C657.041 715.671 656.601 714.624 656.595 713.53Z" fill="#D9D9D9" fill-opacity="0.25"/>
<path d="M1186.87 636.262L1190.19 637.892C1191.71 638.657 1193.38 639.034 1195.1 639.024C1201.14 638.988 1206.02 634.035 1205.98 627.975L1205.95 622.458C1205.9 613.356 1198.48 605.999 1189.41 606.052L1172.95 606.149C1163.88 606.202 1156.55 613.646 1156.61 622.747L1156.64 628.265C1156.68 634.325 1161.61 639.221 1167.65 639.185C1169.34 639.175 1171.01 638.779 1172.55 637.996L1175.85 636.326L1178 635.231L1174.93 633.212C1173.77 632.445 1173.1 631.16 1173.09 629.793L1173.08 628.839C1173.06 625.41 1175.8 622.635 1179.21 622.615L1183.32 622.591C1186.74 622.57 1189.5 625.313 1189.52 628.743L1189.53 629.697C1189.54 631.063 1188.85 632.357 1187.72 633.137L1184.7 635.191L1186.87 636.262ZM1184.73 649.012L1181.41 647.356L1178.11 649.025C1174.88 650.669 1171.32 651.541 1167.72 651.562C1166.8 651.567 1165.9 651.521 1165 651.423L1165 651.578C1165.05 660.68 1172.47 668.037 1181.53 667.983L1197.97 667.887C1202.52 667.86 1206.21 671.526 1206.24 676.089C1206.27 680.653 1202.61 684.362 1198.07 684.389L1239.16 684.147L1239.09 671.771L1239.07 667.645C1239.03 661.534 1242.31 656.178 1247.2 653.312C1249.61 651.906 1252.4 651.064 1255.41 651.047L1255.39 646.921C1255.34 640.088 1260.83 634.512 1267.64 634.472C1269.9 634.459 1271.76 636.305 1271.78 638.574L1271.82 646.825L1271.85 650.95L1271.92 663.327C1271.93 665.596 1273.79 667.441 1276.05 667.428C1278.31 667.415 1280.15 665.547 1280.14 663.278L1279.99 637.571C1279.92 625.143 1271.94 614.154 1260.15 610.278L1257.97 609.569C1255.91 608.885 1254.71 606.726 1255.26 604.608C1255.82 602.49 1257.89 601.189 1260.02 601.589L1265.14 602.59C1288.03 607.046 1304.59 627.087 1304.72 650.473L1304.73 650.757C1304.91 682.652 1279.3 708.665 1247.53 708.852L1247.25 708.854L1206.43 709.094L1206.28 709.094C1174.58 709.281 1148.75 683.647 1148.56 651.829L1148.56 651.674L1148.5 641.567C1145.88 637.818 1144.34 633.263 1144.31 628.338L1144.28 622.82L1144.28 622.459C1141.88 621.622 1140.15 619.363 1140.13 616.656C1140.11 613.226 1142.85 610.451 1146.26 610.431L1146.98 610.427C1151.55 600.653 1161.4 593.84 1172.88 593.772L1189.32 593.676C1200.8 593.608 1210.73 600.306 1215.41 610.025L1216.13 610.021C1219.54 610.001 1222.31 612.744 1222.33 616.173C1222.34 618.88 1220.63 621.159 1218.25 622.024L1218.25 622.385L1218.29 627.903C1218.29 628.264 1218.29 628.625 1218.27 629.012C1221.34 627.395 1224.85 626.498 1228.55 626.476L1230.61 626.464C1235.15 626.438 1238.85 630.103 1238.87 634.667C1238.9 639.231 1235.25 642.94 1230.7 642.966L1228.65 642.978C1225.23 642.998 1222.5 645.773 1222.52 649.203L1222.53 651.266L1237.02 651.18C1233.14 655.587 1230.81 661.376 1230.85 667.719L1222.63 667.768C1211.76 667.831 1202.5 660.821 1199.16 651.068C1197.85 651.307 1196.51 651.418 1195.15 651.426C1191.53 651.448 1187.98 650.618 1184.73 649.012ZM1164.8 618.574C1165.89 618.567 1166.94 618.996 1167.72 619.765C1168.49 620.534 1168.93 621.581 1168.94 622.675C1168.94 623.769 1168.52 624.821 1167.75 625.599C1166.98 626.378 1165.94 626.818 1164.85 626.825C1163.76 626.831 1162.71 626.403 1161.94 625.633C1161.16 624.864 1160.72 623.817 1160.72 622.723C1160.71 621.629 1161.14 620.577 1161.9 619.799C1162.67 619.021 1163.71 618.58 1164.8 618.574ZM1193.6 622.53C1193.59 621.436 1194.02 620.384 1194.78 619.606C1195.55 618.828 1196.59 618.387 1197.68 618.381C1198.77 618.374 1199.82 618.803 1200.59 619.572C1201.37 620.341 1201.81 621.388 1201.81 622.482C1201.82 623.576 1201.39 624.628 1200.63 625.406C1199.86 626.184 1198.82 626.625 1197.73 626.632C1196.64 626.638 1195.59 626.209 1194.82 625.44C1194.04 624.671 1193.6 623.624 1193.6 622.53Z" fill="#D9D9D9" fill-opacity="0.25"/>
<path d="M922.869 482.262L926.192 483.893C927.712 484.657 929.384 485.034 931.105 485.024C937.141 484.989 942.018 480.035 941.982 473.976L941.95 468.458C941.896 459.356 934.481 451.999 925.414 452.052L908.95 452.149C899.883 452.202 892.555 459.646 892.608 468.748L892.641 474.266C892.676 480.325 897.611 485.221 903.647 485.185C905.342 485.176 907.01 484.779 908.546 483.996L911.85 482.327L914.001 481.231L910.933 479.212C909.772 478.445 909.097 477.16 909.089 475.793L909.083 474.839C909.063 471.41 911.795 468.635 915.211 468.615L919.321 468.591C922.737 468.571 925.502 471.314 925.522 474.743L925.527 475.697C925.535 477.063 924.849 478.357 923.724 479.137L920.705 481.192L922.869 482.262ZM920.735 495.012L917.412 493.356L914.108 495.026C910.881 496.669 907.316 497.541 903.72 497.562C902.795 497.567 901.896 497.521 900.996 497.423L900.997 497.578C901.051 506.68 908.466 514.037 917.533 513.983L933.971 513.887C938.518 513.86 942.212 517.526 942.239 522.09C942.266 526.654 938.614 530.362 934.068 530.389L975.165 530.148L975.092 517.771L975.068 513.646C975.032 507.535 978.314 502.178 983.203 499.313C985.609 497.906 988.404 497.065 991.409 497.047L991.385 492.921C991.345 486.089 996.835 480.512 1003.64 480.472C1005.9 480.459 1007.76 482.305 1007.78 484.574L1007.82 492.825L1007.85 496.95L1007.92 509.327C1007.93 511.596 1009.79 513.442 1012.05 513.428C1014.31 513.415 1016.15 511.548 1016.14 509.279L1015.99 483.571C1015.92 471.143 1007.94 460.154 996.153 456.278L993.965 455.569C991.907 454.885 990.712 452.726 991.265 450.608C991.818 448.491 993.891 447.189 996.025 447.589L1001.14 448.591C1024.03 453.046 1040.59 473.087 1040.72 496.474L1040.73 496.757C1040.91 528.653 1015.3 554.666 983.529 554.852L983.247 554.854L942.433 555.094L942.279 555.095C910.583 555.281 884.746 529.647 884.559 497.829L884.559 497.675L884.499 487.567C881.883 483.818 880.341 479.263 880.312 474.338L880.279 468.82L880.277 468.459C877.883 467.622 876.149 465.363 876.133 462.656C876.113 459.227 878.845 456.452 882.261 456.432L882.981 456.427C887.547 446.654 897.396 439.84 908.877 439.773L925.316 439.676C936.797 439.609 946.726 446.306 951.406 456.025L952.125 456.021C955.542 456.001 958.306 458.744 958.326 462.173C958.342 464.881 956.635 467.16 954.251 468.025L954.253 468.386L954.285 473.903C954.287 474.264 954.29 474.625 954.266 475.012C957.339 473.396 960.853 472.498 964.551 472.477L966.606 472.464C971.153 472.438 974.847 476.103 974.874 480.667C974.901 485.231 971.249 488.94 966.703 488.967L964.648 488.979C961.232 488.999 958.5 491.774 958.52 495.203L958.532 497.266L973.019 497.181C969.14 501.587 966.811 507.377 966.849 513.72L958.629 513.768C947.764 513.832 938.502 506.821 935.157 497.068C933.848 497.308 932.513 497.419 931.152 497.427C927.53 497.448 923.981 496.618 920.735 495.012ZM900.803 464.574C901.893 464.568 902.941 464.996 903.716 465.765C904.492 466.534 904.931 467.581 904.937 468.675C904.944 469.769 904.517 470.821 903.751 471.6C902.984 472.378 901.942 472.819 900.852 472.825C899.762 472.831 898.714 472.403 897.939 471.634C897.163 470.865 896.724 469.818 896.718 468.724C896.711 467.629 897.138 466.578 897.904 465.799C898.671 465.021 899.713 464.58 900.803 464.574ZM929.595 468.53C929.589 467.436 930.015 466.384 930.782 465.606C931.548 464.828 932.59 464.387 933.68 464.381C934.77 464.374 935.818 464.803 936.593 465.572C937.369 466.341 937.808 467.388 937.814 468.482C937.821 469.576 937.394 470.628 936.628 471.406C935.862 472.185 934.819 472.625 933.729 472.632C932.639 472.638 931.591 472.21 930.816 471.441C930.041 470.671 929.601 469.625 929.595 468.53Z" fill="#D9D9D9" fill-opacity="0.25"/>
<path d="M162.633 798.041L165.956 799.672C167.476 800.437 169.147 800.814 170.868 800.804C176.904 800.768 181.781 795.815 181.746 789.755L181.713 784.237C181.66 775.135 174.245 767.779 165.178 767.832L148.714 767.929C139.647 767.982 132.318 775.425 132.372 784.527L132.404 790.045C132.44 796.104 137.375 801 143.411 800.965C145.106 800.955 146.773 800.558 148.31 799.776L151.614 798.106L153.765 797.01L150.696 794.991C149.536 794.225 148.86 792.939 148.852 791.573L148.847 790.619C148.827 787.19 151.559 784.414 154.975 784.394L159.085 784.37C162.501 784.35 165.265 787.093 165.285 790.522L165.291 791.476C165.299 792.843 164.613 794.136 163.487 794.916L160.469 796.971L162.633 798.041ZM160.498 810.792L157.175 809.135L153.871 810.805C150.645 812.448 147.079 813.32 143.483 813.341C142.559 813.347 141.66 813.301 140.76 813.203L140.761 813.357C140.814 822.459 148.229 829.816 157.296 829.763L173.735 829.666C178.281 829.64 181.976 833.305 182.003 837.869C182.029 842.433 178.378 846.142 173.832 846.168L214.928 845.927L214.856 833.55L214.831 829.425C214.795 823.314 218.078 817.957 222.967 815.092C225.373 813.686 228.168 812.844 231.173 812.826L231.149 808.701C231.109 801.868 236.598 796.292 243.405 796.252C245.665 796.239 247.526 798.084 247.539 800.353L247.587 808.604L247.612 812.73L247.684 825.106C247.698 827.375 249.558 829.221 251.818 829.208C254.078 829.194 255.917 827.327 255.904 825.058L255.753 799.351C255.68 786.923 247.704 775.934 235.917 772.058L233.729 771.348C231.67 770.664 230.476 768.505 231.029 766.388C231.581 764.27 233.654 762.969 235.789 763.369L240.906 764.37C263.793 768.825 280.35 788.867 280.487 812.253L280.489 812.537C280.676 844.432 255.066 870.445 223.293 870.632L223.01 870.633L182.197 870.873L182.042 870.874C150.347 871.06 124.51 845.427 124.323 813.609L124.322 813.454L124.263 803.346C121.647 799.597 120.104 795.042 120.075 790.117L120.043 784.6L120.041 784.239C117.647 783.402 115.913 781.143 115.897 778.435C115.877 775.006 118.609 772.231 122.025 772.211L122.744 772.207C127.31 762.433 137.16 755.619 148.641 755.552L165.079 755.455C176.561 755.388 186.489 762.085 191.17 771.805L191.889 771.801C195.305 771.78 198.07 774.523 198.09 777.953C198.106 780.66 196.398 782.939 194.014 783.804L194.017 784.165L194.049 789.683C194.051 790.044 194.053 790.405 194.03 790.792C197.103 789.175 200.616 788.278 204.315 788.256L206.37 788.244C210.916 788.217 214.611 791.883 214.638 796.447C214.664 801.01 211.013 804.719 206.467 804.746L204.412 804.758C200.996 804.778 198.264 807.553 198.284 810.982L198.296 813.045L212.783 812.96C208.904 817.366 206.575 823.156 206.612 829.499L198.393 829.547C187.528 829.611 178.266 822.6 174.92 812.847C173.612 813.087 172.277 813.198 170.915 813.206C167.294 813.227 163.744 812.397 160.498 810.792ZM140.567 780.353C141.657 780.347 142.705 780.775 143.48 781.545C144.255 782.314 144.694 783.361 144.701 784.455C144.707 785.549 144.28 786.601 143.514 787.379C142.748 788.157 141.705 788.598 140.615 788.604C139.525 788.611 138.478 788.182 137.702 787.413C136.927 786.644 136.488 785.597 136.482 784.503C136.475 783.409 136.902 782.357 137.668 781.579C138.434 780.801 139.477 780.36 140.567 780.353ZM169.359 784.31C169.352 783.216 169.779 782.164 170.545 781.386C171.311 780.607 172.354 780.167 173.444 780.16C174.534 780.154 175.582 780.582 176.357 781.351C177.132 782.121 177.572 783.167 177.578 784.262C177.584 785.356 177.158 786.408 176.391 787.186C175.625 787.964 174.583 788.405 173.493 788.411C172.403 788.418 171.355 787.989 170.58 787.22C169.804 786.451 169.365 785.404 169.359 784.31Z" fill="#D9D9D9" fill-opacity="0.25"/>
<path d="M33.4685 472.789L36.7916 474.419C38.3115 475.184 39.9834 475.561 41.7043 475.551C47.7403 475.515 52.6173 470.562 52.5817 464.502L52.5493 458.984C52.4958 449.883 45.0806 442.526 36.0137 442.579L19.5495 442.676C10.4826 442.729 3.15436 450.172 3.20783 459.274L3.24025 464.792C3.27584 470.852 8.21066 475.748 14.2467 475.712C15.9419 475.702 17.6092 475.306 19.1458 474.523L22.4495 472.853L24.6007 471.758L21.5322 469.739C20.3718 468.972 19.6964 467.687 19.6884 466.32L19.6828 465.366C19.6626 461.937 22.3947 459.162 25.8109 459.142L29.9205 459.117C33.3367 459.097 36.1012 461.84 36.1213 465.269L36.1269 466.223C36.135 467.59 35.449 468.883 34.3234 469.664L31.3045 471.718L33.4685 472.789ZM31.3344 485.539L28.0111 483.883L24.7074 485.552C21.4806 487.196 17.9153 488.068 14.3194 488.089C13.3947 488.094 12.4954 488.048 11.5959 487.95L11.5968 488.105C11.6502 497.207 19.0654 504.563 28.1323 504.51L44.5709 504.414C49.1172 504.387 52.8118 508.052 52.8386 512.616C52.8654 517.18 49.2141 520.889 44.6678 520.916L85.7642 520.674L85.6915 508.298L85.6673 504.172C85.6314 498.061 88.9135 492.704 93.8027 489.839C96.2089 488.433 99.0038 487.591 102.009 487.574L101.985 483.448C101.945 476.615 107.434 471.039 114.241 470.999C116.501 470.986 118.361 472.831 118.375 475.1L118.423 483.351L118.448 487.477L118.52 499.853C118.534 502.123 120.394 503.968 122.654 503.955C124.914 503.942 126.753 502.074 126.74 499.805L126.589 474.098C126.516 461.67 118.54 450.681 106.753 446.805L104.565 446.096C102.506 445.412 101.312 443.253 101.865 441.135C102.417 439.017 104.49 437.716 106.624 438.116L111.742 439.117C134.629 443.573 151.186 463.614 151.323 487L151.325 487.284C151.512 519.179 125.902 545.192 94.1289 545.379L93.8464 545.381L53.0325 545.62L52.8784 545.621C21.1827 545.807 -4.654 520.174 -4.84091 488.356L-4.84182 488.201L-4.90119 478.094C-7.51752 474.344 -9.05976 469.789 -9.08869 464.865L-9.1211 459.347L-9.12322 458.986C-11.517 458.149 -13.2512 455.89 -13.2671 453.183C-13.2872 449.753 -10.5551 446.978 -7.13899 446.958L-6.4198 446.954C-1.8537 437.18 7.99545 430.367 19.4768 430.299L35.9153 430.203C47.3967 430.135 57.3252 436.833 62.0058 446.552L62.725 446.548C66.1411 446.528 68.9057 449.27 68.9258 452.7C68.9417 455.407 67.2341 457.686 64.8504 458.551L64.8525 458.912L64.8849 464.43C64.887 464.791 64.8892 465.152 64.8657 465.539C67.9386 463.922 71.4523 463.025 75.151 463.003L77.2058 462.991C81.7521 462.964 85.4468 466.63 85.4736 471.194C85.5004 475.758 81.8491 479.466 77.3028 479.493L75.2479 479.505C71.8318 479.525 69.0997 482.3 69.1198 485.73L69.1319 487.792L83.6184 487.707C79.74 492.114 77.4109 497.903 77.4482 504.246L69.2289 504.294C58.364 504.358 49.1015 497.348 45.7564 487.595C44.4478 487.834 43.1128 487.945 41.7514 487.953C38.1298 487.975 34.5802 487.144 31.3344 485.539ZM11.4029 455.101C12.4928 455.094 13.5407 455.523 14.3159 456.292C15.0912 457.061 15.5303 458.108 15.5368 459.202C15.5432 460.296 15.1164 461.348 14.3502 462.126C13.5841 462.904 12.5413 463.345 11.4514 463.352C10.3614 463.358 9.31355 462.929 8.5383 462.16C7.76305 461.391 7.3239 460.344 7.31748 459.25C7.31105 458.156 7.73786 457.104 8.50403 456.326C9.27019 455.548 10.3129 455.107 11.4029 455.101ZM40.1946 459.057C40.1882 457.963 40.615 456.911 41.3812 456.133C42.1474 455.355 43.1901 454.914 44.28 454.907C45.37 454.901 46.4178 455.33 47.1931 456.099C47.9684 456.868 48.4075 457.915 48.4139 459.009C48.4204 460.103 47.9935 461.155 47.2274 461.933C46.4612 462.711 45.4185 463.152 44.3285 463.158C43.2386 463.165 42.1907 462.736 41.4155 461.967C40.6402 461.198 40.2011 460.151 40.1946 459.057Z" fill="#D9D9D9" fill-opacity="0.25"/>
<path d="M-53.6409 216.149L-50.3178 217.78C-48.7978 218.545 -47.126 218.922 -45.4051 218.912C-39.3691 218.876 -34.4921 213.922 -34.5277 207.863L-34.5601 202.345C-34.6136 193.243 -42.0287 185.887 -51.0956 185.94L-67.5599 186.036C-76.6268 186.09 -83.955 193.533 -83.9015 202.635L-83.8691 208.153C-83.8335 214.212 -78.8987 219.108 -72.8627 219.073C-71.1674 219.063 -69.5002 218.666 -67.9636 217.884L-64.6599 216.214L-62.5087 215.118L-65.5772 213.099C-66.7376 212.333 -67.413 211.047 -67.421 209.681L-67.4266 208.727C-67.4468 205.297 -64.7146 202.522 -61.2985 202.502L-57.1889 202.478C-53.7727 202.458 -51.0082 205.201 -50.988 208.63L-50.9824 209.584C-50.9744 210.951 -51.6603 212.244 -52.7859 213.024L-55.8048 215.079L-53.6409 216.149ZM-55.775 228.9L-59.0983 227.243L-62.402 228.913C-65.6288 230.556 -69.194 231.428 -72.79 231.449C-73.7146 231.455 -74.6139 231.409 -75.5135 231.311L-75.5126 231.465C-75.4591 240.567 -68.044 247.924 -58.9771 247.871L-42.5385 247.774C-37.9922 247.748 -34.2976 251.413 -34.2708 255.977C-34.2439 260.541 -37.8953 264.25 -42.4416 264.276L-1.34513 264.035L-1.41783 251.658L-1.44207 247.533C-1.47797 241.422 1.80408 236.065 6.69331 233.2C9.09955 231.793 11.8944 230.952 14.8996 230.934L14.8753 226.809C14.8352 219.976 20.325 214.4 27.1316 214.36C29.3919 214.347 31.2521 216.192 31.2655 218.461L31.3139 226.712L31.3382 230.838L31.4109 243.214C31.4242 245.483 33.2844 247.329 35.5447 247.316C37.805 247.302 39.6435 245.435 39.6302 243.166L39.4791 217.459C39.4061 205.031 31.4302 194.042 19.6432 190.166L17.4557 189.456C15.3968 188.772 14.2026 186.613 14.7552 184.496C15.3079 182.378 17.3808 181.077 19.5151 181.477L24.6325 182.478C47.5194 186.933 64.0763 206.974 64.2137 230.361L64.2153 230.645C64.4027 262.54 38.7923 288.553 7.01957 288.74L6.73703 288.741L-34.0769 288.981L-34.231 288.982C-65.9266 289.168 -91.7634 263.535 -91.9503 231.717L-91.9512 231.562L-92.0106 221.454C-94.6269 217.705 -96.1691 213.15 -96.1981 208.225L-96.2305 202.708L-96.2326 202.347C-98.6263 201.51 -100.361 199.251 -100.376 196.543C-100.397 193.114 -97.6645 190.339 -94.2484 190.319L-93.5292 190.315C-88.9631 180.541 -79.1139 173.727 -67.6326 173.66L-51.194 173.563C-39.7127 173.496 -29.7842 180.193 -25.1036 189.913L-24.3844 189.909C-20.9683 189.888 -18.2037 192.631 -18.1836 196.061C-18.1677 198.768 -19.8753 201.047 -22.259 201.912L-22.2569 202.273L-22.2245 207.791C-22.2223 208.152 -22.2202 208.513 -22.2436 208.9C-19.1708 207.283 -15.6571 206.386 -11.9584 206.364L-9.90355 206.352C-5.35726 206.325 -1.6626 209.991 -1.63579 214.555C-1.60898 219.118 -5.26032 222.827 -9.80661 222.854L-11.8614 222.866C-15.2776 222.886 -18.0097 225.661 -17.9895 229.09L-17.9774 231.153L-3.49093 231.068C-7.36935 235.474 -9.69846 241.264 -9.6612 247.607L-17.8805 247.655C-28.7454 247.719 -38.0079 240.708 -41.353 230.955C-42.6616 231.195 -43.9966 231.306 -45.3579 231.314C-48.9796 231.335 -52.5291 230.505 -55.775 228.9ZM-75.7065 198.461C-74.6165 198.455 -73.5687 198.883 -72.7934 199.653C-72.0182 200.422 -71.579 201.469 -71.5726 202.563C-71.5662 203.657 -71.993 204.709 -72.7592 205.487C-73.5253 206.265 -74.5681 206.706 -75.658 206.712C-76.748 206.719 -77.7958 206.29 -78.5711 205.521C-79.3463 204.752 -79.7855 203.705 -79.7919 202.611C-79.7983 201.517 -79.3715 200.465 -78.6053 199.687C-77.8392 198.909 -76.7964 198.468 -75.7065 198.461ZM-46.9147 202.418C-46.9212 201.324 -46.4944 200.272 -45.7282 199.494C-44.962 198.715 -43.9193 198.275 -42.8293 198.268C-41.7394 198.262 -40.6915 198.69 -39.9163 199.459C-39.141 200.229 -38.7019 201.275 -38.6954 202.37C-38.689 203.464 -39.1158 204.516 -39.882 205.294C-40.6482 206.072 -41.6909 206.513 -42.7809 206.519C-43.8708 206.526 -44.9187 206.097 -45.6939 205.328C-46.4692 204.559 -46.9083 203.512 -46.9147 202.418Z" fill="#D9D9D9" fill-opacity="0.25"/>
<path d="M451.049 869.055L454.372 870.686C455.892 871.451 457.563 871.828 459.284 871.818C465.32 871.782 470.197 866.828 470.162 860.769L470.129 855.251C470.076 846.149 462.661 838.792 453.594 838.846L437.13 838.942C428.063 838.996 420.734 846.439 420.788 855.541L420.82 861.059C420.856 867.118 425.791 872.014 431.827 871.979C433.522 871.969 435.189 871.572 436.726 870.79L440.03 869.12L442.181 868.024L439.112 866.005C437.952 865.239 437.276 863.953 437.268 862.587L437.263 861.633C437.243 858.203 439.975 855.428 443.391 855.408L447.501 855.384C450.917 855.364 453.681 858.107 453.701 861.536L453.707 862.49C453.715 863.857 453.029 865.15 451.904 865.93L448.885 867.985L451.049 869.055ZM448.914 881.806L445.591 880.149L442.287 881.819C439.061 883.462 435.495 884.334 431.899 884.355C430.975 884.361 430.076 884.314 429.176 884.217L429.177 884.371C429.23 893.473 436.645 900.83 445.712 900.777L462.151 900.68C466.697 900.654 470.392 904.319 470.419 908.883C470.446 913.447 466.794 917.156 462.248 917.182L503.344 916.941L503.272 904.564L503.247 900.439C503.211 894.328 506.494 888.971 511.383 886.106C513.789 884.699 516.584 883.858 519.589 883.84L519.565 879.715C519.525 872.882 525.014 867.306 531.821 867.266C534.081 867.252 535.942 869.098 535.955 871.367L536.003 879.618L536.028 883.744L536.1 896.12C536.114 898.389 537.974 900.235 540.234 900.222C542.494 900.208 544.333 898.341 544.32 896.072L544.169 870.365C544.096 857.937 536.12 846.947 524.333 843.072L522.145 842.362C520.086 841.678 518.892 839.519 519.445 837.402C519.997 835.284 522.07 833.983 524.205 834.383L529.322 835.384C552.209 839.839 568.766 859.88 568.903 883.267L568.905 883.551C569.092 915.446 543.482 941.459 511.709 941.646L511.426 941.647L470.613 941.887L470.458 941.888C438.763 942.074 412.926 916.441 412.739 884.623L412.738 884.468L412.679 874.36C410.063 870.611 408.52 866.056 408.491 861.131L408.459 855.613L408.457 855.252C406.063 854.416 404.329 852.157 404.313 849.449C404.293 846.02 407.025 843.245 410.441 843.225L411.16 843.221C415.726 833.447 425.576 826.633 437.057 826.566L453.495 826.469C464.977 826.402 474.905 833.099 479.586 842.819L480.305 842.814C483.721 842.794 486.486 845.537 486.506 848.967C486.522 851.674 484.814 853.953 482.43 854.818L482.433 855.179L482.465 860.697C482.467 861.058 482.469 861.419 482.446 861.806C485.519 860.189 489.032 859.292 492.731 859.27L494.786 859.258C499.332 859.231 503.027 862.897 503.054 867.461C503.08 872.024 499.429 875.733 494.883 875.76L492.828 875.772C489.412 875.792 486.68 878.567 486.7 881.996L486.712 884.059L501.199 883.974C497.32 888.38 494.991 894.17 495.028 900.513L486.809 900.561C475.944 900.625 466.682 893.614 463.336 883.861C462.028 884.101 460.693 884.212 459.332 884.22C455.71 884.241 452.16 883.411 448.914 881.806ZM428.983 851.367C430.073 851.361 431.121 851.789 431.896 852.559C432.671 853.328 433.11 854.374 433.117 855.469C433.123 856.563 432.696 857.615 431.93 858.393C431.164 859.171 430.121 859.612 429.031 859.618C427.941 859.625 426.894 859.196 426.118 858.427C425.343 857.658 424.904 856.611 424.898 855.517C424.891 854.423 425.318 853.371 426.084 852.593C426.85 851.814 427.893 851.374 428.983 851.367ZM457.775 855.324C457.768 854.23 458.195 853.178 458.961 852.4C459.727 851.621 460.77 851.181 461.86 851.174C462.95 851.168 463.998 851.596 464.773 852.365C465.548 853.135 465.988 854.181 465.994 855.275C466 856.37 465.574 857.422 464.807 858.2C464.041 858.978 462.999 859.419 461.909 859.425C460.819 859.432 459.771 859.003 458.996 858.234C458.22 857.465 457.781 856.418 457.775 855.324Z" fill="#D9D9D9" fill-opacity="0.25"/>
<path d="M214.71 239.082C222.132 232.834 232.147 227.438 244.151 227.438C256.154 227.438 266.17 232.834 273.592 239.082C280.995 245.33 286.258 252.789 288.927 257.977C289.817 259.719 289.817 261.782 288.927 263.524C286.258 268.712 280.995 276.171 273.592 282.419C266.17 288.686 256.154 294.082 244.151 294.082C232.147 294.082 222.132 288.686 214.71 282.438C211.643 279.844 208.936 277.042 206.626 274.278L189.643 284.161C187.276 285.543 184.266 285.165 182.316 283.233C180.366 281.302 179.968 278.311 181.331 275.925L190.003 260.76L181.331 245.595C179.968 243.209 180.385 240.218 182.335 238.287C184.285 236.355 187.276 235.977 189.662 237.359L206.645 247.261C208.955 244.497 211.662 241.695 214.729 239.101L214.71 239.082ZM265.356 260.76C265.356 259.153 264.718 257.612 263.581 256.476C262.445 255.34 260.904 254.701 259.297 254.701C257.691 254.701 256.149 255.34 255.013 256.476C253.877 257.612 253.239 259.153 253.239 260.76C253.239 262.367 253.877 263.908 255.013 265.044C256.149 266.18 257.691 266.819 259.297 266.819C260.904 266.819 262.445 266.18 263.581 265.044C264.718 263.908 265.356 262.367 265.356 260.76Z" fill="#182737" fill-opacity="0.1"/>
<path d="M356.183 662.644C363.605 656.396 373.62 651 385.624 651C397.627 651 407.643 656.396 415.064 662.644C422.467 668.892 427.731 676.351 430.4 681.539C431.29 683.281 431.29 685.345 430.4 687.086C427.731 692.274 422.467 699.734 415.064 705.982C407.643 712.248 397.627 717.644 385.624 717.644C373.62 717.644 363.605 712.248 356.183 706.001C353.116 703.407 350.408 700.605 348.098 697.84L331.116 707.723C328.749 709.106 325.739 708.727 323.789 706.796C321.838 704.865 321.441 701.873 322.804 699.488L331.475 684.322L322.804 669.157C321.441 666.771 321.857 663.78 323.807 661.849C325.758 659.918 328.749 659.539 331.135 660.921L348.117 670.823C350.427 668.059 353.135 665.257 356.202 662.663L356.183 662.644ZM406.829 684.322C406.829 682.715 406.19 681.174 405.054 680.038C403.918 678.902 402.377 678.264 400.77 678.264C399.163 678.264 397.622 678.902 396.486 680.038C395.35 681.174 394.711 682.715 394.711 684.322C394.711 685.929 395.35 687.47 396.486 688.606C397.622 689.743 399.163 690.381 400.77 690.381C402.377 690.381 403.918 689.743 405.054 688.606C406.19 687.47 406.829 685.929 406.829 684.322Z" fill="#182737" fill-opacity="0.1"/>
<path d="M118.447 508.621C125.868 502.373 135.884 496.977 147.887 496.977C159.891 496.977 169.906 502.373 177.328 508.621C184.731 514.868 189.994 522.328 192.664 527.516C193.554 529.258 193.554 531.321 192.664 533.063C189.994 538.251 184.731 545.71 177.328 551.958C169.906 558.225 159.891 563.621 147.887 563.621C135.884 563.621 125.868 558.225 118.447 551.977C115.379 549.383 112.672 546.581 110.362 543.817L93.3793 553.7C91.0127 555.082 88.0023 554.703 86.0522 552.772C84.1021 550.841 83.7045 547.85 85.0677 545.464L93.739 530.299L85.0677 515.134C83.7045 512.748 84.1211 509.757 86.0712 507.825C88.0212 505.894 91.0127 505.516 93.3982 506.898L110.381 516.8C112.691 514.035 115.398 511.233 118.465 508.64L118.447 508.621ZM169.092 530.299C169.092 528.692 168.454 527.151 167.318 526.015C166.182 524.879 164.64 524.24 163.034 524.24C161.427 524.24 159.886 524.879 158.75 526.015C157.613 527.151 156.975 528.692 156.975 530.299C156.975 531.906 157.613 533.447 158.75 534.583C159.886 535.719 161.427 536.357 163.034 536.357C164.64 536.357 166.182 535.719 167.318 534.583C168.454 533.447 169.092 531.906 169.092 530.299Z" fill="#182737" fill-opacity="0.1"/>
<path d="M464.995 320.535C472.417 314.288 482.433 308.892 494.436 308.892C506.44 308.892 516.455 314.288 523.877 320.535C531.28 326.783 536.543 334.243 539.213 339.431C540.102 341.172 540.102 343.236 539.213 344.978C536.543 350.166 531.28 357.625 523.877 363.873C516.455 370.14 506.44 375.536 494.436 375.536C482.433 375.536 472.417 370.14 464.995 363.892C461.928 361.298 459.221 358.496 456.911 355.732L439.928 365.615C437.561 366.997 434.551 366.618 432.601 364.687C430.651 362.756 430.253 359.765 431.617 357.379L440.288 342.214L431.617 327.048C430.253 324.663 430.67 321.671 432.62 319.74C434.57 317.809 437.561 317.43 439.947 318.813L456.93 328.715C459.24 325.95 461.947 323.148 465.014 320.554L464.995 320.535ZM515.641 342.214C515.641 340.607 515.003 339.066 513.867 337.93C512.73 336.794 511.189 336.155 509.582 336.155C507.976 336.155 506.435 336.794 505.298 337.93C504.162 339.066 503.524 340.607 503.524 342.214C503.524 343.821 504.162 345.362 505.298 346.498C506.435 347.634 507.976 348.272 509.582 348.272C511.189 348.272 512.73 347.634 513.867 346.498C515.003 345.362 515.641 343.821 515.641 342.214Z" fill="#182737" fill-opacity="0.1"/>
<path d="M574.587 521.949C582.009 515.702 592.024 510.306 604.028 510.306C616.031 510.306 626.047 515.702 633.469 521.949C640.871 528.197 646.135 535.657 648.804 540.845C649.694 542.586 649.694 544.65 648.804 546.392C646.135 551.58 640.871 559.039 633.469 565.287C626.047 571.554 616.031 576.95 604.028 576.95C592.024 576.95 582.009 571.554 574.587 565.306C571.52 562.712 568.813 559.91 566.503 557.146L549.52 567.029C547.153 568.411 544.143 568.032 542.193 566.101C540.243 564.17 539.845 561.179 541.208 558.793L549.88 543.628L541.208 528.462C539.845 526.077 540.262 523.085 542.212 521.154C544.162 519.223 547.153 518.844 549.539 520.227L566.522 530.128C568.832 527.364 571.539 524.562 574.606 521.968L574.587 521.949ZM625.233 543.628C625.233 542.021 624.595 540.48 623.458 539.344C622.322 538.207 620.781 537.569 619.174 537.569C617.567 537.569 616.026 538.207 614.89 539.344C613.754 540.48 613.116 542.021 613.116 543.628C613.116 545.235 613.754 546.776 614.89 547.912C616.026 549.048 617.567 549.686 619.174 549.686C620.781 549.686 622.322 549.048 623.458 547.912C624.595 546.776 625.233 545.235 625.233 543.628Z" fill="#182737" fill-opacity="0.1"/>
<path d="M574.181 842.644C581.603 836.396 591.618 831 603.622 831C615.625 831 625.641 836.396 633.062 842.644C640.465 848.891 645.729 856.351 648.398 861.539C649.288 863.28 649.288 865.344 648.398 867.086C645.729 872.274 640.465 879.733 633.062 885.981C625.641 892.248 615.625 897.644 603.622 897.644C591.618 897.644 581.603 892.248 574.181 886C571.114 883.406 568.406 880.604 566.097 877.84L549.114 887.723C546.747 889.105 543.737 888.726 541.787 886.795C539.837 884.864 539.439 881.873 540.802 879.487L549.473 864.322L540.802 849.156C539.439 846.771 539.855 843.78 541.806 841.848C543.756 839.917 546.747 839.539 549.133 840.921L566.115 850.823C568.425 848.058 571.133 845.256 574.2 842.662L574.181 842.644ZM624.827 864.322C624.827 862.715 624.188 861.174 623.052 860.038C621.916 858.902 620.375 858.263 618.768 858.263C617.161 858.263 615.62 858.902 614.484 860.038C613.348 861.174 612.709 862.715 612.709 864.322C612.709 865.929 613.348 867.47 614.484 868.606C615.62 869.742 617.161 870.38 618.768 870.38C620.375 870.38 621.916 869.742 623.052 868.606C624.188 867.47 624.827 865.929 624.827 864.322Z" fill="#182737" fill-opacity="0.1"/>
<path d="M801.177 616.731C808.599 610.483 818.614 605.087 830.618 605.087C842.621 605.087 852.637 610.483 860.059 616.731C867.461 622.979 872.725 630.439 875.394 635.626C876.284 637.368 876.284 639.432 875.394 641.174C872.725 646.361 867.461 653.821 860.059 660.069C852.637 666.336 842.621 671.731 830.618 671.731C818.614 671.731 808.599 666.336 801.177 660.088C798.11 657.494 795.402 654.692 793.093 651.928L776.11 661.811C773.743 663.193 770.733 662.814 768.783 660.883C766.833 658.952 766.435 655.96 767.798 653.575L776.469 638.409L767.798 623.244C766.435 620.859 766.852 617.867 768.802 615.936C770.752 614.005 773.743 613.626 776.129 615.008L793.112 624.91C795.421 622.146 798.129 619.344 801.196 616.75L801.177 616.731ZM851.823 638.409C851.823 636.803 851.184 635.262 850.048 634.125C848.912 632.989 847.371 632.351 845.764 632.351C844.157 632.351 842.616 632.989 841.48 634.125C840.344 635.262 839.706 636.803 839.706 638.409C839.706 640.016 840.344 641.557 841.48 642.693C842.616 643.83 844.157 644.468 845.764 644.468C847.371 644.468 848.912 643.83 850.048 642.693C851.184 641.557 851.823 640.016 851.823 638.409Z" fill="#182737" fill-opacity="0.1"/>
<path d="M1035.17 730.766C1042.59 724.518 1052.61 719.122 1064.61 719.122C1076.62 719.122 1086.63 724.518 1094.05 730.766C1101.46 737.014 1106.72 744.473 1109.39 749.661C1110.28 751.403 1110.28 753.466 1109.39 755.208C1106.72 760.396 1101.46 767.856 1094.05 774.103C1086.63 780.37 1076.62 785.766 1064.61 785.766C1052.61 785.766 1042.59 780.37 1035.17 774.122C1032.11 771.529 1029.4 768.726 1027.09 765.962L1010.11 775.845C1007.74 777.227 1004.73 776.849 1002.78 774.918C1000.83 772.986 1000.43 769.995 1001.79 767.609L1010.47 752.444L1001.79 737.279C1000.43 734.893 1000.85 731.902 1002.8 729.971C1004.75 728.039 1007.74 727.661 1010.12 729.043L1027.11 738.945C1029.42 736.181 1032.12 733.379 1035.19 730.785L1035.17 730.766ZM1085.82 752.444C1085.82 750.837 1085.18 749.296 1084.04 748.16C1082.91 747.024 1081.37 746.386 1079.76 746.386C1078.15 746.386 1076.61 747.024 1075.48 748.16C1074.34 749.296 1073.7 750.837 1073.7 752.444C1073.7 754.051 1074.34 755.592 1075.48 756.728C1076.61 757.864 1078.15 758.503 1079.76 758.503C1081.37 758.503 1082.91 757.864 1084.04 756.728C1085.18 755.592 1085.82 754.051 1085.82 752.444Z" fill="#182737" fill-opacity="0.1"/>
<path d="M1230.18 837.644C1237.6 831.396 1247.62 826 1259.62 826C1271.63 826 1281.64 831.396 1289.06 837.644C1296.47 843.892 1301.73 851.351 1304.4 856.539C1305.29 858.281 1305.29 860.344 1304.4 862.086C1301.73 867.274 1296.47 874.733 1289.06 880.981C1281.64 887.248 1271.63 892.644 1259.62 892.644C1247.62 892.644 1237.6 887.248 1230.18 881C1227.12 878.406 1224.41 875.604 1222.1 872.84L1205.12 882.723C1202.75 884.105 1199.74 883.727 1197.79 881.795C1195.84 879.864 1195.44 876.873 1196.8 874.487L1205.48 859.322L1196.8 844.157C1195.44 841.771 1195.86 838.78 1197.81 836.849C1199.76 834.917 1202.75 834.539 1205.13 835.921L1222.12 845.823C1224.43 843.059 1227.13 840.257 1230.2 837.663L1230.18 837.644ZM1280.83 859.322C1280.83 857.715 1280.19 856.174 1279.05 855.038C1277.92 853.902 1276.38 853.263 1274.77 853.263C1273.16 853.263 1271.62 853.902 1270.49 855.038C1269.35 856.174 1268.71 857.715 1268.71 859.322C1268.71 860.929 1269.35 862.47 1270.49 863.606C1271.62 864.742 1273.16 865.381 1274.77 865.381C1276.38 865.381 1277.92 864.742 1279.05 863.606C1280.19 862.47 1280.83 860.929 1280.83 859.322Z" fill="#182737" fill-opacity="0.1"/>
</g>
</svg>
