<svg width="347" height="96" viewBox="0 0 347 96" fill="none" xmlns="http://www.w3.org/2000/svg">
<path d="M127.696 24.688C115.728 24.688 108.56 32.304 108.56 47.536C108.56 62.896 115.728 70.512 127.696 70.512C139.664 70.512 146.832 62.896 146.832 47.536C146.832 32.304 139.664 24.688 127.696 24.688ZM127.696 61.552C121.872 61.552 118.8 57.456 118.8 47.536C118.8 37.744 121.872 33.648 127.696 33.648C133.52 33.648 136.592 37.744 136.592 47.536C136.592 57.456 133.52 61.552 127.696 61.552ZM166.783 70.192C170.879 70.192 173.375 69.552 175.935 68.976L174.335 61.552C173.183 61.872 171.071 62.128 169.535 62.128C166.591 62.128 165.823 60.656 165.823 57.584V42.544H174.527V34.992H165.823V26.16L156.415 27.312V34.992H150.655V42.544H156.223V60.272C156.223 67.312 159.935 70.192 166.783 70.192ZM194.596 70.192C198.692 70.192 201.188 69.552 203.748 68.976L202.148 61.552C200.996 61.872 198.884 62.128 197.348 62.128C194.404 62.128 193.635 60.656 193.635 57.584V42.544H202.34V34.992H193.635V26.16L184.228 27.312V34.992H178.468V42.544H184.036V60.272C184.036 67.312 187.748 70.192 194.596 70.192ZM217.16 70.512C221.896 70.512 224.584 68.72 226.76 66.928L227.336 70H235.912V46.64C235.912 38.256 230.344 34.48 220.488 34.48C216.584 34.48 211.976 35.248 208.52 36.208L209.992 43.888C212.744 43.12 216.264 42.416 220.488 42.416C225.288 42.416 226.312 44.4 226.312 46.96V48.176L217.672 48.944C210.632 49.584 206.92 52.912 206.92 58.736V60.72C206.92 66.224 210.696 70.512 217.16 70.512ZM219.976 62.832C217.672 62.832 216.136 61.808 216.136 59.824V58.992C216.136 56.88 217.608 55.664 220.232 55.472L226.312 54.96V60.72C224.904 61.872 222.344 62.832 219.976 62.832ZM263.829 63.088H252.949C251.605 63.088 250.517 62.896 250.517 61.872C250.517 61.424 250.773 60.976 251.157 60.464L251.861 59.504C253.205 59.824 254.741 59.952 256.277 59.952C264.213 59.952 270.293 56.304 270.293 47.216C270.293 45.36 270.037 43.696 269.589 42.288H274.133V34.992L264.405 36.208C262.101 34.992 259.349 34.48 256.277 34.48C248.341 34.48 242.261 38.128 242.261 47.216C242.261 51.76 243.797 54.96 246.357 57.008L244.629 59.12C243.349 60.656 242.581 61.872 242.581 63.536C242.581 65.008 243.093 66.224 243.925 67.184L241.941 69.424C240.597 70.896 239.765 72.56 239.765 74.48C239.765 81.328 247.445 83.44 254.869 83.44C266.325 83.44 274.645 78.32 274.645 71.536C274.645 67.184 271.637 63.088 263.829 63.088ZM256.277 41.264C259.157 41.264 260.757 42.992 260.821 47.216C260.821 51.568 259.221 53.168 256.277 53.168C253.333 53.168 251.733 51.568 251.733 47.216C251.733 42.992 253.333 41.264 256.277 41.264ZM255.637 75.824C251.861 75.824 249.237 75.12 249.237 73.264C249.237 72.496 249.685 71.728 250.389 70.896L251.157 70H251.541H261.333C263.957 70 265.045 70.832 265.045 72.176C265.045 74.16 261.461 75.824 255.637 75.824ZM292.664 70.512C302.328 70.512 308.408 64.624 308.408 52.464C308.536 40.368 302.456 34.48 292.664 34.48C283 34.48 276.92 40.368 276.92 52.464C276.92 64.624 283.064 70.512 292.664 70.512ZM292.664 62.192C288.824 62.192 286.648 59.568 286.648 52.464C286.648 45.424 288.824 42.8 292.664 42.8C296.504 42.8 298.68 45.424 298.68 52.464C298.68 59.568 296.504 62.192 292.664 62.192ZM313.833 70H323.433V45.424C325.097 44.208 327.529 43.056 329.897 43.056C332.585 43.056 333.673 44.656 333.673 46.96V70H343.273V44.272C343.273 38.256 340.329 34.48 333.609 34.48C329.257 34.48 325.353 36.208 322.985 38.064L322.409 34.992H313.833V70Z" fill="#182737"/>
<path d="M23.2547 40.3746L24.9075 41.2031C25.6634 41.5915 26.4962 41.7857 27.3547 41.7857C30.3656 41.7857 32.8128 39.3129 32.8128 36.2705V33.5C32.8128 28.9299 29.1356 25.2143 24.6128 25.2143H16.4C11.8772 25.2143 8.2 28.9299 8.2 33.5V36.2705C8.2 39.3129 10.6472 41.7857 13.6581 41.7857C14.5037 41.7857 15.3366 41.5915 16.1053 41.2031L17.7581 40.3746L18.8344 39.8308L17.3097 38.808C16.7331 38.4196 16.4 37.7723 16.4 37.0862V36.6071C16.4 34.8853 17.7709 33.5 19.475 33.5H21.525C23.2291 33.5 24.6 34.8853 24.6 36.6071V37.0862C24.6 37.7723 24.2541 38.4196 23.6903 38.808L22.1784 39.8308L23.2547 40.3746ZM22.1528 46.7701L20.5 45.9286L18.8472 46.7571C17.2328 47.5728 15.4519 48 13.6581 48C13.1969 48 12.7484 47.9741 12.3 47.9223V48C12.3 52.5701 15.9772 56.2857 20.5 56.2857H28.7C30.9678 56.2857 32.8 58.1371 32.8 60.4286C32.8 62.7201 30.9678 64.5714 28.7 64.5714H49.2V58.3571V56.2857C49.2 53.2174 50.8528 50.5375 53.3 49.1134C54.5044 48.4143 55.9009 48 57.4 48V45.9286C57.4 42.4978 60.1547 39.7143 63.55 39.7143C64.6775 39.7143 65.6 40.6464 65.6 41.7857V45.9286V48V54.2143C65.6 55.3536 66.5225 56.2857 67.65 56.2857C68.7775 56.2857 69.7 55.3536 69.7 54.2143V41.3067C69.7 35.0665 65.7537 29.5254 59.8856 27.5446L58.7966 27.1821C57.7716 26.8326 57.1822 25.7451 57.4641 24.6835C57.7459 23.6219 58.7837 22.9746 59.8472 23.1817L62.3969 23.6996C73.8 26.004 82 36.1152 82 47.8576V48C82 64.0147 69.1491 77 53.3 77H53.1591H32.8H32.7231C16.9125 77 4.1 64.0536 4.1 48.0777V48V42.925C2.80594 41.0348 2.05 38.7433 2.05 36.2705V33.5V33.3188C0.858437 32.8915 0 31.7522 0 30.3929C0 28.671 1.37094 27.2857 3.075 27.2857H3.43375C5.74 22.392 10.6728 19 16.4 19H24.6C30.3272 19 35.26 22.392 37.5663 27.2857H37.925C39.6291 27.2857 41 28.671 41 30.3929C41 31.7522 40.1416 32.8915 38.95 33.3188V33.5V36.2705C38.95 36.4518 38.95 36.633 38.9372 36.8272C40.4747 36.0246 42.23 35.5844 44.075 35.5844H45.1C47.3678 35.5844 49.2 37.4357 49.2 39.7272C49.2 42.0188 47.3678 43.8701 45.1 43.8701H44.075C42.3709 43.8701 41 45.2554 41 46.9772V48.0129H48.2262C46.2787 50.2138 45.1 53.1138 45.1 56.2987H41C35.5803 56.2987 30.9806 52.7513 29.3406 47.8446C28.6872 47.9612 28.0209 48.0129 27.3419 48.0129C25.5353 48.0129 23.7672 47.5857 22.1528 46.7701ZM12.3 31.4286C12.8437 31.4286 13.3651 31.6468 13.7496 32.0353C14.134 32.4237 14.35 32.9506 14.35 33.5C14.35 34.0494 14.134 34.5763 13.7496 34.9647C13.3651 35.3532 12.8437 35.5714 12.3 35.5714C11.7563 35.5714 11.2349 35.3532 10.8504 34.9647C10.466 34.5763 10.25 34.0494 10.25 33.5C10.25 32.9506 10.466 32.4237 10.8504 32.0353C11.2349 31.6468 11.7563 31.4286 12.3 31.4286ZM26.65 33.5C26.65 32.9506 26.866 32.4237 27.2504 32.0353C27.6349 31.6468 28.1563 31.4286 28.7 31.4286C29.2437 31.4286 29.7651 31.6468 30.1496 32.0353C30.534 32.4237 30.75 32.9506 30.75 33.5C30.75 34.0494 30.534 34.5763 30.1496 34.9647C29.7651 35.3532 29.2437 35.5714 28.7 35.5714C28.1563 35.5714 27.6349 35.3532 27.2504 34.9647C26.866 34.5763 26.65 34.0494 26.65 33.5Z" fill="#182737"/>
</svg>
