<?xml version="1.0" encoding="UTF-8"?>
<svg xmlns="http://www.w3.org/2000/svg" xmlns:xlink="http://www.w3.org/1999/xlink" viewBox="0 0 1440 810">
  <defs>
    <style>
      .cls-1 {
        fill: none;
      }

      .cls-2 {
        clip-path: url(#clippath);
      }

      .cls-3 {
        fill: #fff;
      }

      .cls-4 {
        fill: #e2ebf4;
      }

      .cls-5 {
        fill: #947151;
      }

      .cls-6 {
        fill: #e0b1fc;
      }

      .cls-7 {
        fill: #182737;
      }

      .cls-8 {
        fill: #7209b7;
      }

      .cls-9 {
        fill: rgba(143, 145, 148, .25);
      }

      .cls-10 {
        clip-path: url(#clippath-1);
      }

      .cls-11 {
        clip-path: url(#clippath-4);
      }

      .cls-12 {
        clip-path: url(#clippath-3);
      }

      .cls-13 {
        clip-path: url(#clippath-2);
      }

      .cls-14 {
        clip-path: url(#clippath-7);
      }

      .cls-15 {
        clip-path: url(#clippath-8);
      }

      .cls-16 {
        clip-path: url(#clippath-5);
      }

      .cls-17 {
        clip-path: url(#clippath-9);
      }

      .cls-18 {
        clip-path: url(#clippath-21);
      }

      .cls-19 {
        clip-path: url(#clippath-23);
      }

      .cls-20 {
        clip-path: url(#clippath-22);
      }

      .cls-21 {
        clip-path: url(#clippath-13);
      }

      .cls-22 {
        clip-path: url(#clippath-10);
      }

      .cls-23 {
        clip-path: url(#clippath-17);
      }

      .cls-24 {
        clip-path: url(#clippath-16);
      }

      .cls-25 {
        clip-path: url(#clippath-19);
      }

      .cls-26 {
        clip-path: url(#clippath-11);
      }

      .cls-27 {
        clip-path: url(#clippath-18);
      }

      .cls-28 {
        fill: #64892f;
      }

      .cls-28, .cls-29 {
        fill-rule: evenodd;
      }

      .cls-29 {
        fill: #8cc63e;
      }
    </style>
    <clipPath id="clippath">
      <rect class="cls-1" y="-.92" width="1440" height="817.5"/>
    </clipPath>
    <clipPath id="clippath-1">
      <rect class="cls-1" y="-.92" width="1440" height="810"/>
    </clipPath>
    <clipPath id="clippath-2">
      <rect class="cls-1" y="-.92" width="1440" height="810"/>
    </clipPath>
    <clipPath id="clippath-3">
      <rect class="cls-1" x="246.81" y="416.86" width="279" height="372"/>
    </clipPath>
    <clipPath id="clippath-4">
      <rect class="cls-1" x="260.56" y="484.67" width="251.25" height="2.25"/>
    </clipPath>
    <clipPath id="clippath-5">
      <rect class="cls-1" x="545.48" y="416.86" width="279" height="372"/>
    </clipPath>
    <clipPath id="clippath-7">
      <rect class="cls-1" x="559.22" y="484.67" width="251.25" height="2.25"/>
    </clipPath>
    <clipPath id="clippath-8">
      <rect class="cls-1" x="841.58" y="416.86" width="279" height="372"/>
    </clipPath>
    <clipPath id="clippath-9">
      <rect class="cls-1" x="855.33" y="484.67" width="251.25" height="2.25"/>
    </clipPath>
    <clipPath id="clippath-10">
      <rect class="cls-1" x="1140" y="416.86" width="279" height="372"/>
    </clipPath>
    <clipPath id="clippath-11">
      <rect class="cls-1" x="246.81" y="22.69" width="279" height="372"/>
    </clipPath>
    <clipPath id="clippath-13">
      <rect class="cls-1" x="545.48" y="22.69" width="279" height="372"/>
    </clipPath>
    <clipPath id="clippath-14">
      <rect class="cls-1" y="-.92" width="1440" height="817.5"/>
    </clipPath>
    <clipPath id="clippath-16">
      <rect class="cls-1" x="559.22" y="90.5" width="251.25" height="2.25"/>
    </clipPath>
    <clipPath id="clippath-17">
      <rect class="cls-1" x="841.58" y="22.69" width="279" height="372"/>
    </clipPath>
    <clipPath id="clippath-18">
      <rect class="cls-1" x="855.33" y="90.5" width="251.25" height="2.25"/>
    </clipPath>
    <clipPath id="clippath-19">
      <rect class="cls-1" x="1140" y="21.73" width="279" height="372"/>
    </clipPath>
    <clipPath id="clippath-21">
      <rect class="cls-1" x="1153.75" y="89.54" width="251.25" height="2.25"/>
    </clipPath>
    <clipPath id="clippath-22">
      <rect class="cls-1" x="260.56" y="90.5" width="251.25" height="2.25"/>
    </clipPath>
    <clipPath id="clippath-23">
      <rect class="cls-1" y="-.92" width="1440" height="810"/>
    </clipPath>
  </defs>
  <g id="Layer_1" data-name="Layer 1">
    <g class="cls-2">
      <rect class="cls-3" y="-.92" width="1440" height="817.5"/>
    </g>
    <g class="cls-10">
      <rect class="cls-3" y="-.92" width="1440" height="810"/>
    </g>
    <g class="cls-13">
      <rect class="cls-4" y="-.92" width="1440" height="810"/>
    </g>
    <g class="cls-12">
      <rect class="cls-3" x="246.81" y="416.86" width="279" height="372"/>
    </g>
    <g class="cls-11">
      <rect class="cls-8" x="260.56" y="484.67" width="251.25" height="2.25"/>
    </g>
    <g class="cls-16">
      <rect class="cls-3" x="545.48" y="416.86" width="279" height="372"/>
    </g>
    <g class="cls-14">
      <rect class="cls-8" x="559.22" y="484.67" width="251.25" height="2.25"/>
    </g>
    <g class="cls-15">
      <rect class="cls-3" x="841.58" y="416.86" width="279" height="372"/>
    </g>
    <g class="cls-17">
      <rect class="cls-8" x="855.33" y="484.67" width="251.25" height="2.25"/>
    </g>
    <g class="cls-22">
      <rect class="cls-3" x="1140" y="416.86" width="279" height="372"/>
    </g>
    <g class="cls-26">
      <rect class="cls-6" x="246.81" y="22.69" width="279" height="372"/>
    </g>
    <g class="cls-21">
      <rect class="cls-3" x="545.48" y="22.69" width="279" height="372"/>
    </g>
    <g class="cls-24">
      <rect class="cls-8" x="559.22" y="90.5" width="251.25" height="2.25"/>
    </g>
    <g class="cls-23">
      <rect class="cls-3" x="841.58" y="22.69" width="279" height="372"/>
    </g>
    <g class="cls-27">
      <rect class="cls-8" x="855.33" y="90.5" width="251.25" height="2.25"/>
    </g>
    <g class="cls-25">
      <rect class="cls-3" x="1140" y="21.73" width="279" height="372"/>
    </g>
    <g class="cls-18">
      <rect class="cls-8" x="1153.75" y="89.54" width="251.25" height="2.25"/>
    </g>
    <g class="cls-20">
      <rect class="cls-8" x="260.56" y="90.5" width="251.25" height="2.25"/>
    </g>
    <g class="cls-19">
      <g>
        <path class="cls-7" d="m272.09,450.29h9.44v3.05h-5.93v3.46h5.43v3.03h-5.43v6.29h-3.51v-15.84Z"/>
        <path class="cls-7" d="m289.84,460.32h-1.97v5.82h-3.51v-15.84h6.36c3.08,0,5.14,1.76,5.14,4.91,0,2.2-1,3.87-2.76,4.66l3.21,6.27h-3.78l-2.69-5.82Zm-1.97-3.1h2.53c1.2,0,1.88-.81,1.88-2.01,0-1.13-.68-1.86-1.88-1.86h-2.53v3.87Z"/>
        <path class="cls-7" d="m298.12,450.29h3.51v15.84h-3.51v-15.84Z"/>
        <path class="cls-7" d="m316.59,458.17c0,4.96-2.6,7.97-6.83,7.97h-5.18v-15.84h5.18c4.23,0,6.83,2.94,6.83,7.87Zm-3.62,0c0-3.58-1.38-4.82-3.21-4.82h-1.67v9.73h1.67c1.83,0,3.21-1.33,3.21-4.91Z"/>
        <path class="cls-7" d="m327,462.65h-4.84l-.79,3.48h-3.64l4.12-15.84h5.48l4.16,15.84h-3.67l-.81-3.48Zm-.7-3.08l-1.38-6h-.68l-1.38,6.02,3.44-.02Z"/>
        <path class="cls-7" d="m336.6,460.7l-4.55-10.41h3.53l2.69,6.72h.11l2.72-6.72h3.6l-4.59,10.41v5.43h-3.51v-5.43Z"/>
      </g>
      <g>
        <path class="cls-7" d="m581.08,461.65c0,2.76-1.95,4.66-6.11,4.66-1.81,0-3.91-.38-5.11-.84l.34-3.12c.97.34,3.35.79,4.93.79s2.38-.47,2.38-1.49c0-.81-.52-1.13-1.45-1.54l-2.9-1.24c-1.61-.68-2.94-1.97-2.94-4.25,0-2.81,2.17-4.5,5.73-4.5,1.77,0,3.26.32,4.5.66l-.32,3.12c-1.09-.29-2.44-.63-4.3-.63-1.36,0-2.1.52-2.1,1.33,0,.77.52,1.18,1.31,1.49l2.04.84c2.9,1.2,4.01,2.33,4.01,4.73Z"/>
        <path class="cls-7" d="m591.15,462.65h-4.84l-.79,3.48h-3.64l4.12-15.84h5.48l4.16,15.84h-3.67l-.81-3.48Zm-.7-3.08l-1.38-6h-.68l-1.38,6.02,3.44-.02Z"/>
        <path class="cls-7" d="m600.77,453.35h-4.46v-3.05h12.4v3.05h-4.44v12.79h-3.51v-12.79Z"/>
        <path class="cls-7" d="m610.64,460.93v-10.63h3.51v10.43c0,1.56.79,2.42,2.44,2.42s2.44-.86,2.44-2.42v-10.43h3.51v10.63c0,3.42-2.53,5.39-5.95,5.39s-5.95-1.97-5.95-5.39Z"/>
        <path class="cls-7" d="m630.96,460.32h-1.97v5.82h-3.51v-15.84h6.36c3.08,0,5.14,1.76,5.14,4.91,0,2.2-1,3.87-2.76,4.66l3.21,6.27h-3.78l-2.69-5.82Zm-1.97-3.1h2.53c1.2,0,1.88-.81,1.88-2.01,0-1.13-.68-1.86-1.88-1.86h-2.53v3.87Z"/>
        <path class="cls-7" d="m651.27,458.17c0,4.96-2.6,7.97-6.83,7.97h-5.18v-15.84h5.18c4.23,0,6.83,2.94,6.83,7.87Zm-3.62,0c0-3.58-1.38-4.82-3.21-4.82h-1.67v9.73h1.67c1.83,0,3.21-1.33,3.21-4.91Z"/>
        <path class="cls-7" d="m661.68,462.65h-4.84l-.79,3.48h-3.64l4.12-15.84h5.48l4.16,15.84h-3.67l-.81-3.48Zm-.7-3.08l-1.38-6h-.68l-1.38,6.02,3.44-.02Z"/>
        <path class="cls-7" d="m671.28,460.7l-4.55-10.41h3.53l2.69,6.72h.11l2.72-6.72h3.6l-4.59,10.41v5.43h-3.51v-5.43Z"/>
      </g>
      <g>
        <path class="cls-7" d="m877.18,461.65c0,2.76-1.95,4.66-6.11,4.66-1.81,0-3.92-.38-5.11-.84l.34-3.12c.97.34,3.35.79,4.93.79s2.38-.47,2.38-1.49c0-.81-.52-1.13-1.45-1.54l-2.9-1.24c-1.61-.68-2.94-1.97-2.94-4.25,0-2.81,2.17-4.5,5.73-4.5,1.76,0,3.26.32,4.5.66l-.32,3.12c-1.09-.29-2.44-.63-4.3-.63-1.36,0-2.1.52-2.1,1.33,0,.77.52,1.18,1.31,1.49l2.04.84c2.9,1.2,4.01,2.33,4.01,4.73Z"/>
        <path class="cls-7" d="m879.22,460.93v-10.63h3.51v10.43c0,1.56.79,2.42,2.44,2.42s2.44-.86,2.44-2.42v-10.43h3.51v10.63c0,3.42-2.54,5.39-5.95,5.39s-5.95-1.97-5.95-5.39Z"/>
        <path class="cls-7" d="m894.07,450.29h3.05l5.68,9.3h.11v-9.3h3.39v15.84h-3.26l-5.48-9.1h-.11v9.1h-3.39v-15.84Z"/>
        <path class="cls-7" d="m921.27,458.17c0,4.96-2.6,7.97-6.83,7.97h-5.18v-15.84h5.18c4.23,0,6.83,2.94,6.83,7.87Zm-3.62,0c0-3.58-1.38-4.82-3.21-4.82h-1.67v9.73h1.67c1.83,0,3.21-1.33,3.21-4.91Z"/>
        <path class="cls-7" d="m931.68,462.65h-4.84l-.79,3.48h-3.64l4.12-15.84h5.48l4.16,15.84h-3.67l-.81-3.48Zm-.7-3.08l-1.38-6h-.68l-1.38,6.02,3.44-.02Z"/>
        <path class="cls-7" d="m941.28,460.7l-4.55-10.41h3.53l2.69,6.72h.11l2.71-6.72h3.6l-4.59,10.41v5.43h-3.51v-5.43Z"/>
      </g>
      <g>
        <path class="cls-7" d="m1165.28,450.29h3.05l5.68,9.3h.11v-9.3h3.39v15.84h-3.26l-5.48-9.1h-.11v9.1h-3.39v-15.84Z"/>
        <path class="cls-7" d="m1193.44,458.19c0,5.43-2.54,8.12-6.77,8.12s-6.77-2.69-6.77-8.12,2.53-8.08,6.77-8.08,6.77,2.69,6.77,8.08Zm-3.62,0c0-3.46-1.09-4.91-3.15-4.91s-3.15,1.45-3.15,4.91,1.09,4.96,3.15,4.96,3.15-1.45,3.15-4.96Z"/>
        <path class="cls-7" d="m1199.25,453.35h-4.46v-3.05h12.4v3.05h-4.44v12.79h-3.51v-12.79Z"/>
        <path class="cls-7" d="m1209.12,450.29h9.44v3.05h-5.93v3.19h5.43v3.03h-5.43v3.55h5.93v3.01h-9.44v-15.84Z"/>
        <path class="cls-7" d="m1231.26,461.65c0,2.76-1.95,4.66-6.11,4.66-1.81,0-3.92-.38-5.11-.84l.34-3.12c.97.34,3.35.79,4.93.79s2.38-.47,2.38-1.49c0-.81-.52-1.13-1.45-1.54l-2.9-1.24c-1.61-.68-2.94-1.97-2.94-4.25,0-2.81,2.17-4.5,5.73-4.5,1.76,0,3.26.32,4.5.66l-.32,3.12c-1.09-.29-2.44-.63-4.3-.63-1.36,0-2.1.52-2.1,1.33,0,.77.52,1.18,1.31,1.49l2.04.84c2.9,1.2,4.01,2.33,4.01,4.73Z"/>
        <path class="cls-7" d="m1232.73,456.06c0-1.09.68-1.83,1.92-1.83s1.88.75,1.88,1.83-.63,1.88-1.88,1.88-1.92-.77-1.92-1.88Zm0,8.37c0-1.09.68-1.83,1.92-1.83s1.88.75,1.88,1.83-.63,1.88-1.88,1.88-1.92-.77-1.92-1.88Z"/>
      </g>
      <g>
        <path class="cls-7" d="m23.47,49.35h14.55l13.86,38.68,13.86-38.68h14.46l1.97,59.9h-12.84l-.94-32.86h-.43l-8.56,25.16h-15.06l-8.64-25.16h-.43l-.94,32.86h-12.84l1.97-59.9Z"/>
        <path class="cls-7" d="m123.68,96.07h-18.31l-2.99,13.18h-13.78l15.57-59.9h20.71l15.75,59.9h-13.86l-3.08-13.18Zm-2.65-11.64l-5.22-22.68h-2.57l-5.22,22.76,13.01-.08Z"/>
        <path class="cls-7" d="m159.97,88.71l-17.2-39.36h13.35l10.18,25.42h.43l10.27-25.42h13.61l-17.37,39.36v20.54h-13.26v-20.54Z"/>
      </g>
      <g>
        <path class="cls-7" d="m22.94,170.88l1.13-.67c.79-.48,1.27-1.06,1.27-2.19v-15.48h3.72v15.84c0,2.02-.91,3.36-2.47,4.1l-2.11,1.01-1.54-2.62Z"/>
        <path class="cls-7" d="m42.86,156.22v8.62c0,2.54-2.09,4.7-5.52,4.7s-5.52-2.16-5.52-4.7v-8.62h3.6v8.33c0,.98.5,1.87,1.92,1.87s1.92-.89,1.92-1.87v-8.33h3.6Z"/>
        <path class="cls-7" d="m44.78,162.79c0-4.42,2.62-6.77,6.1-6.77.55,0,1.15.05,1.75.12v-4.8h3.6v18h-3.17l-.34-1.01c-.58.62-1.68,1.2-3.07,1.2-3.07,0-4.87-2.38-4.87-6.75Zm7.85,2.71v-6.12c-.48-.14-.91-.24-1.39-.24-1.61,0-2.81.74-2.81,3.65,0,2.71.94,3.62,2.02,3.62.86,0,1.56-.34,2.18-.91Z"/>
        <path class="cls-7" d="m58.55,152.59c0-1.13.7-1.92,1.99-1.92s1.97.79,1.97,1.92-.67,1.94-1.97,1.94-1.99-.79-1.99-1.94Zm.19,3.62h3.6v13.13h-3.6v-13.13Z"/>
        <path class="cls-7" d="m66.11,165.7v-6.65h-2.09v-2.83h2.16v-2.88l3.53-.43v3.31h3.26v2.83h-3.26v5.64c0,1.15.29,1.71,1.39,1.71.58,0,1.37-.1,1.8-.22l.6,2.79c-.96.21-1.9.46-3.43.46-2.57,0-3.96-1.08-3.96-3.72Z"/>
        <path class="cls-7" d="m75.31,151.34h3.6v5.98c.89-.67,2.33-1.3,3.91-1.3,2.52,0,3.62,1.42,3.62,3.67v9.65h-3.6v-8.64c0-.86-.41-1.46-1.42-1.46-.86,0-1.8.41-2.52.84v9.26h-3.6v-18Z"/>
        <path class="cls-7" d="m106.19,164.59c0,2.93-2.06,4.94-6.48,4.94-1.92,0-4.15-.41-5.42-.89l.36-3.31c1.03.36,3.55.84,5.23.84s2.52-.5,2.52-1.58c0-.86-.55-1.2-1.54-1.63l-3.07-1.32c-1.7-.72-3.12-2.09-3.12-4.51,0-2.98,2.3-4.78,6.07-4.78,1.87,0,3.46.34,4.78.7l-.34,3.31c-1.15-.31-2.59-.67-4.56-.67-1.44,0-2.23.55-2.23,1.42,0,.82.55,1.25,1.39,1.58l2.16.89c3.07,1.27,4.25,2.47,4.25,5.02Z"/>
        <path class="cls-7" d="m107.51,162.77c0-4.54,2.28-6.74,5.9-6.74s5.95,2.21,5.9,6.74c0,4.56-2.28,6.77-5.9,6.77s-5.9-2.21-5.9-6.77Zm8.16,0c0-2.64-.82-3.62-2.26-3.62s-2.26.98-2.26,3.62.82,3.65,2.26,3.65,2.26-.98,2.26-3.65Z"/>
        <path class="cls-7" d="m139.41,159.7v9.65h-3.6v-8.64c0-.86-.41-1.46-1.42-1.46-.79,0-1.63.36-2.23.74v9.36h-3.6v-8.64c0-.86-.29-1.46-1.3-1.46-.89,0-1.68.43-2.3.89v9.22h-3.6v-13.13h3.22l.22,1.15c.89-.7,2.23-1.34,3.86-1.34,1.46,0,2.42.48,2.95,1.34,1.01-.7,2.47-1.34,4.18-1.34,2.52,0,3.62,1.42,3.62,3.67Z"/>
        <path class="cls-7" d="m159.98,159.7v9.65h-3.6v-8.64c0-.86-.41-1.46-1.42-1.46-.79,0-1.63.36-2.23.74v9.36h-3.6v-8.64c0-.86-.29-1.46-1.3-1.46-.89,0-1.68.43-2.3.89v9.22h-3.6v-13.13h3.22l.22,1.15c.89-.7,2.23-1.34,3.86-1.34,1.46,0,2.42.48,2.95,1.34,1.01-.7,2.47-1.34,4.18-1.34,2.52,0,3.62,1.42,3.62,3.67Z"/>
        <path class="cls-7" d="m161.9,162.91c0-4.03,1.94-6.89,5.93-6.89,4.34,0,5.64,2.76,5.64,6.89v1.2h-7.85c.12,1.9,1.2,2.45,2.81,2.45,1.44,0,2.78-.26,3.74-.55l.55,2.83c-1.03.36-2.59.7-4.56.7-4.1,0-6.26-2.33-6.26-6.62Zm8.06-1.44c-.1-1.87-.74-2.57-2.11-2.57-1.18,0-2.09.65-2.23,2.57h4.34Z"/>
        <path class="cls-7" d="m175.51,156.22h3.22l.22,1.61c.82-.77,2.09-1.8,3.7-1.8.36,0,.58.02,1.01.07l-.34,3.46c-.34-.05-.67-.1-1.01-.1-1.37,0-2.62.86-3.19,1.46v8.42h-3.6v-13.13Z"/>
        <path class="cls-7" d="m195.16,165.48c0,2.71-1.99,4.06-5.45,4.06-2.02,0-3.67-.31-4.87-.74l.58-3.1c1.01.34,2.71.72,4.39.72,1.15,0,1.75-.36,1.75-.94,0-.65-.53-.91-1.25-1.13l-2.02-.58c-1.78-.5-3-1.68-3-3.86s1.7-3.89,5.33-3.89c1.44,0,2.64.22,3.98.62l-.58,3.03c-.96-.31-2.21-.62-3.41-.62s-1.68.38-1.68.89c0,.46.38.62.89.79l1.68.53c2.62.82,3.65,1.94,3.65,4.22Z"/>
      </g>
      <g>
        <path class="cls-7" d="m22.89,199.79l.66-.3c.58-.27.8-.53.8-1.26v-9.46h1.04v9.27c0,1.47-.42,2-1.47,2.35l-.7.26-.32-.85Zm1.18-13.51c0-.51.29-.82.78-.82s.78.3.78.82-.29.83-.78.83-.78-.3-.78-.83Z"/>
        <path class="cls-7" d="m34.21,188.76v5.65c0,1.52-.83,2.99-3.11,2.99s-3.12-1.47-3.12-2.99v-5.65h1.04v5.51c0,1.39.64,2.19,2.08,2.19s2.06-.8,2.06-2.19v-5.51h1.04Z"/>
        <path class="cls-7" d="m36.38,193.02c0-2.67,1.42-4.39,3.84-4.39.61,0,1.12.06,1.6.18v-3.54h1.04v12h-.8l-.21-.72c-.58.42-1.46.85-2.56.85-2.1,0-2.91-1.71-2.91-4.39Zm5.44,2.61v-5.79c-.54-.18-1.07-.24-1.54-.24-1.82,0-2.83,1.22-2.83,3.43s.46,3.43,2.14,3.43c.91,0,1.76-.46,2.23-.82Z"/>
        <path class="cls-7" d="m45.31,186.28c0-.51.29-.82.8-.82.48,0,.77.3.77.82s-.29.83-.77.83c-.51,0-.8-.3-.8-.83Zm.27,2.48h1.04v8.52h-1.04v-8.52Z"/>
        <path class="cls-7" d="m50.09,195.07v-5.41h-1.47v-.9h1.49v-1.94l1.02-.14v2.08h2.42v.9h-2.42v5.54c0,.78.19,1.17,1.06,1.17.45,0,1.17-.13,1.47-.22l.21.88c-.48.14-1.28.3-1.83.3-1.54,0-1.95-.7-1.95-2.26Z"/>
        <path class="cls-7" d="m55.85,185.27h1.04v4.35c.66-.46,1.78-.99,2.98-.99,1.75,0,2.24.98,2.24,2.51v6.13h-1.04v-5.79c0-1.26-.32-1.89-1.55-1.89-.94,0-2.06.54-2.62.96v6.72h-1.04v-12Z"/>
        <path class="cls-7" d="m64.49,196.51c0-.54.27-.86.85-.86s.85.32.85.86c0,.58-.27.9-.85.9s-.85-.32-.85-.9Z"/>
        <path class="cls-7" d="m73.66,194.92c0,1.55-1.1,2.48-2.88,2.48-1.2,0-1.95-.19-2.72-.5l.19-.93c.66.24,1.52.48,2.53.48,1.2,0,1.82-.62,1.82-1.54s-.59-1.3-1.41-1.57l-1.06-.34c-1.06-.34-1.89-.91-1.89-2.21,0-1.39,1.12-2.18,2.72-2.18.96,0,1.65.14,2.4.42l-.18.93c-.66-.21-1.38-.42-2.23-.42-1.04,0-1.65.46-1.65,1.25,0,.74.46,1.06,1.17,1.28l1.04.32c1.25.38,2.13.99,2.13,2.51Z"/>
        <path class="cls-7" d="m75.34,193c0-2.66.99-4.37,3.36-4.37s3.35,1.71,3.35,4.37-.98,4.4-3.35,4.4-3.36-1.71-3.36-4.4Zm5.63,0c0-2.11-.56-3.46-2.27-3.46s-2.29,1.34-2.29,3.46.58,3.49,2.29,3.49,2.27-1.34,2.27-3.49Z"/>
        <path class="cls-7" d="m95.07,191.4v5.88h-1.04v-5.79c0-1.25-.34-1.89-1.55-1.89-.91,0-1.87.53-2.32.9.06.29.08.61.08.93v5.86h-1.04v-5.79c0-1.25-.32-1.89-1.52-1.89-.98,0-1.86.54-2.29.91v6.77h-1.04v-8.52h.83l.11.88c.62-.46,1.5-1.01,2.72-1.01.99,0,1.57.42,1.89,1.04.64-.48,1.68-1.04,2.93-1.04,1.71,0,2.24,1.25,2.24,2.77Z"/>
        <path class="cls-7" d="m108.42,191.4v5.88h-1.04v-5.79c0-1.25-.34-1.89-1.55-1.89-.91,0-1.87.53-2.32.9.06.29.08.61.08.93v5.86h-1.04v-5.79c0-1.25-.32-1.89-1.52-1.89-.98,0-1.86.54-2.29.91v6.77h-1.04v-8.52h.83l.11.88c.62-.46,1.5-1.01,2.72-1.01.99,0,1.57.42,1.89,1.04.64-.48,1.68-1.04,2.93-1.04,1.71,0,2.24,1.25,2.24,2.77Z"/>
        <path class="cls-7" d="m110.6,193c0-2.67.91-4.37,3.3-4.37,2.51,0,3.23,1.7,3.23,4.35v.4h-5.44c.08,1.92.72,3.06,2.37,3.06.96,0,1.82-.21,2.43-.4l.19.91c-.7.24-1.55.45-2.62.45-2.37,0-3.44-1.63-3.46-4.4Zm5.47-.53c-.05-1.83-.48-2.93-2.18-2.93-1.58,0-2.13,1.12-2.21,2.93h4.39Z"/>
        <path class="cls-7" d="m119.42,188.76h.83l.11,1.07c.51-.51,1.39-1.2,2.43-1.2.24,0,.4.02.66.05l-.18,1.09c-.22-.03-.43-.06-.66-.06-.93,0-1.79.69-2.16,1.1v6.47h-1.04v-8.52Z"/>
        <path class="cls-7" d="m130.17,194.92c0,1.55-1.1,2.48-2.88,2.48-1.2,0-1.95-.19-2.72-.5l.19-.93c.66.24,1.52.48,2.53.48,1.2,0,1.82-.62,1.82-1.54s-.59-1.3-1.41-1.57l-1.06-.34c-1.06-.34-1.89-.91-1.89-2.21,0-1.39,1.12-2.18,2.72-2.18.96,0,1.65.14,2.4.42l-.18.93c-.66-.21-1.38-.42-2.23-.42-1.04,0-1.65.46-1.65,1.25,0,.74.46,1.06,1.17,1.28l1.04.32c1.25.38,2.13.99,2.13,2.51Z"/>
        <path class="cls-7" d="m131.96,192.6c0-3.23,1.78-5.7,5.36-5.7,3.35,0,5.28,1.94,5.28,5.36,0,2.1-.78,3.25-2.29,3.25-.75,0-1.28-.24-1.6-.72-.42.46-1.04.72-1.68.72-1.22,0-2.16-.78-2.16-2.9s.94-2.88,2.16-2.88c.56,0,1.06.24,1.38.54l.11-.46h.78v3.63c0,.8.34,1.19.99,1.19.85,0,1.31-.67,1.31-2.37,0-2.72-1.36-4.42-4.29-4.42s-4.35,1.98-4.35,4.75c0,3.33,1.55,4.87,4.74,4.87,1.25,0,2.43-.18,3.36-.42l.18.87c-.99.26-2.06.48-3.54.48-3.76,0-5.75-1.92-5.75-5.79Zm6.42,1.49v-2.98c-.27-.24-.69-.5-1.2-.5-.83,0-1.38.48-1.38,2s.54,2.02,1.38,2.02c.5,0,.91-.26,1.2-.54Z"/>
        <path class="cls-7" d="m144.55,193c0-2.66.99-4.37,3.36-4.37s3.35,1.71,3.35,4.37-.98,4.4-3.35,4.4-3.36-1.71-3.36-4.4Zm5.63,0c0-2.11-.56-3.46-2.27-3.46s-2.29,1.34-2.29,3.46.58,3.49,2.29,3.49,2.27-1.34,2.27-3.49Z"/>
        <path class="cls-7" d="m154.31,195.07v-5.41h-1.47v-.9h1.49v-1.94l1.02-.14v2.08h2.42v.9h-2.42v5.54c0,.78.19,1.17,1.06,1.17.45,0,1.17-.13,1.47-.22l.21.88c-.48.14-1.28.3-1.82.3-1.54,0-1.95-.7-1.95-2.26Z"/>
        <path class="cls-7" d="m160.83,195.07v-5.41h-1.47v-.9h1.49v-1.94l1.02-.14v2.08h2.42v.9h-2.42v5.54c0,.78.19,1.17,1.06,1.17.45,0,1.17-.13,1.47-.22l.21.88c-.48.14-1.28.3-1.83.3-1.54,0-1.95-.7-1.95-2.26Z"/>
        <path class="cls-7" d="m166.19,195.02v-.3c0-1.46,1.04-2.26,2.62-2.42l2.42-.24v-.74c0-1.04-.43-1.73-2-1.73-.85,0-1.81.16-2.48.34l-.18-.91c.82-.21,1.71-.38,2.66-.38,2.29,0,3.04.94,3.04,2.85v5.79h-.83l-.13-.8c-.54.38-1.47.93-2.64.93-1.62,0-2.48-1.06-2.48-2.38Zm5.06.58v-2.62l-2.19.21c-1.15.11-1.82.58-1.82,1.55v.21c0,.9.59,1.55,1.6,1.55.94,0,1.97-.56,2.42-.9Z"/>
        <path class="cls-7" d="m181.76,197.85c0,1.63-1.58,2.79-4.37,2.79-1.86,0-3.25-.82-3.25-2.22,0-.48.22-.93.59-1.31l.5-.51c-.26-.19-.38-.48-.38-.85,0-.43.29-.8.46-1.01l.48-.56c-.64-.5-1.02-1.31-1.02-2.48,0-2.13,1.3-3.06,2.96-3.06.54,0,1.04.1,1.47.3l2.43-.18v.96h-1.49c.34.48.53,1.14.53,1.97,0,2.13-1.26,3.07-2.95,3.07-.45,0-.86-.06-1.23-.21l-.37.48c-.13.16-.21.32-.21.48,0,.29.16.53.72.53h2.96c1.46,0,2.16.86,2.16,1.81Zm-1.04.11c0-.53-.3-1.02-1.36-1.02h-2.83c-.18,0-.35-.02-.51-.03l-.42.43c-.29.3-.43.66-.43.98,0,.78.74,1.39,2.37,1.39,2.02,0,3.19-.82,3.19-1.75Zm-4.93-6.27c0,1.49.69,2.21,1.94,2.21s1.94-.72,1.94-2.21-.67-2.19-1.94-2.19-1.94.74-1.94,2.19Z"/>
        <path class="cls-7" d="m183.35,193c0-2.66.99-4.37,3.36-4.37s3.35,1.71,3.35,4.37-.98,4.4-3.35,4.4-3.36-1.71-3.36-4.4Zm5.63,0c0-2.11-.56-3.46-2.27-3.46s-2.29,1.34-2.29,3.46.58,3.49,2.29,3.49,2.27-1.34,2.27-3.49Z"/>
        <path class="cls-7" d="m192.36,188.76h.83l.11.88c.67-.46,1.79-1.01,3.01-1.01,1.73,0,2.23,1.1,2.23,2.64v6h-1.04v-5.79c0-1.26-.3-1.89-1.54-1.89-.96,0-2.08.54-2.56.91v6.77h-1.04v-8.52Z"/>
        <path class="cls-7" d="m200.92,196.51c0-.54.27-.86.85-.86s.85.32.85.86c0,.58-.27.9-.85.9s-.85-.32-.85-.9Z"/>
        <path class="cls-7" d="m210.4,196.99c-.8.29-1.5.42-2.32.42h-.03c-2.38,0-3.38-1.71-3.38-4.4s.99-4.37,3.38-4.37h.02c.8,0,1.46.14,2.24.42l-.18.93c-.67-.21-1.36-.4-2.06-.4h-.02c-1.71,0-2.3,1.31-2.3,3.43s.59,3.46,2.3,3.46h.03c.7,0,1.49-.18,2.14-.4l.18.93Z"/>
        <path class="cls-7" d="m212.18,193c0-2.66.99-4.37,3.36-4.37s3.35,1.71,3.35,4.37-.98,4.4-3.35,4.4-3.36-1.71-3.36-4.4Zm5.63,0c0-2.11-.56-3.46-2.27-3.46s-2.29,1.34-2.29,3.46.58,3.49,2.29,3.49,2.27-1.34,2.27-3.49Z"/>
        <path class="cls-7" d="m231.92,191.4v5.88h-1.04v-5.79c0-1.25-.34-1.89-1.55-1.89-.91,0-1.87.53-2.32.9.06.29.08.61.08.93v5.86h-1.04v-5.79c0-1.25-.32-1.89-1.52-1.89-.98,0-1.86.54-2.29.91v6.77h-1.04v-8.52h.83l.11.88c.62-.46,1.5-1.01,2.72-1.01.99,0,1.57.42,1.89,1.04.64-.48,1.68-1.04,2.93-1.04,1.71,0,2.24,1.25,2.24,2.77Z"/>
      </g>
      <g>
        <path class="cls-7" d="m272.62,56.12h3.85l3.67,10.23,3.67-10.23h3.82l.52,15.84h-3.39l-.25-8.69h-.11l-2.26,6.65h-3.98l-2.29-6.65h-.11l-.25,8.69h-3.39l.52-15.84Z"/>
        <path class="cls-7" d="m304.05,64.02c0,5.43-2.53,8.12-6.77,8.12s-6.77-2.69-6.77-8.12,2.53-8.08,6.77-8.08,6.77,2.69,6.77,8.08Zm-3.62,0c0-3.46-1.09-4.91-3.15-4.91s-3.15,1.45-3.15,4.91,1.09,4.96,3.15,4.96,3.15-1.45,3.15-4.96Z"/>
        <path class="cls-7" d="m306.43,56.12h3.06l5.68,9.3h.11v-9.3h3.39v15.84h-3.26l-5.48-9.1h-.11v9.1h-3.39v-15.84Z"/>
        <path class="cls-7" d="m333.64,64c0,4.96-2.6,7.97-6.83,7.97h-5.18v-15.84h5.18c4.23,0,6.83,2.94,6.83,7.88Zm-3.62,0c0-3.58-1.38-4.82-3.21-4.82h-1.67v9.73h1.67c1.83,0,3.21-1.34,3.21-4.91Z"/>
        <path class="cls-7" d="m344.05,68.48h-4.84l-.79,3.49h-3.64l4.12-15.84h5.48l4.16,15.84h-3.67l-.81-3.49Zm-.7-3.08l-1.38-6h-.68l-1.38,6.02,3.44-.02Z"/>
        <path class="cls-7" d="m353.65,66.54l-4.55-10.41h3.53l2.69,6.72h.11l2.72-6.72h3.6l-4.59,10.41v5.43h-3.51v-5.43Z"/>
        <path class="cls-7" d="m376.42,72.46l-.36,2.99c-4.5-.7-7.24-4.66-7.24-10.75s2.74-10.05,7.24-10.75l.36,2.99c-2.44.72-4.16,2.29-4.16,7.76s1.72,7.04,4.16,7.76Z"/>
        <path class="cls-7" d="m382.69,59.18h-4.46v-3.06h12.4v3.06h-4.44v12.79h-3.51v-12.79Z"/>
        <path class="cls-7" d="m405.52,64.02c0,5.43-2.53,8.12-6.77,8.12s-6.77-2.69-6.77-8.12,2.53-8.08,6.77-8.08,6.77,2.69,6.77,8.08Zm-3.62,0c0-3.46-1.09-4.91-3.15-4.91s-3.15,1.45-3.15,4.91,1.09,4.96,3.15,4.96,3.15-1.45,3.15-4.96Z"/>
        <path class="cls-7" d="m419.92,64c0,4.96-2.6,7.97-6.83,7.97h-5.18v-15.84h5.18c4.23,0,6.83,2.94,6.83,7.88Zm-3.62,0c0-3.58-1.38-4.82-3.21-4.82h-1.67v9.73h1.67c1.83,0,3.21-1.34,3.21-4.91Z"/>
        <path class="cls-7" d="m430.33,68.48h-4.84l-.79,3.49h-3.64l4.12-15.84h5.48l4.16,15.84h-3.67l-.81-3.49Zm-.7-3.08l-1.38-6h-.68l-1.38,6.02,3.44-.02Z"/>
        <path class="cls-7" d="m439.93,66.54l-4.55-10.41h3.53l2.69,6.72h.11l2.72-6.72h3.6l-4.59,10.41v5.43h-3.51v-5.43Z"/>
        <path class="cls-7" d="m457.33,64.7c0,6.09-2.74,10.05-7.24,10.75l-.36-2.99c2.44-.72,4.16-2.29,4.16-7.76s-1.72-7.04-4.16-7.76l.36-2.99c4.5.7,7.24,4.66,7.24,10.75Z"/>
      </g>
      <g>
        <path class="cls-7" d="m574.2,59.18h-4.46v-3.06h12.4v3.06h-4.44v12.79h-3.51v-12.79Z"/>
        <path class="cls-7" d="m584.07,66.76v-10.64h3.51v10.43c0,1.56.79,2.42,2.44,2.42s2.44-.86,2.44-2.42v-10.43h3.51v10.64c0,3.42-2.53,5.39-5.95,5.39s-5.95-1.97-5.95-5.39Z"/>
        <path class="cls-7" d="m598.92,56.12h9.44v3.06h-5.93v3.19h5.43v3.03h-5.43v3.55h5.93v3.01h-9.44v-15.84Z"/>
        <path class="cls-7" d="m621.05,67.49c0,2.76-1.95,4.66-6.11,4.66-1.81,0-3.91-.38-5.11-.84l.34-3.12c.97.34,3.35.79,4.93.79s2.38-.48,2.38-1.49c0-.81-.52-1.13-1.45-1.54l-2.9-1.24c-1.61-.68-2.94-1.97-2.94-4.25,0-2.81,2.17-4.5,5.73-4.5,1.77,0,3.26.32,4.5.66l-.32,3.12c-1.09-.29-2.44-.63-4.3-.63-1.36,0-2.1.52-2.1,1.33,0,.77.52,1.18,1.31,1.49l2.04.84c2.9,1.2,4.01,2.33,4.01,4.73Z"/>
        <path class="cls-7" d="m635.11,64c0,4.96-2.6,7.97-6.83,7.97h-5.18v-15.84h5.18c4.23,0,6.83,2.94,6.83,7.88Zm-3.62,0c0-3.58-1.38-4.82-3.21-4.82h-1.67v9.73h1.67c1.83,0,3.21-1.34,3.21-4.91Z"/>
        <path class="cls-7" d="m645.52,68.48h-4.84l-.79,3.49h-3.64l4.12-15.84h5.48l4.16,15.84h-3.67l-.81-3.49Zm-.7-3.08l-1.38-6h-.68l-1.38,6.02,3.44-.02Z"/>
        <path class="cls-7" d="m655.12,66.54l-4.55-10.41h3.53l2.69,6.72h.11l2.72-6.72h3.6l-4.59,10.41v5.43h-3.51v-5.43Z"/>
      </g>
      <g>
        <path class="cls-7" d="m865.73,56.12h3.64l1.74,12.22h.54l1.99-12.22h4.77l1.97,12.22h.54l1.74-12.22h3.67l-3.01,15.84h-5.48l-1.83-11.9-1.83,11.9h-5.7l-2.76-15.84Z"/>
        <path class="cls-7" d="m888.16,56.12h9.44v3.06h-5.93v3.19h5.43v3.03h-5.43v3.55h5.93v3.01h-9.44v-15.84Z"/>
        <path class="cls-7" d="m911.99,64c0,4.96-2.6,7.97-6.83,7.97h-5.18v-15.84h5.18c4.23,0,6.83,2.94,6.83,7.88Zm-3.62,0c0-3.58-1.38-4.82-3.21-4.82h-1.67v9.73h1.67c1.83,0,3.21-1.34,3.21-4.91Z"/>
        <path class="cls-7" d="m914.37,56.12h3.05l5.68,9.3h.11v-9.3h3.39v15.84h-3.26l-5.48-9.1h-.11v9.1h-3.39v-15.84Z"/>
        <path class="cls-7" d="m929.56,56.12h9.44v3.06h-5.93v3.19h5.43v3.03h-5.43v3.55h5.93v3.01h-9.44v-15.84Z"/>
        <path class="cls-7" d="m951.69,67.49c0,2.76-1.95,4.66-6.11,4.66-1.81,0-3.92-.38-5.11-.84l.34-3.12c.97.34,3.35.79,4.93.79s2.38-.48,2.38-1.49c0-.81-.52-1.13-1.45-1.54l-2.9-1.24c-1.61-.68-2.94-1.97-2.94-4.25,0-2.81,2.17-4.5,5.73-4.5,1.76,0,3.26.32,4.5.66l-.32,3.12c-1.09-.29-2.44-.63-4.3-.63-1.36,0-2.1.52-2.1,1.33,0,.77.52,1.18,1.31,1.49l2.04.84c2.9,1.2,4.01,2.33,4.01,4.73Z"/>
        <path class="cls-7" d="m965.75,64c0,4.96-2.6,7.97-6.83,7.97h-5.18v-15.84h5.18c4.23,0,6.83,2.94,6.83,7.88Zm-3.62,0c0-3.58-1.38-4.82-3.21-4.82h-1.67v9.73h1.67c1.83,0,3.21-1.34,3.21-4.91Z"/>
        <path class="cls-7" d="m976.16,68.48h-4.84l-.79,3.49h-3.64l4.12-15.84h5.48l4.16,15.84h-3.67l-.81-3.49Zm-.7-3.08l-1.38-6h-.68l-1.38,6.02,3.44-.02Z"/>
        <path class="cls-7" d="m985.76,66.54l-4.55-10.41h3.53l2.69,6.72h.11l2.71-6.72h3.6l-4.59,10.41v5.43h-3.51v-5.43Z"/>
      </g>
      <g>
        <path class="cls-7" d="m1168.72,58.22h-4.46v-3.06h12.4v3.06h-4.44v12.79h-3.51v-12.79Z"/>
        <path class="cls-7" d="m1178.59,55.16h3.51v6.04h5.09v-6.04h3.51v15.84h-3.51v-6.63h-5.09v6.63h-3.51v-15.84Z"/>
        <path class="cls-7" d="m1193.64,65.8v-10.64h3.51v10.43c0,1.56.79,2.42,2.44,2.42s2.44-.86,2.44-2.42v-10.43h3.51v10.64c0,3.42-2.54,5.39-5.95,5.39s-5.95-1.97-5.95-5.39Z"/>
        <path class="cls-7" d="m1213.97,65.19h-1.97v5.82h-3.51v-15.84h6.36c3.08,0,5.14,1.77,5.14,4.91,0,2.19-1,3.87-2.76,4.66l3.21,6.27h-3.78l-2.69-5.82Zm-1.97-3.1h2.53c1.2,0,1.88-.81,1.88-2.01,0-1.13-.68-1.86-1.88-1.86h-2.53v3.87Z"/>
        <path class="cls-7" d="m1232.57,66.52c0,2.76-1.95,4.66-6.11,4.66-1.81,0-3.92-.38-5.11-.84l.34-3.12c.97.34,3.35.79,4.93.79s2.38-.48,2.38-1.49c0-.81-.52-1.13-1.45-1.54l-2.9-1.24c-1.61-.68-2.94-1.97-2.94-4.25,0-2.81,2.17-4.5,5.73-4.5,1.76,0,3.26.32,4.5.66l-.32,3.12c-1.09-.29-2.44-.63-4.3-.63-1.36,0-2.1.52-2.1,1.33,0,.77.52,1.18,1.31,1.49l2.04.84c2.9,1.2,4.01,2.33,4.01,4.73Z"/>
        <path class="cls-7" d="m1246.63,63.04c0,4.96-2.6,7.97-6.83,7.97h-5.18v-15.84h5.18c4.23,0,6.83,2.94,6.83,7.88Zm-3.62,0c0-3.58-1.38-4.82-3.21-4.82h-1.67v9.73h1.67c1.83,0,3.21-1.34,3.21-4.91Z"/>
        <path class="cls-7" d="m1257.04,67.52h-4.84l-.79,3.49h-3.64l4.12-15.84h5.48l4.16,15.84h-3.67l-.81-3.49Zm-.7-3.08l-1.38-6h-.68l-1.38,6.02,3.44-.02Z"/>
        <path class="cls-7" d="m1266.64,65.57l-4.55-10.41h3.53l2.69,6.72h.11l2.71-6.72h3.6l-4.59,10.41v5.43h-3.51v-5.43Z"/>
      </g>
    </g>
    <path class="cls-9" d="m89.31,699.82l3,1.5c1.37.7,2.89,1.05,4.45,1.05,5.47,0,9.92-4.46,9.92-9.96v-5c0-8.25-6.68-14.96-14.9-14.96h-14.92c-8.22,0-14.9,6.71-14.9,14.96v5c0,5.49,4.45,9.96,9.92,9.96,1.54,0,3.05-.35,4.45-1.05l3-1.5,1.96-.98-2.77-1.85c-1.05-.7-1.65-1.87-1.65-3.11v-.86c0-3.11,2.49-5.61,5.59-5.61h3.73c3.1,0,5.59,2.5,5.59,5.61v.86c0,1.24-.63,2.41-1.65,3.11l-2.75,1.85,1.96.98Zm-2,11.55l-3-1.52-3,1.5c-2.93,1.47-6.17,2.24-9.43,2.24-.84,0-1.65-.05-2.47-.14v.14c0,8.25,6.68,14.96,14.9,14.96h14.9c4.12,0,7.45,3.34,7.45,7.48s-3.33,7.48-7.45,7.48h37.25v-14.96c0-5.54,3-10.38,7.45-12.95,2.19-1.26,4.73-2.01,7.45-2.01v-3.74c0-6.19,5.01-11.22,11.18-11.22,2.05,0,3.73,1.68,3.73,3.74v22.44c0,2.06,1.68,3.74,3.73,3.74s3.73-1.68,3.73-3.74v-23.3c0-11.27-7.17-21.27-17.83-24.84l-1.98-.65c-1.86-.63-2.93-2.59-2.42-4.51.51-1.92,2.4-3.09,4.33-2.71l4.63.93c20.72,4.16,35.62,22.41,35.62,43.61v.26c0,28.91-23.35,52.35-52.15,52.35h-37.39c-28.73,0-52.01-23.37-52.01-52.21v-9.3c-2.35-3.41-3.73-7.55-3.73-12.01v-5.33c-2.17-.77-3.73-2.83-3.73-5.28,0-3.11,2.49-5.61,5.59-5.61h.65c4.19-8.83,13.15-14.96,23.56-14.96h14.9c10.41,0,19.37,6.12,23.56,14.96h.65c3.1,0,5.59,2.5,5.59,5.61,0,2.45-1.56,4.51-3.73,5.28v5.33c0,.33,0,.65-.02,1.01,2.79-1.45,5.98-2.24,9.34-2.24h1.86c4.12,0,7.45,3.34,7.45,7.48s-3.33,7.48-7.45,7.48h-1.86c-3.1,0-5.59,2.5-5.59,5.61v1.87h13.13c-3.54,3.97-5.68,9.21-5.68,14.96h-7.45c-9.85,0-18.21-6.4-21.19-15.26-1.19.21-2.4.3-3.63.3-3.28,0-6.5-.77-9.43-2.24Zm-17.9-27.7c.99,0,1.94.39,2.63,1.1.7.7,1.09,1.65,1.09,2.64s-.39,1.94-1.09,2.64c-.7.7-1.65,1.1-2.63,1.1s-1.94-.39-2.63-1.1c-.7-.7-1.09-1.65-1.09-2.64s.39-1.94,1.09-2.64c.7-.7,1.65-1.1,2.63-1.1Zm26.08,3.74c0-.99.39-1.94,1.09-2.64.7-.7,1.65-1.1,2.63-1.1s1.94.39,2.63,1.1c.7.7,1.09,1.65,1.09,2.64s-.39,1.94-1.09,2.64c-.7.7-1.65,1.1-2.63,1.1s-1.94-.39-2.63-1.1c-.7-.7-1.09-1.65-1.09-2.64Z"/>
    <g>
      <path d="m1166.23,123.01h1.32l7.85,13.46h.12v-13.46h1.56v16.8h-1.51l-7.66-13.3h-.12v13.3h-1.56v-16.8Z"/>
      <path d="m1180.97,133.4c0-4.01,1.37-6.55,4.94-6.55,3.77,0,4.85,2.54,4.85,6.53v.6h-8.16c.12,2.88,1.08,4.58,3.55,4.58,1.44,0,2.74-.31,3.65-.6l.29,1.37c-1.06.36-2.33.67-3.94.67-3.55,0-5.16-2.45-5.18-6.6Zm8.21-.79c-.07-2.74-.72-4.39-3.26-4.39-2.38,0-3.19,1.68-3.31,4.39h6.58Z"/>
      <path d="m1192.87,127.04h1.66l2.69,10.94h.1l3.1-10.94h2.04l3.12,10.94h.1l2.66-10.94h1.68l-3.34,12.77h-2.09l-3.1-10.92h-.1l-3.12,10.92h-2.06l-3.34-12.77Z"/>
      <path d="m1220.16,128.38h-2.21v-1.34h2.21v-1.7c0-2.54,1.34-3.67,3.5-3.67.79,0,1.54.1,2.09.22l-.24,1.37c-.46-.07-1.13-.17-1.68-.17-1.61,0-2.11.79-2.11,2.14v1.82h3.43v1.34h-3.43v11.42h-1.56v-11.42Z"/>
      <path d="m1228.08,127.04h1.25l.17,1.61c.77-.77,2.09-1.8,3.65-1.8.36,0,.6.02.98.07l-.26,1.63c-.34-.05-.65-.1-.98-.1-1.39,0-2.69,1.03-3.24,1.66v9.7h-1.56v-12.77Z"/>
      <path d="m1245.89,127.04v8.47c0,2.28-1.25,4.49-4.66,4.49s-4.68-2.21-4.68-4.49v-8.47h1.56v8.26c0,2.09.96,3.29,3.12,3.29s3.1-1.2,3.1-3.29v-8.26h1.56Z"/>
      <path d="m1249.51,123.32c0-.77.43-1.22,1.2-1.22.72,0,1.15.46,1.15,1.22s-.43,1.25-1.15,1.25c-.77,0-1.2-.46-1.2-1.25Zm.41,3.72h1.56v12.77h-1.56v-12.77Z"/>
      <path d="m1256.69,136.5v-8.11h-2.21v-1.34h2.23v-2.9l1.54-.22v3.12h3.62v1.34h-3.62v8.3c0,1.18.29,1.75,1.58,1.75.67,0,1.75-.19,2.21-.34l.31,1.32c-.72.22-1.92.46-2.74.46-2.3,0-2.93-1.06-2.93-3.38Z"/>
      <path d="m1279.56,139.38c-1.2.43-2.26.62-3.48.62h-.05c-3.58,0-5.06-2.57-5.06-6.6s1.49-6.55,5.06-6.55h.02c1.2,0,2.18.22,3.36.62l-.26,1.39c-1.01-.31-2.04-.6-3.1-.6h-.02c-2.57,0-3.46,1.97-3.46,5.14s.89,5.18,3.46,5.18h.05c1.06,0,2.23-.26,3.22-.6l.26,1.39Z"/>
      <path d="m1282.01,133.4c0-3.98,1.49-6.55,5.04-6.55s5.02,2.57,5.02,6.55-1.46,6.6-5.02,6.6-5.04-2.57-5.04-6.6Zm8.45,0c0-3.17-.84-5.18-3.41-5.18s-3.43,2.02-3.43,5.18.86,5.23,3.43,5.23,3.41-2.02,3.41-5.23Z"/>
      <path d="m1311.6,131v8.81h-1.56v-8.69c0-1.87-.5-2.83-2.33-2.83-1.37,0-2.81.79-3.48,1.34.1.43.12.91.12,1.39v8.78h-1.56v-8.69c0-1.87-.48-2.83-2.28-2.83-1.46,0-2.78.82-3.43,1.37v10.15h-1.56v-12.77h1.25l.17,1.32c.94-.7,2.26-1.51,4.08-1.51,1.49,0,2.35.62,2.83,1.56.96-.72,2.52-1.56,4.39-1.56,2.57,0,3.36,1.87,3.36,4.15Z"/>
      <path d="m1315.25,123.32c0-.77.43-1.22,1.2-1.22.72,0,1.15.46,1.15,1.22s-.43,1.25-1.15,1.25c-.77,0-1.2-.46-1.2-1.25Zm.41,3.72h1.56v12.77h-1.56v-12.77Z"/>
      <path d="m1321.3,127.04h1.25l.17,1.32c1.01-.7,2.69-1.51,4.51-1.51,2.59,0,3.34,1.66,3.34,3.96v9h-1.56v-8.69c0-1.9-.46-2.83-2.3-2.83-1.44,0-3.12.82-3.84,1.37v10.15h-1.56v-12.77Z"/>
      <path d="m1344.77,140.67c0,2.45-2.38,4.18-6.55,4.18-2.78,0-4.87-1.22-4.87-3.34,0-.72.34-1.39.89-1.97l.74-.77c-.38-.29-.58-.72-.58-1.27,0-.65.43-1.2.7-1.51l.72-.84c-.96-.74-1.54-1.97-1.54-3.72,0-3.19,1.94-4.58,4.44-4.58.82,0,1.56.14,2.21.46l3.65-.26v1.44h-2.23c.5.72.79,1.7.79,2.95,0,3.19-1.9,4.61-4.42,4.61-.67,0-1.3-.1-1.85-.31l-.55.72c-.19.24-.31.48-.31.72,0,.43.24.79,1.08.79h4.44c2.18,0,3.24,1.3,3.24,2.71Zm-1.56.17c0-.79-.46-1.54-2.04-1.54h-4.25c-.26,0-.53-.02-.77-.05l-.62.65c-.43.46-.65.98-.65,1.46,0,1.18,1.1,2.09,3.55,2.09,3.02,0,4.78-1.22,4.78-2.62Zm-7.39-9.41c0,2.23,1.03,3.31,2.9,3.31s2.9-1.08,2.9-3.31-1.01-3.29-2.9-3.29-2.9,1.1-2.9,3.29Z"/>
      <path d="m1347.34,138.66c0-.82.38-1.3,1.27-1.3s1.25.48,1.25,1.3c0,.86-.38,1.34-1.25,1.34s-1.27-.48-1.27-1.34Zm.46-11.42v-4.22h1.61v4.22l-.34,7.27h-.94l-.34-7.27Z"/>
    </g>
    <g>
      <path d="m572.56,518.99h1.73l3.05,15.05h.58l3.24-15.05h2.33l3.24,15.05h.58l3.05-15.05h1.75l-3.5,16.8h-3.1l-3.19-14.93-3.17,14.93h-3.1l-3.48-16.8Z"/>
      <path d="m594.09,529.39c0-4.01,1.37-6.55,4.94-6.55,3.77,0,4.85,2.54,4.85,6.53v.6h-8.16c.12,2.88,1.08,4.58,3.55,4.58,1.44,0,2.74-.31,3.65-.6l.29,1.37c-1.06.36-2.33.67-3.94.67-3.55,0-5.16-2.45-5.18-6.6Zm8.21-.79c-.07-2.74-.72-4.39-3.26-4.39-2.38,0-3.19,1.68-3.31,4.39h6.58Z"/>
      <path d="m606.67,529.39c0-4.01,1.37-6.55,4.94-6.55,3.77,0,4.85,2.54,4.85,6.53v.6h-8.16c.12,2.88,1.08,4.58,3.55,4.58,1.44,0,2.74-.31,3.65-.6l.29,1.37c-1.06.36-2.33.67-3.94.67-3.55,0-5.16-2.45-5.18-6.6Zm8.21-.79c-.07-2.74-.72-4.39-3.26-4.39-2.38,0-3.19,1.68-3.31,4.39h6.58Z"/>
      <path d="m619.89,517.79h1.56v10.39h.77l4.73-5.16h1.85l-5.26,5.83,5.35,6.94h-1.92l-4.75-6.19h-.77v6.19h-1.56v-18Z"/>
      <path d="m630.21,529.39c0-4.01,1.37-6.55,4.94-6.55,3.77,0,4.85,2.54,4.85,6.53v.6h-8.16c.12,2.88,1.08,4.58,3.55,4.58,1.44,0,2.74-.31,3.65-.6l.29,1.37c-1.06.36-2.33.67-3.94.67-3.55,0-5.16-2.45-5.18-6.6Zm8.21-.79c-.07-2.74-.72-4.39-3.26-4.39-2.38,0-3.19,1.68-3.31,4.39h6.58Z"/>
      <path d="m643.43,523.03h1.25l.17,1.32c1.01-.7,2.69-1.51,4.51-1.51,2.59,0,3.34,1.66,3.34,3.96v9h-1.56v-8.69c0-1.9-.46-2.83-2.3-2.83-1.44,0-3.12.82-3.84,1.37v10.15h-1.56v-12.77Z"/>
      <path d="m655.98,529.41c0-4.01,2.14-6.58,5.76-6.58.91,0,1.68.1,2.4.26v-5.3h1.56v18h-1.2l-.31-1.08c-.86.62-2.18,1.27-3.84,1.27-3.14,0-4.37-2.57-4.37-6.58Zm8.16,3.91v-8.69c-.82-.26-1.61-.36-2.3-.36-2.74,0-4.25,1.82-4.25,5.14s.7,5.14,3.22,5.14c1.37,0,2.64-.7,3.34-1.22Z"/>
    </g>
    <g>
      <path d="m869.36,519.16h1.73l3.05,15.05h.58l3.24-15.05h2.33l3.24,15.05h.58l3.05-15.05h1.75l-3.5,16.8h-3.1l-3.19-14.93-3.17,14.93h-3.1l-3.48-16.8Z"/>
      <path d="m890.89,529.55c0-4.01,1.37-6.55,4.94-6.55,3.77,0,4.85,2.54,4.85,6.53v.6h-8.16c.12,2.88,1.08,4.58,3.55,4.58,1.44,0,2.74-.31,3.65-.6l.29,1.37c-1.06.36-2.33.67-3.94.67-3.55,0-5.16-2.45-5.18-6.6Zm8.21-.79c-.07-2.74-.72-4.39-3.26-4.39-2.38,0-3.19,1.68-3.31,4.39h6.58Z"/>
      <path d="m903.46,529.55c0-4.01,1.37-6.55,4.94-6.55,3.77,0,4.85,2.54,4.85,6.53v.6h-8.16c.12,2.88,1.08,4.58,3.55,4.58,1.44,0,2.74-.31,3.65-.6l.29,1.37c-1.06.36-2.33.67-3.94.67-3.55,0-5.16-2.45-5.18-6.6Zm8.21-.79c-.07-2.74-.72-4.39-3.26-4.39-2.38,0-3.19,1.68-3.31,4.39h6.58Z"/>
      <path d="m916.69,517.96h1.56v10.39h.77l4.73-5.16h1.85l-5.26,5.83,5.35,6.94h-1.92l-4.75-6.19h-.77v6.19h-1.56v-18Z"/>
      <path d="m927.01,529.55c0-4.01,1.37-6.55,4.94-6.55,3.77,0,4.85,2.54,4.85,6.53v.6h-8.16c.12,2.88,1.08,4.58,3.55,4.58,1.44,0,2.74-.31,3.65-.6l.29,1.37c-1.06.36-2.33.67-3.94.67-3.55,0-5.16-2.45-5.18-6.6Zm8.21-.79c-.07-2.74-.72-4.39-3.26-4.39-2.38,0-3.19,1.68-3.31,4.39h6.58Z"/>
      <path d="m940.23,523.19h1.25l.17,1.32c1.01-.7,2.69-1.51,4.51-1.51,2.59,0,3.34,1.66,3.34,3.96v9h-1.56v-8.69c0-1.9-.46-2.83-2.3-2.83-1.44,0-3.12.82-3.84,1.37v10.15h-1.56v-12.77Z"/>
      <path d="m952.78,529.58c0-4.01,2.14-6.58,5.76-6.58.91,0,1.68.1,2.4.26v-5.3h1.56v18h-1.2l-.31-1.08c-.86.62-2.18,1.27-3.84,1.27-3.14,0-4.37-2.57-4.37-6.58Zm8.16,3.91v-8.69c-.82-.26-1.61-.36-2.3-.36-2.74,0-4.25,1.82-4.25,5.14s.7,5.14,3.22,5.14c1.37,0,2.64-.7,3.34-1.22Z"/>
    </g>
  </g>
  <g id="Layer_2" data-name="Layer 2">
    <g>
      <path d="m877.35,134.18c0,2.88-1.9,4.68-5.64,4.68-1.8,0-3.31-.41-4.54-.86l.29-1.56c1.03.38,2.76.84,4.42.84,2.64,0,3.79-1.2,3.79-3.1,0-1.58-1.08-2.4-2.52-3l-2.66-1.08c-1.63-.67-3-1.82-3-4.1,0-2.93,2.09-4.32,5.11-4.32,1.49,0,2.86.31,4.03.67l-.29,1.51c-1.01-.31-2.4-.65-3.86-.65-2.23,0-3.36,1.01-3.36,2.79,0,1.27.77,2.06,2.09,2.64l2.69,1.1c1.97.82,3.46,2.02,3.46,4.44Z"/>
      <path d="m880.83,120.66h1.56v6.53c.98-.7,2.67-1.49,4.46-1.49,2.62,0,3.36,1.46,3.36,3.77v9.19h-1.56v-8.69c0-1.9-.48-2.83-2.33-2.83-1.42,0-3.1.82-3.94,1.44v10.08h-1.56v-18Z"/>
      <path d="m893.55,135.28v-.46c0-2.18,1.56-3.38,3.94-3.62l3.62-.36v-1.1c0-1.56-.65-2.59-3-2.59-1.27,0-2.71.24-3.72.5l-.26-1.37c1.22-.31,2.57-.58,3.98-.58,3.43,0,4.56,1.42,4.56,4.27v8.69h-1.25l-.19-1.2c-.82.58-2.21,1.39-3.96,1.39-2.42,0-3.72-1.58-3.72-3.58Zm7.58.86v-3.94l-3.29.31c-1.73.17-2.74.86-2.74,2.33v.31c0,1.34.89,2.33,2.4,2.33,1.42,0,2.95-.84,3.62-1.34Z"/>
      <path d="m906.63,125.9h1.25l.17,1.61c.77-.77,2.09-1.8,3.65-1.8.36,0,.6.02.98.07l-.26,1.63c-.34-.05-.65-.1-.98-.1-1.39,0-2.69,1.03-3.24,1.66v9.7h-1.56v-12.77Z"/>
      <path d="m914.55,132.26c0-4.01,1.37-6.55,4.94-6.55,3.77,0,4.85,2.54,4.85,6.53v.6h-8.16c.12,2.88,1.08,4.58,3.55,4.58,1.44,0,2.74-.31,3.65-.6l.29,1.37c-1.06.36-2.33.67-3.94.67-3.55,0-5.16-2.45-5.18-6.6Zm8.21-.79c-.07-2.74-.72-4.39-3.26-4.39-2.38,0-3.19,1.68-3.31,4.39h6.58Z"/>
      <path d="m928.25,121.86h5.02c3.26,0,5.23,1.97,5.23,5.28,0,3.12-1.82,5.26-5.23,5.26h-3.38v6.26h-1.63v-16.8Zm4.97,9.02c2.64,0,3.58-1.61,3.58-3.74s-.94-3.77-3.58-3.77h-3.34v7.51h3.34Z"/>
      <path d="m941.33,132.26c0-3.98,1.49-6.55,5.04-6.55s5.02,2.57,5.02,6.55-1.46,6.6-5.02,6.6-5.04-2.57-5.04-6.6Zm8.45,0c0-3.17-.84-5.18-3.41-5.18s-3.43,2.02-3.43,5.18.86,5.23,3.43,5.23,3.41-2.02,3.41-5.23Z"/>
      <path d="m954.55,122.18c0-.77.43-1.22,1.2-1.22.72,0,1.15.46,1.15,1.22s-.43,1.25-1.15,1.25c-.77,0-1.2-.46-1.2-1.25Zm.41,3.72h1.56v12.77h-1.56v-12.77Z"/>
      <path d="m960.6,125.9h1.25l.17,1.32c1.01-.7,2.69-1.51,4.51-1.51,2.59,0,3.34,1.66,3.34,3.96v9h-1.56v-8.69c0-1.9-.46-2.83-2.3-2.83-1.44,0-3.12.82-3.84,1.37v10.15h-1.56v-12.77Z"/>
      <path d="m974.93,135.35v-8.11h-2.21v-1.34h2.23v-2.9l1.54-.22v3.12h3.62v1.34h-3.62v8.3c0,1.18.29,1.75,1.58,1.75.67,0,1.75-.19,2.21-.34l.31,1.32c-.72.22-1.92.46-2.74.46-2.3,0-2.93-1.06-2.93-3.38Z"/>
      <path d="m999.03,125.9v8.47c0,2.28-1.25,4.49-4.66,4.49s-4.68-2.21-4.68-4.49v-8.47h1.56v8.26c0,2.09.96,3.29,3.12,3.29s3.1-1.2,3.1-3.29v-8.26h1.56Z"/>
      <path d="m1002.94,125.9h1.25l.17,1.32c1.01-.7,2.69-1.51,4.51-1.51,2.59,0,3.34,1.66,3.34,3.96v9h-1.56v-8.69c0-1.9-.46-2.83-2.3-2.83-1.44,0-3.12.82-3.84,1.37v10.15h-1.56v-12.77Z"/>
      <path d="m1015.54,135.28v-.46c0-2.18,1.56-3.38,3.94-3.62l3.62-.36v-1.1c0-1.56-.65-2.59-3-2.59-1.27,0-2.71.24-3.72.5l-.26-1.37c1.22-.31,2.57-.58,3.98-.58,3.43,0,4.56,1.42,4.56,4.27v8.69h-1.25l-.19-1.2c-.82.58-2.21,1.39-3.96,1.39-2.42,0-3.72-1.58-3.72-3.58Zm7.58.86v-3.94l-3.29.31c-1.73.17-2.74.86-2.74,2.33v.31c0,1.34.89,2.33,2.4,2.33,1.42,0,2.95-.84,3.62-1.34Z"/>
      <path d="m1027.3,125.9h1.7l3.67,10.95h.1l3.65-10.95h1.73l-4.46,12.77h-1.94l-4.44-12.77Z"/>
      <path d="m1040.28,135.28v-.46c0-2.18,1.56-3.38,3.94-3.62l3.62-.36v-1.1c0-1.56-.65-2.59-3-2.59-1.27,0-2.71.24-3.72.5l-.26-1.37c1.22-.31,2.57-.58,3.98-.58,3.43,0,4.56,1.42,4.56,4.27v8.69h-1.25l-.19-1.2c-.82.58-2.21,1.39-3.96,1.39-2.42,0-3.72-1.58-3.72-3.58Zm7.58.86v-3.94l-3.29.31c-1.73.17-2.74.86-2.74,2.33v.31c0,1.34.89,2.33,2.4,2.33,1.42,0,2.95-.84,3.62-1.34Z"/>
      <path d="m1053.07,122.18c0-.77.43-1.22,1.2-1.22.72,0,1.15.46,1.15,1.22s-.43,1.25-1.15,1.25c-.77,0-1.2-.46-1.2-1.25Zm.41,3.72h1.56v12.77h-1.56v-12.77Z"/>
      <path d="m1059.29,136.15v-15.48h1.56v15.41c0,.94.34,1.22.91,1.22.31,0,.65-.05.82-.1l.22,1.39c-.36.07-.86.14-1.32.14-1.46,0-2.18-.77-2.18-2.59Z"/>
      <path d="m1064.93,135.28v-.46c0-2.18,1.56-3.38,3.94-3.62l3.62-.36v-1.1c0-1.56-.65-2.59-3-2.59-1.27,0-2.71.24-3.72.5l-.26-1.37c1.22-.31,2.57-.58,3.98-.58,3.43,0,4.56,1.42,4.56,4.27v8.69h-1.25l-.19-1.2c-.82.58-2.21,1.39-3.96,1.39-2.42,0-3.72-1.58-3.72-3.58Zm7.58.86v-3.94l-3.29.31c-1.73.17-2.74.86-2.74,2.33v.31c0,1.34.89,2.33,2.4,2.33,1.42,0,2.95-.84,3.62-1.34Z"/>
      <path d="m1078.01,138.19v-17.52h1.56v6.26c.86-.6,2.16-1.22,3.77-1.22,3.17,0,4.37,2.57,4.37,6.55s-1.9,6.6-5.59,6.6c-1.49,0-2.69-.22-4.1-.67Zm8.09-5.93c0-3.17-.7-5.11-3.22-5.11-1.37,0-2.62.67-3.31,1.22v8.69c.82.26,1.61.36,2.28.36,2.74,0,4.25-1.82,4.25-5.16Z"/>
      <path d="m1091.16,136.15v-15.48h1.56v15.41c0,.94.34,1.22.91,1.22.31,0,.65-.05.82-.1l.22,1.39c-.36.07-.86.14-1.32.14-1.46,0-2.18-.77-2.18-2.59Z"/>
      <path d="m1096.75,132.26c0-4.01,1.37-6.55,4.94-6.55,3.77,0,4.85,2.54,4.85,6.53v.6h-8.16c.12,2.88,1.08,4.58,3.55,4.58,1.44,0,2.74-.31,3.65-.6l.29,1.37c-1.06.36-2.33.67-3.94.67-3.55,0-5.16-2.45-5.18-6.6Zm8.21-.79c-.07-2.74-.72-4.39-3.26-4.39-2.38,0-3.19,1.68-3.31,4.39h6.58Z"/>
      <path d="m873.92,169.48l-.31,1.51c-4.01-1.18-5.95-5.02-5.95-11.23s1.94-10.06,5.95-11.23l.31,1.51c-3.14,1.08-4.61,4.03-4.61,9.72s1.46,8.64,4.61,9.72Z"/>
      <path d="m882.1,152.44l-4.32,1.66v-1.58l4.7-1.85h1.27v16.8h-1.66v-15.03Z"/>
      <path d="m889.78,165.91h7.75v1.56h-9.48v-2.23c0-5.04,7.85-6.82,7.85-10.3,0-2.09-1.42-3-3.84-3-1.27,0-2.52.26-3.46.62l-.41-1.37c1.15-.43,2.52-.72,4.06-.72,3.34,0,5.33,1.56,5.33,4.46,0,4.46-7.8,6.07-7.8,10.2v.77Z"/>
      <path d="m909.67,163.07h-6.55l-1.2,4.39h-1.66l4.66-16.8h2.98l4.68,16.8h-1.7l-1.2-4.39Zm-.43-1.56l-2.47-9.1h-.72l-2.5,9.12,5.69-.02Z"/>
      <path d="m916.44,150.66h2.21l4.95,13.3,4.92-13.3h2.18l.55,16.8h-1.61l-.36-14.26h-.12l-4.46,12.1h-2.23l-4.46-12.1h-.12l-.38,14.26h-1.58l.53-16.8Z"/>
      <path d="m934.95,159.42h6.41v1.44h-6.41v-1.44Z"/>
      <path d="m951.63,163.94h-7.46v-1.27l2.71-6.53c.65-1.54,1.06-2.54,1.06-4.01v-1.46h1.61v1.46c0,1.66-.5,2.86-1.13,4.39l-2.42,5.9h5.64l.22-5.42h1.44v5.42h2.33v1.51h-2.33v3.53h-1.66v-3.53Z"/>
      <path d="m967.23,163.07h-6.55l-1.2,4.39h-1.66l4.66-16.8h2.98l4.68,16.8h-1.7l-1.2-4.39Zm-.43-1.56l-2.47-9.1h-.72l-2.5,9.12,5.69-.02Z"/>
      <path d="m973.99,150.66h2.21l4.95,13.3,4.92-13.3h2.18l.55,16.8h-1.61l-.36-14.26h-.12l-4.46,12.1h-2.23l-4.46-12.1h-.12l-.38,14.26h-1.58l.53-16.8Z"/>
      <path d="m999.72,159.76c0,6.22-1.97,10.06-5.98,11.23l-.29-1.51c3.12-1.08,4.58-4.03,4.58-9.72s-1.46-8.64-4.58-9.72l.29-1.51c4.01,1.18,5.98,5.02,5.98,11.23Z"/>
    </g>
    <g>
      <path d="m871.66,295.44l-4.32,1.66v-1.58l4.7-1.85h1.27v16.8h-1.66v-15.03Z"/>
      <path d="m877.92,297.69h1.2l.29,1.08c.86-.65,2.18-1.27,3.84-1.27,3.17,0,4.37,2.57,4.37,6.55s-1.9,6.6-5.57,6.6c-.94,0-1.78-.1-2.57-.26v4.92h-1.56v-17.62Zm8.09,6.36c0-3.17-.7-5.11-3.22-5.11-1.37,0-2.62.67-3.31,1.22v8.69c.82.26,1.61.36,2.28.36,2.74,0,4.25-1.82,4.25-5.16Z"/>
      <path d="m907.16,301.65v8.81h-1.56v-8.69c0-1.87-.5-2.83-2.33-2.83-1.37,0-2.81.79-3.48,1.34.1.43.12.91.12,1.39v8.79h-1.56v-8.69c0-1.87-.48-2.83-2.28-2.83-1.46,0-2.78.82-3.43,1.37v10.15h-1.56v-12.77h1.25l.17,1.32c.94-.7,2.26-1.51,4.08-1.51,1.49,0,2.35.62,2.83,1.56.96-.72,2.52-1.56,4.39-1.56,2.57,0,3.36,1.87,3.36,4.15Z"/>
      <path d="m911.09,300.5c0-.82.41-1.3,1.3-1.3.84,0,1.25.48,1.25,1.3,0,.86-.41,1.34-1.25,1.34-.89,0-1.3-.48-1.3-1.34Zm0,8.81c0-.82.41-1.3,1.3-1.3.84,0,1.25.48,1.25,1.3,0,.86-.41,1.34-1.25,1.34-.89,0-1.3-.48-1.3-1.34Z"/>
      <path d="m924.12,293.66h4.75c3.24,0,4.95,1.44,4.95,4.42,0,1.7-.86,2.93-1.97,3.5v.1c1.51.53,2.59,1.8,2.59,4.01,0,2.83-1.8,4.78-4.95,4.78h-5.38v-16.8Zm4.97,7.39c2.18,0,3.05-1.44,3.05-2.98,0-1.87-.86-2.9-3.26-2.9h-3.12v5.88h3.34Zm.41,7.9c2.09,0,3.24-1.3,3.24-3.26s-.96-3.17-3.19-3.17h-3.79v6.43h3.74Z"/>
      <path d="m937.27,304.05c0-4.01,1.37-6.55,4.94-6.55,3.77,0,4.85,2.54,4.85,6.53v.6h-8.16c.12,2.88,1.08,4.58,3.55,4.58,1.44,0,2.74-.31,3.65-.6l.29,1.37c-1.06.36-2.33.67-3.94.67-3.55,0-5.16-2.45-5.18-6.6Zm8.21-.79c-.07-2.74-.72-4.39-3.26-4.39-2.38,0-3.19,1.68-3.31,4.39h6.58Z"/>
      <path d="m949.9,307.08v-.46c0-2.18,1.56-3.38,3.94-3.62l3.62-.36v-1.1c0-1.56-.65-2.59-3-2.59-1.27,0-2.71.24-3.72.5l-.26-1.37c1.22-.31,2.57-.58,3.98-.58,3.43,0,4.56,1.42,4.56,4.27v8.69h-1.25l-.19-1.2c-.82.58-2.21,1.39-3.96,1.39-2.42,0-3.72-1.58-3.72-3.58Zm7.58.86v-3.94l-3.29.31c-1.73.17-2.74.86-2.74,2.33v.31c0,1.34.89,2.33,2.4,2.33,1.42,0,2.95-.84,3.62-1.34Z"/>
      <path d="m970.92,310.03c-1.2.43-2.26.62-3.48.62h-.05c-3.58,0-5.06-2.57-5.06-6.6s1.49-6.55,5.06-6.55h.02c1.2,0,2.18.22,3.36.62l-.26,1.39c-1.01-.31-2.04-.6-3.1-.6h-.02c-2.57,0-3.46,1.97-3.46,5.14s.89,5.18,3.46,5.18h.05c1.06,0,2.23-.26,3.22-.6l.26,1.39Z"/>
      <path d="m973.37,304.05c0-3.98,1.49-6.55,5.04-6.55s5.02,2.57,5.02,6.55-1.46,6.6-5.02,6.6-5.04-2.57-5.04-6.6Zm8.45,0c0-3.17-.84-5.18-3.41-5.18s-3.43,2.02-3.43,5.18.86,5.23,3.43,5.23,3.41-2.02,3.41-5.23Z"/>
      <path d="m986.88,297.69h1.25l.17,1.32c1.01-.7,2.69-1.51,4.51-1.51,2.59,0,3.34,1.66,3.34,3.96v9h-1.56v-8.69c0-1.9-.46-2.83-2.3-2.83-1.44,0-3.12.82-3.84,1.37v10.15h-1.56v-12.77Z"/>
      <path d="m1015.94,305.97c0,2.88-1.9,4.68-5.64,4.68-1.8,0-3.31-.41-4.54-.86l.29-1.56c1.03.38,2.76.84,4.42.84,2.64,0,3.79-1.2,3.79-3.1,0-1.58-1.08-2.4-2.52-3l-2.66-1.08c-1.63-.67-3-1.82-3-4.1,0-2.93,2.09-4.32,5.11-4.32,1.49,0,2.86.31,4.03.67l-.29,1.51c-1.01-.31-2.4-.65-3.86-.65-2.23,0-3.36,1.01-3.36,2.79,0,1.27.77,2.06,2.09,2.64l2.69,1.1c1.97.82,3.46,2.02,3.46,4.44Z"/>
      <path d="m1020.55,307.15v-8.11h-2.21v-1.34h2.23v-2.9l1.54-.22v3.12h3.62v1.34h-3.62v8.3c0,1.18.29,1.75,1.58,1.75.67,0,1.75-.19,2.21-.34l.31,1.32c-.72.22-1.92.46-2.74.46-2.3,0-2.93-1.06-2.93-3.38Z"/>
      <path d="m1029.19,297.69h1.25l.17,1.61c.77-.77,2.09-1.8,3.65-1.8.36,0,.6.02.98.07l-.26,1.63c-.34-.05-.65-.1-.98-.1-1.39,0-2.69,1.03-3.24,1.66v9.7h-1.56v-12.77Z"/>
      <path d="m1037.11,304.05c0-4.01,1.37-6.55,4.94-6.55,3.77,0,4.85,2.54,4.85,6.53v.6h-8.16c.12,2.88,1.08,4.58,3.55,4.58,1.44,0,2.74-.31,3.65-.6l.29,1.37c-1.06.36-2.33.67-3.94.67-3.55,0-5.16-2.45-5.18-6.6Zm8.21-.79c-.07-2.74-.72-4.39-3.26-4.39-2.38,0-3.19,1.68-3.31,4.39h6.58Z"/>
      <path d="m1049.69,304.05c0-4.01,1.37-6.55,4.94-6.55,3.77,0,4.85,2.54,4.85,6.53v.6h-8.16c.12,2.88,1.08,4.58,3.55,4.58,1.44,0,2.74-.31,3.65-.6l.29,1.37c-1.06.36-2.33.67-3.94.67-3.55,0-5.16-2.45-5.18-6.6Zm8.21-.79c-.07-2.74-.72-4.39-3.26-4.39-2.38,0-3.19,1.68-3.31,4.39h6.58Z"/>
      <path d="m1064.04,307.15v-8.11h-2.21v-1.34h2.23v-2.9l1.54-.22v3.12h3.62v1.34h-3.62v8.3c0,1.18.29,1.75,1.58,1.75.67,0,1.75-.19,2.21-.34l.31,1.32c-.72.22-1.92.46-2.74.46-2.3,0-2.93-1.06-2.93-3.38Z"/>
      <path d="m868.25,322.46h1.63v15.29h7.13v1.51h-8.76v-16.8Z"/>
      <path d="m889.3,326.49v8.47c0,2.28-1.25,4.49-4.66,4.49s-4.68-2.21-4.68-4.49v-8.47h1.56v8.26c0,2.09.96,3.29,3.12,3.29s3.1-1.2,3.1-3.29v-8.26h1.56Z"/>
      <path d="m893.21,326.49h1.25l.17,1.32c1.01-.7,2.69-1.51,4.51-1.51,2.59,0,3.34,1.66,3.34,3.96v9h-1.56v-8.69c0-1.9-.46-2.83-2.3-2.83-1.44,0-3.12.82-3.84,1.37v10.15h-1.56v-12.77Z"/>
      <path d="m914.36,338.83c-1.2.43-2.26.62-3.48.62h-.05c-3.58,0-5.06-2.57-5.06-6.6s1.49-6.55,5.06-6.55h.02c1.2,0,2.18.22,3.36.62l-.26,1.39c-1.01-.31-2.04-.6-3.1-.6h-.02c-2.57,0-3.46,1.97-3.46,5.14s.89,5.18,3.46,5.18h.05c1.06,0,2.23-.26,3.22-.6l.26,1.39Z"/>
      <path d="m917.69,321.26h1.56v6.53c.98-.7,2.67-1.49,4.46-1.49,2.62,0,3.36,1.46,3.36,3.77v9.19h-1.56v-8.69c0-1.9-.48-2.83-2.33-2.83-1.42,0-3.1.82-3.94,1.44v10.08h-1.56v-18Z"/>
      <path d="m935.98,326.49h1.66l2.69,10.95h.1l3.1-10.95h2.04l3.12,10.95h.1l2.66-10.95h1.68l-3.34,12.77h-2.09l-3.1-10.92h-.1l-3.12,10.92h-2.06l-3.34-12.77Z"/>
      <path d="m959.71,320.56h1.54l-6.14,21.79h-1.54l6.14-21.79Z"/>
      <path d="m970.2,322.46h2.21l4.95,13.3,4.92-13.3h2.18l.55,16.8h-1.61l-.36-14.26h-.12l-4.46,12.1h-2.23l-4.46-12.1h-.12l-.38,14.26h-1.58l.53-16.8Z"/>
      <path d="m988.83,335.88v-.46c0-2.18,1.56-3.38,3.94-3.62l3.62-.36v-1.1c0-1.56-.65-2.59-3-2.59-1.27,0-2.71.24-3.72.5l-.26-1.37c1.22-.31,2.57-.58,3.98-.58,3.43,0,4.56,1.42,4.56,4.27v8.69h-1.25l-.19-1.2c-.82.58-2.21,1.39-3.96,1.39-2.42,0-3.72-1.58-3.72-3.58Zm7.58.86v-3.94l-3.29.31c-1.73.17-2.74.86-2.74,2.33v.31c0,1.34.89,2.33,2.4,2.33,1.42,0,2.95-.84,3.62-1.34Z"/>
      <path d="m1003.03,335.95v-8.11h-2.21v-1.34h2.23v-2.9l1.54-.22v3.12h3.62v1.34h-3.62v8.3c0,1.18.29,1.75,1.58,1.75.67,0,1.75-.19,2.21-.34l.31,1.32c-.72.22-1.92.46-2.74.46-2.3,0-2.93-1.06-2.93-3.38Z"/>
      <path d="m1012.8,335.95v-8.11h-2.21v-1.34h2.23v-2.9l1.54-.22v3.12h3.62v1.34h-3.62v8.3c0,1.18.29,1.75,1.58,1.75.67,0,1.75-.19,2.21-.34l.31,1.32c-.72.22-1.92.46-2.74.46-2.3,0-2.93-1.06-2.93-3.38Z"/>
      <path d="m1021.44,321.26h1.56v6.53c.98-.7,2.66-1.49,4.46-1.49,2.62,0,3.36,1.46,3.36,3.77v9.19h-1.56v-8.69c0-1.9-.48-2.83-2.33-2.83-1.42,0-3.1.82-3.94,1.44v10.08h-1.56v-18Z"/>
      <path d="m1034.11,332.85c0-4.01,1.37-6.55,4.94-6.55,3.77,0,4.85,2.54,4.85,6.53v.6h-8.16c.12,2.88,1.08,4.58,3.55,4.58,1.44,0,2.74-.31,3.65-.6l.29,1.37c-1.06.36-2.33.67-3.94.67-3.55,0-5.16-2.45-5.18-6.6Zm8.21-.79c-.07-2.74-.72-4.39-3.26-4.39-2.38,0-3.19,1.68-3.31,4.39h6.58Z"/>
      <path d="m1046.02,326.49h1.66l2.69,10.95h.1l3.1-10.95h2.04l3.12,10.95h.1l2.67-10.95h1.68l-3.34,12.77h-2.09l-3.1-10.92h-.1l-3.12,10.92h-2.06l-3.34-12.77Z"/>
    </g>
    <g>
      <path class="cls-28" d="m1194.35,206.87c1.1,2.4-.52,10.59-.52,10.59,0,0-7.33-4.31-8.43-6.71-1.1-2.4.01-5.22,2.48-6.29,2.47-1.07,5.36.01,6.46,2.42Z"/>
      <path class="cls-5" d="m1196.18,217.98h-2.56c0-4.15,2.33-11.3,11.71-11.3v2.49c-8.53,0-9.16,7.98-9.16,8.81Z"/>
      <path class="cls-29" d="m1194.9,217.53c-7.07-7.25-28.26-7.57-28.26,13.14,0,13.09,15.38,31.85,22.09,31.85,3.05,0,4.14-1.9,5.91-1.9s2.38,1.9,6.27,1.9c6.72,0,22.25-18.7,22.25-31.85,0-20.71-21.19-20.39-28.26-13.14Z"/>
    </g>
    <g>
      <path d="m285.87,131.43c0,5.76-2.33,8.57-6.31,8.57-1.27,0-2.38-.29-3.5-.7l.41-1.39c.94.36,1.99.62,3.22.62,2.98,0,4.3-2.23,4.51-5.93-.79.36-2.16.79-3.82.79-3.38,0-5.04-1.7-5.04-4.92,0-3.05,1.39-5.67,5.14-5.67s5.4,2.45,5.4,8.62Zm-5.26.55c1.34,0,2.81-.46,3.6-.84-.05-4.46-.91-6.86-3.74-6.86-2.4,0-3.48,1.78-3.48,4.2s1.2,3.5,3.62,3.5Z"/>
      <path d="m289.04,136.42v-.46c0-2.18,1.56-3.38,3.94-3.62l3.62-.36v-1.1c0-1.56-.65-2.59-3-2.59-1.27,0-2.71.24-3.72.5l-.26-1.37c1.22-.31,2.57-.58,3.98-.58,3.43,0,4.56,1.42,4.56,4.27v8.69h-1.25l-.19-1.2c-.82.58-2.21,1.39-3.96,1.39-2.42,0-3.72-1.58-3.72-3.58Zm7.58.86v-3.94l-3.29.31c-1.73.17-2.74.86-2.74,2.33v.31c0,1.34.89,2.33,2.4,2.33,1.42,0,2.95-.84,3.62-1.34Z"/>
      <path d="m318.2,131v8.81h-1.56v-8.69c0-1.87-.5-2.83-2.33-2.83-1.37,0-2.81.79-3.48,1.34.1.43.12.91.12,1.39v8.79h-1.56v-8.69c0-1.87-.48-2.83-2.28-2.83-1.46,0-2.78.82-3.43,1.37v10.15h-1.56v-12.77h1.25l.17,1.32c.94-.7,2.26-1.51,4.08-1.51,1.49,0,2.35.62,2.83,1.56.96-.72,2.52-1.56,4.39-1.56,2.57,0,3.36,1.87,3.36,4.15Z"/>
      <path d="m322.13,129.85c0-.82.41-1.3,1.3-1.3.84,0,1.25.48,1.25,1.3,0,.86-.41,1.34-1.25,1.34-.89,0-1.3-.48-1.3-1.34Zm0,8.81c0-.82.41-1.3,1.3-1.3.84,0,1.25.48,1.25,1.3,0,.86-.41,1.34-1.25,1.34-.89,0-1.3-.48-1.3-1.34Z"/>
      <path d="m338.89,124.52h-4.8v-1.51h11.21v1.51h-4.78v15.29h-1.63v-15.29Z"/>
      <path d="m345.85,133.4c0-4.01,1.37-6.55,4.94-6.55,3.77,0,4.85,2.54,4.85,6.53v.6h-8.16c.12,2.88,1.08,4.58,3.55,4.58,1.44,0,2.74-.31,3.65-.6l.29,1.37c-1.06.36-2.33.67-3.94.67-3.55,0-5.16-2.45-5.18-6.6Zm8.21-.79c-.07-2.74-.72-4.39-3.26-4.39-2.38,0-3.19,1.68-3.31,4.39h6.58Z"/>
      <path d="m358.47,136.42v-.46c0-2.18,1.56-3.38,3.94-3.62l3.62-.36v-1.1c0-1.56-.65-2.59-3-2.59-1.27,0-2.71.24-3.72.5l-.26-1.37c1.22-.31,2.57-.58,3.98-.58,3.43,0,4.56,1.42,4.56,4.27v8.69h-1.25l-.19-1.2c-.82.58-2.21,1.39-3.96,1.39-2.42,0-3.72-1.58-3.72-3.58Zm7.58.86v-3.94l-3.29.31c-1.73.17-2.74.86-2.74,2.33v.31c0,1.34.89,2.33,2.4,2.33,1.42,0,2.95-.84,3.62-1.34Z"/>
      <path d="m387.63,131v8.81h-1.56v-8.69c0-1.87-.5-2.83-2.33-2.83-1.37,0-2.81.79-3.48,1.34.1.43.12.91.12,1.39v8.79h-1.56v-8.69c0-1.87-.48-2.83-2.28-2.83-1.46,0-2.78.82-3.43,1.37v10.15h-1.56v-12.77h1.25l.17,1.32c.94-.7,2.26-1.51,4.08-1.51,1.49,0,2.35.62,2.83,1.56.96-.72,2.52-1.56,4.39-1.56,2.57,0,3.36,1.87,3.36,4.15Z"/>
      <path d="m398.74,123.01h2.21l4.94,13.3,4.92-13.3h2.18l.55,16.8h-1.61l-.36-14.26h-.12l-4.46,12.1h-2.23l-4.46-12.1h-.12l-.38,14.26h-1.58l.53-16.8Z"/>
      <path d="m417.32,133.4c0-4.01,1.37-6.55,4.94-6.55,3.77,0,4.85,2.54,4.85,6.53v.6h-8.16c.12,2.88,1.08,4.58,3.55,4.58,1.44,0,2.74-.31,3.65-.6l.29,1.37c-1.06.36-2.33.67-3.94.67-3.55,0-5.16-2.45-5.18-6.6Zm8.21-.79c-.07-2.74-.72-4.39-3.26-4.39-2.38,0-3.19,1.68-3.31,4.39h6.58Z"/>
      <path d="m429.89,133.4c0-4.01,1.37-6.55,4.94-6.55,3.77,0,4.85,2.54,4.85,6.53v.6h-8.16c.12,2.88,1.08,4.58,3.55,4.58,1.44,0,2.74-.31,3.65-.6l.29,1.37c-1.06.36-2.33.67-3.94.67-3.55,0-5.16-2.45-5.18-6.6Zm8.21-.79c-.07-2.74-.72-4.39-3.26-4.39-2.38,0-3.19,1.68-3.31,4.39h6.58Z"/>
      <path d="m444.24,136.5v-8.11h-2.21v-1.34h2.23v-2.9l1.54-.22v3.12h3.62v1.34h-3.62v8.3c0,1.18.29,1.75,1.58,1.75.67,0,1.75-.19,2.21-.34l.31,1.32c-.72.22-1.92.46-2.74.46-2.3,0-2.93-1.06-2.93-3.38Z"/>
      <path d="m452.6,123.32c0-.77.43-1.22,1.2-1.22.72,0,1.15.46,1.15,1.22s-.43,1.25-1.15,1.25c-.77,0-1.2-.46-1.2-1.25Zm.41,3.72h1.56v12.77h-1.56v-12.77Z"/>
      <path d="m458.64,127.04h1.25l.17,1.32c1.01-.7,2.69-1.51,4.51-1.51,2.59,0,3.34,1.66,3.34,3.96v9h-1.56v-8.69c0-1.9-.46-2.83-2.3-2.83-1.44,0-3.12.82-3.84,1.37v10.15h-1.56v-12.77Z"/>
      <path d="m482.12,140.67c0,2.45-2.38,4.18-6.55,4.18-2.78,0-4.87-1.22-4.87-3.34,0-.72.34-1.39.89-1.97l.74-.77c-.38-.29-.58-.72-.58-1.27,0-.65.43-1.2.7-1.51l.72-.84c-.96-.74-1.54-1.97-1.54-3.72,0-3.19,1.94-4.58,4.44-4.58.82,0,1.56.14,2.21.46l3.65-.26v1.44h-2.23c.5.72.79,1.7.79,2.95,0,3.19-1.9,4.61-4.42,4.61-.67,0-1.3-.1-1.85-.31l-.55.72c-.19.24-.31.48-.31.72,0,.43.24.79,1.08.79h4.44c2.18,0,3.24,1.3,3.24,2.71Zm-1.56.17c0-.79-.46-1.54-2.04-1.54h-4.25c-.26,0-.53-.02-.77-.05l-.62.65c-.43.46-.65.98-.65,1.46,0,1.18,1.1,2.09,3.55,2.09,3.02,0,4.78-1.22,4.78-2.62Zm-7.39-9.41c0,2.23,1.03,3.31,2.9,3.31s2.9-1.08,2.9-3.31-1.01-3.29-2.9-3.29-2.9,1.1-2.9,3.29Z"/>
    </g>
    <g>
      <path d="m281.05,166.22l-4.32,1.66v-1.58l4.7-1.85h1.27v16.8h-1.66v-15.03Z"/>
      <path d="m297.66,172.82c0,5.28-1.34,8.62-5.33,8.62s-5.33-3.34-5.33-8.62,1.34-8.57,5.33-8.57,5.33,3.34,5.33,8.57Zm-1.66,0c0-4.37-.79-7.1-3.67-7.1s-3.67,2.74-3.67,7.1.79,7.15,3.67,7.15,3.67-2.74,3.67-7.15Z"/>
      <path d="m300.82,177.86v-.46c0-2.18,1.56-3.38,3.94-3.62l3.62-.36v-1.1c0-1.56-.65-2.59-3-2.59-1.27,0-2.71.24-3.72.5l-.26-1.37c1.22-.31,2.57-.58,3.98-.58,3.43,0,4.56,1.42,4.56,4.27v8.69h-1.25l-.19-1.2c-.82.58-2.21,1.39-3.96,1.39-2.42,0-3.72-1.58-3.72-3.58Zm7.58.86v-3.94l-3.29.31c-1.73.17-2.74.86-2.74,2.33v.31c0,1.34.89,2.33,2.4,2.33,1.42,0,2.95-.84,3.62-1.34Z"/>
      <path d="m329.98,172.43v8.81h-1.56v-8.69c0-1.87-.5-2.83-2.33-2.83-1.37,0-2.81.79-3.48,1.34.1.43.12.91.12,1.39v8.79h-1.56v-8.69c0-1.87-.48-2.83-2.28-2.83-1.46,0-2.78.82-3.43,1.37v10.15h-1.56v-12.77h1.25l.17,1.32c.94-.7,2.26-1.51,4.08-1.51,1.49,0,2.35.62,2.83,1.56.96-.72,2.52-1.56,4.39-1.56,2.57,0,3.36,1.87,3.36,4.15Z"/>
      <path d="m333.92,171.28c0-.82.41-1.3,1.3-1.3.84,0,1.25.48,1.25,1.3,0,.86-.41,1.34-1.25,1.34-.89,0-1.3-.48-1.3-1.34Zm0,8.81c0-.82.41-1.3,1.3-1.3.84,0,1.25.48,1.25,1.3,0,.86-.41,1.34-1.25,1.34-.89,0-1.3-.48-1.3-1.34Z"/>
      <path d="m346.23,172.82c0-5.23,1.9-8.57,6.38-8.57,1.49,0,2.45.22,3.62.65l-.26,1.46c-1.01-.34-2.06-.6-3.36-.6-3.38,0-4.68,2.71-4.68,7.06s1.3,7.1,4.68,7.1c1.3,0,2.47-.26,3.48-.6l.29,1.44c-1.22.38-2.3.67-3.77.67-4.49,0-6.38-3.34-6.38-8.62Z"/>
      <path d="m359.07,174.83c0-3.98,1.49-6.55,5.04-6.55s5.02,2.57,5.02,6.55-1.46,6.6-5.02,6.6-5.04-2.57-5.04-6.6Zm8.45,0c0-3.17-.84-5.18-3.41-5.18s-3.43,2.02-3.43,5.18.86,5.23,3.43,5.23,3.41-2.02,3.41-5.23Z"/>
      <path d="m388.66,172.43v8.81h-1.56v-8.69c0-1.87-.5-2.83-2.33-2.83-1.37,0-2.81.79-3.48,1.34.1.43.12.91.12,1.39v8.79h-1.56v-8.69c0-1.87-.48-2.83-2.28-2.83-1.46,0-2.78.82-3.43,1.37v10.15h-1.56v-12.77h1.25l.17,1.32c.94-.7,2.26-1.51,4.08-1.51,1.49,0,2.35.62,2.83,1.56.96-.72,2.52-1.56,4.39-1.56,2.57,0,3.36,1.87,3.36,4.15Z"/>
      <path d="m392.6,168.47h1.2l.29,1.08c.86-.65,2.18-1.27,3.84-1.27,3.17,0,4.37,2.57,4.37,6.55s-1.9,6.6-5.57,6.6c-.94,0-1.78-.1-2.57-.26v4.92h-1.56v-17.62Zm8.09,6.36c0-3.17-.7-5.11-3.22-5.11-1.37,0-2.62.67-3.31,1.22v8.69c.82.26,1.61.36,2.28.36,2.74,0,4.25-1.82,4.25-5.16Z"/>
      <path d="m405.15,177.86v-.46c0-2.18,1.56-3.38,3.94-3.62l3.62-.36v-1.1c0-1.56-.65-2.59-3-2.59-1.27,0-2.71.24-3.72.5l-.26-1.37c1.22-.31,2.57-.58,3.98-.58,3.43,0,4.56,1.42,4.56,4.27v8.69h-1.25l-.19-1.2c-.82.58-2.21,1.39-3.96,1.39-2.42,0-3.72-1.58-3.72-3.58Zm7.58.86v-3.94l-3.29.31c-1.73.17-2.74.86-2.74,2.33v.31c0,1.34.89,2.33,2.4,2.33,1.42,0,2.95-.84,3.62-1.34Z"/>
      <path d="m418.23,168.47h1.25l.17,1.32c1.01-.7,2.69-1.51,4.51-1.51,2.59,0,3.34,1.66,3.34,3.96v9h-1.56v-8.69c0-1.9-.46-2.83-2.3-2.83-1.44,0-3.12.82-3.84,1.37v10.15h-1.56v-12.77Z"/>
      <path d="m430.16,186.09l.29-1.42c.46.07,1.03.12,1.51.12,1.32,0,1.99-.67,2.42-1.94l.53-1.61h-.41l-4.39-12.77h1.7l3.67,10.95h.1l3.65-10.95h1.73l-5.09,14.71c-.72,2.06-1.82,3.1-3.91,3.1-.58,0-1.32-.1-1.8-.19Z"/>
      <path d="m275.84,197.27h1.66l2.69,10.95h.1l3.1-10.95h2.04l3.12,10.95h.1l2.66-10.95h1.68l-3.34,12.77h-2.09l-3.1-10.92h-.1l-3.12,10.92h-2.06l-3.34-12.77Z"/>
      <path d="m295.42,193.55c0-.77.43-1.22,1.2-1.22.72,0,1.15.46,1.15,1.22s-.43,1.25-1.15,1.25c-.77,0-1.2-.46-1.2-1.25Zm.41,3.72h1.56v12.77h-1.56v-12.77Z"/>
      <path d="m300.82,203.66c0-4.01,2.14-6.58,5.76-6.58.91,0,1.68.1,2.4.26v-5.3h1.56v18h-1.2l-.31-1.08c-.86.62-2.18,1.27-3.84,1.27-3.14,0-4.37-2.57-4.37-6.58Zm8.16,3.91v-8.69c-.82-.26-1.61-.36-2.3-.36-2.74,0-4.25,1.82-4.25,5.14s.7,5.14,3.22,5.14c1.37,0,2.64-.7,3.34-1.22Z"/>
      <path d="m313.85,203.63c0-4.01,1.37-6.55,4.94-6.55,3.77,0,4.85,2.54,4.85,6.53v.6h-8.16c.12,2.88,1.08,4.58,3.55,4.58,1.44,0,2.74-.31,3.65-.6l.29,1.37c-1.06.36-2.33.67-3.94.67-3.55,0-5.16-2.45-5.18-6.6Zm8.21-.79c-.07-2.74-.72-4.39-3.26-4.39-2.38,0-3.19,1.68-3.31,4.39h6.58Z"/>
      <path d="m349.45,201.23v8.81h-1.56v-8.69c0-1.87-.5-2.83-2.33-2.83-1.37,0-2.81.79-3.48,1.34.1.43.12.91.12,1.39v8.79h-1.56v-8.69c0-1.87-.48-2.83-2.28-2.83-1.46,0-2.78.82-3.43,1.37v10.15h-1.56v-12.77h1.25l.17,1.32c.94-.7,2.26-1.51,4.08-1.51,1.49,0,2.35.62,2.83,1.56.96-.72,2.52-1.56,4.39-1.56,2.57,0,3.36,1.87,3.36,4.15Z"/>
      <path d="m352.73,203.63c0-4.01,1.37-6.55,4.94-6.55,3.77,0,4.85,2.54,4.85,6.53v.6h-8.16c.12,2.88,1.08,4.58,3.55,4.58,1.44,0,2.74-.31,3.65-.6l.29,1.37c-1.06.36-2.33.67-3.94.67-3.55,0-5.16-2.45-5.18-6.6Zm8.21-.79c-.07-2.74-.72-4.39-3.26-4.39-2.38,0-3.19,1.68-3.31,4.39h6.58Z"/>
      <path d="m365.31,203.63c0-4.01,1.37-6.55,4.94-6.55,3.77,0,4.85,2.54,4.85,6.53v.6h-8.16c.12,2.88,1.08,4.58,3.55,4.58,1.44,0,2.74-.31,3.65-.6l.29,1.37c-1.06.36-2.33.67-3.94.67-3.55,0-5.16-2.45-5.18-6.6Zm8.21-.79c-.07-2.74-.72-4.39-3.26-4.39-2.38,0-3.19,1.68-3.31,4.39h6.58Z"/>
      <path d="m379.66,206.73v-8.11h-2.21v-1.34h2.23v-2.9l1.54-.22v3.12h3.62v1.34h-3.62v8.3c0,1.18.29,1.75,1.58,1.75.67,0,1.75-.19,2.21-.34l.31,1.32c-.72.22-1.92.46-2.74.46-2.3,0-2.93-1.06-2.93-3.38Z"/>
      <path d="m388.01,193.55c0-.77.43-1.22,1.2-1.22.72,0,1.15.46,1.15,1.22s-.43,1.25-1.15,1.25c-.77,0-1.2-.46-1.2-1.25Zm.41,3.72h1.56v12.77h-1.56v-12.77Z"/>
      <path d="m394.06,197.27h1.25l.17,1.32c1.01-.7,2.69-1.51,4.51-1.51,2.59,0,3.34,1.66,3.34,3.96v9h-1.56v-8.69c0-1.9-.46-2.83-2.3-2.83-1.44,0-3.12.82-3.84,1.37v10.15h-1.56v-12.77Z"/>
      <path d="m417.53,210.91c0,2.45-2.38,4.18-6.55,4.18-2.78,0-4.87-1.22-4.87-3.34,0-.72.34-1.39.89-1.97l.74-.77c-.38-.29-.58-.72-.58-1.27,0-.65.43-1.2.7-1.51l.72-.84c-.96-.74-1.54-1.97-1.54-3.72,0-3.19,1.94-4.58,4.44-4.58.82,0,1.56.14,2.21.46l3.65-.26v1.44h-2.23c.5.72.79,1.7.79,2.95,0,3.19-1.9,4.61-4.42,4.61-.67,0-1.3-.1-1.85-.31l-.55.72c-.19.24-.31.48-.31.72,0,.43.24.79,1.08.79h4.44c2.18,0,3.24,1.3,3.24,2.71Zm-1.56.17c0-.79-.46-1.54-2.04-1.54h-4.25c-.26,0-.53-.02-.77-.05l-.62.65c-.43.46-.65.98-.65,1.46,0,1.18,1.1,2.09,3.55,2.09,3.02,0,4.78-1.22,4.78-2.62Zm-7.39-9.41c0,2.23,1.03,3.31,2.9,3.31s2.9-1.08,2.9-3.31-1.01-3.29-2.9-3.29-2.9,1.1-2.9,3.29Z"/>
      <path d="m425.55,197.27h1.66l2.69,10.95h.1l3.1-10.95h2.04l3.12,10.95h.1l2.67-10.95h1.68l-3.34,12.77h-2.09l-3.1-10.92h-.1l-3.12,10.92h-2.06l-3.34-12.77Z"/>
      <path d="m449.28,191.34h1.54l-6.14,21.79h-1.54l6.14-21.79Z"/>
      <path d="m458.64,201.62c0-5.23,1.9-8.57,6.38-8.57,1.49,0,2.45.22,3.62.65l-.26,1.46c-1.01-.34-2.06-.6-3.36-.6-3.38,0-4.68,2.71-4.68,7.06s1.3,7.1,4.68,7.1c1.3,0,2.47-.26,3.48-.6l.29,1.44c-1.22.38-2.3.67-3.77.67-4.49,0-6.38-3.34-6.38-8.62Z"/>
      <path d="m472.85,193.24h8.76v1.51h-7.13v5.95h6.6v1.51h-6.6v6.31h7.13v1.51h-8.76v-16.8Z"/>
      <path d="m497.5,201.62c0,5.28-1.75,8.62-6.14,8.62s-6.14-3.34-6.14-8.62,1.73-8.57,6.14-8.57,6.14,3.34,6.14,8.57Zm-1.73,0c0-4.3-1.08-7.06-4.42-7.06s-4.44,2.76-4.44,7.06,1.08,7.1,4.44,7.1,4.42-2.76,4.42-7.1Z"/>
    </g>
    <g>
      <path d="m575.67,235.37l-4.32,1.66v-1.58l4.7-1.85h1.27v16.8h-1.66v-15.03Z"/>
      <path d="m583.35,248.84h7.75v1.56h-9.48v-2.23c0-5.04,7.85-6.82,7.85-10.3,0-2.09-1.42-3-3.84-3-1.27,0-2.52.26-3.46.62l-.41-1.37c1.15-.43,2.52-.72,4.06-.72,3.34,0,5.33,1.56,5.33,4.46,0,4.46-7.8,6.07-7.8,10.2v.77Z"/>
      <path d="m595.4,233.6h5.02c3.26,0,5.23,1.97,5.23,5.28,0,3.12-1.82,5.26-5.23,5.26h-3.38v6.26h-1.63v-16.8Zm4.97,9.03c2.64,0,3.58-1.61,3.58-3.74s-.94-3.77-3.58-3.77h-3.34v7.51h3.34Z"/>
      <path d="m610.01,233.6h2.21l4.94,13.3,4.92-13.3h2.18l.55,16.8h-1.61l-.36-14.26h-.12l-4.46,12.1h-2.23l-4.46-12.1h-.12l-.38,14.26h-1.58l.53-16.8Z"/>
      <path d="m629.23,240.44c0-.82.41-1.3,1.3-1.3.84,0,1.25.48,1.25,1.3,0,.86-.41,1.34-1.25,1.34-.89,0-1.3-.48-1.3-1.34Zm0,8.81c0-.82.41-1.3,1.3-1.3.84,0,1.25.48,1.25,1.3,0,.86-.41,1.34-1.25,1.34-.89,0-1.3-.48-1.3-1.34Z"/>
      <path d="m642.27,233.6h1.63v15.29h7.13v1.51h-8.76v-16.8Z"/>
      <path d="m663.32,237.63v8.47c0,2.28-1.25,4.49-4.66,4.49s-4.68-2.21-4.68-4.49v-8.47h1.56v8.26c0,2.09.96,3.29,3.12,3.29s3.1-1.2,3.1-3.29v-8.26h1.56Z"/>
      <path d="m667.23,237.63h1.25l.17,1.32c1.01-.7,2.69-1.51,4.51-1.51,2.59,0,3.34,1.66,3.34,3.96v9h-1.56v-8.69c0-1.9-.46-2.83-2.3-2.83-1.44,0-3.12.82-3.84,1.37v10.15h-1.56v-12.77Z"/>
      <path d="m688.37,249.96c-1.2.43-2.26.62-3.48.62h-.05c-3.58,0-5.06-2.57-5.06-6.6s1.49-6.55,5.06-6.55h.02c1.2,0,2.18.22,3.36.62l-.26,1.39c-1.01-.31-2.04-.6-3.1-.6h-.02c-2.57,0-3.46,1.97-3.46,5.14s.89,5.19,3.46,5.19h.05c1.06,0,2.23-.26,3.22-.6l.26,1.39Z"/>
      <path d="m691.71,232.4h1.56v6.53c.98-.7,2.66-1.49,4.46-1.49,2.62,0,3.36,1.46,3.36,3.77v9.19h-1.56v-8.69c0-1.9-.48-2.83-2.33-2.83-1.42,0-3.1.82-3.94,1.44v10.08h-1.56v-18Z"/>
      <path d="m709.99,237.63h1.66l2.69,10.94h.1l3.1-10.94h2.04l3.12,10.94h.1l2.66-10.94h1.68l-3.34,12.77h-2.09l-3.1-10.92h-.1l-3.12,10.92h-2.06l-3.34-12.77Z"/>
      <path d="m733.73,231.7h1.54l-6.14,21.79h-1.54l6.14-21.79Z"/>
      <path d="m752.91,245.91c0,2.88-1.9,4.68-5.64,4.68-1.8,0-3.31-.41-4.54-.86l.29-1.56c1.03.38,2.76.84,4.42.84,2.64,0,3.79-1.2,3.79-3.1,0-1.58-1.08-2.4-2.52-3l-2.67-1.08c-1.63-.67-3-1.82-3-4.1,0-2.93,2.09-4.32,5.11-4.32,1.49,0,2.86.31,4.03.67l-.29,1.51c-1.01-.31-2.4-.65-3.87-.65-2.23,0-3.36,1.01-3.36,2.79,0,1.27.77,2.06,2.09,2.64l2.69,1.1c1.97.82,3.46,2.02,3.46,4.44Z"/>
      <path d="m755.79,247.01v-.46c0-2.18,1.56-3.38,3.94-3.62l3.62-.36v-1.1c0-1.56-.65-2.59-3-2.59-1.27,0-2.71.24-3.72.5l-.26-1.37c1.22-.31,2.57-.58,3.98-.58,3.43,0,4.56,1.42,4.56,4.27v8.69h-1.25l-.19-1.2c-.82.58-2.21,1.39-3.96,1.39-2.42,0-3.72-1.58-3.72-3.58Zm7.58.86v-3.94l-3.29.31c-1.73.17-2.74.86-2.74,2.33v.31c0,1.34.89,2.33,2.4,2.33,1.42,0,2.95-.84,3.62-1.34Z"/>
      <path d="m768.86,237.63h1.25l.17,1.61c.77-.77,2.09-1.8,3.65-1.8.36,0,.6.02.98.07l-.26,1.63c-.34-.05-.65-.1-.98-.1-1.39,0-2.69,1.03-3.24,1.66v9.7h-1.56v-12.77Z"/>
      <path d="m776.9,247.01v-.46c0-2.18,1.56-3.38,3.94-3.62l3.62-.36v-1.1c0-1.56-.65-2.59-3-2.59-1.27,0-2.71.24-3.72.5l-.26-1.37c1.22-.31,2.57-.58,3.98-.58,3.43,0,4.56,1.42,4.56,4.27v8.69h-1.25l-.19-1.2c-.82.58-2.21,1.39-3.96,1.39-2.42,0-3.72-1.58-3.72-3.58Zm7.58.86v-3.94l-3.29.31c-1.73.17-2.74.86-2.74,2.33v.31c0,1.34.89,2.33,2.4,2.33,1.42,0,2.95-.84,3.62-1.34Z"/>
      <path d="m789.98,232.4h1.56v6.53c.98-.7,2.66-1.49,4.46-1.49,2.62,0,3.36,1.46,3.36,3.77v9.19h-1.56v-8.69c0-1.9-.48-2.83-2.33-2.83-1.42,0-3.1.82-3.94,1.44v10.08h-1.56v-18Z"/>
    </g>
    <g>
      <path d="m582,135.84c0,5.76-2.33,8.57-6.31,8.57-1.27,0-2.38-.29-3.5-.7l.41-1.39c.94.36,1.99.62,3.22.62,2.98,0,4.3-2.23,4.51-5.93-.79.36-2.16.79-3.82.79-3.38,0-5.04-1.7-5.04-4.92,0-3.05,1.39-5.66,5.14-5.66s5.4,2.45,5.4,8.62Zm-5.26.55c1.34,0,2.81-.46,3.6-.84-.05-4.46-.91-6.87-3.74-6.87-2.4,0-3.48,1.78-3.48,4.2s1.2,3.5,3.62,3.5Z"/>
      <path d="m585.17,140.83v-.46c0-2.18,1.56-3.38,3.94-3.62l3.62-.36v-1.1c0-1.56-.65-2.59-3-2.59-1.27,0-2.71.24-3.72.5l-.26-1.37c1.22-.31,2.57-.58,3.98-.58,3.43,0,4.56,1.42,4.56,4.27v8.69h-1.25l-.19-1.2c-.82.58-2.21,1.39-3.96,1.39-2.42,0-3.72-1.58-3.72-3.58Zm7.58.86v-3.94l-3.29.31c-1.73.17-2.74.86-2.74,2.33v.31c0,1.34.89,2.33,2.4,2.33,1.42,0,2.95-.84,3.62-1.34Z"/>
      <path d="m614.33,135.41v8.81h-1.56v-8.69c0-1.87-.5-2.83-2.33-2.83-1.37,0-2.81.79-3.48,1.34.1.43.12.91.12,1.39v8.78h-1.56v-8.69c0-1.87-.48-2.83-2.28-2.83-1.46,0-2.78.82-3.43,1.37v10.15h-1.56v-12.77h1.25l.17,1.32c.94-.7,2.26-1.51,4.08-1.51,1.49,0,2.35.62,2.83,1.56.96-.72,2.52-1.56,4.39-1.56,2.57,0,3.36,1.87,3.36,4.15Z"/>
      <path d="m618.27,134.26c0-.82.41-1.3,1.3-1.3.84,0,1.25.48,1.25,1.3,0,.86-.41,1.34-1.25,1.34-.89,0-1.3-.48-1.3-1.34Zm0,8.81c0-.82.41-1.3,1.3-1.3.84,0,1.25.48,1.25,1.3,0,.86-.41,1.34-1.25,1.34-.89,0-1.3-.48-1.3-1.34Z"/>
      <path d="m635.02,128.93h-4.8v-1.51h11.21v1.51h-4.78v15.29h-1.63v-15.29Z"/>
      <path d="m641.98,137.81c0-4.01,1.37-6.55,4.94-6.55,3.77,0,4.85,2.54,4.85,6.53v.6h-8.16c.12,2.88,1.08,4.58,3.55,4.58,1.44,0,2.74-.31,3.65-.6l.29,1.37c-1.06.36-2.33.67-3.94.67-3.55,0-5.16-2.45-5.18-6.6Zm8.21-.79c-.07-2.74-.72-4.39-3.26-4.39-2.38,0-3.19,1.68-3.31,4.39h6.58Z"/>
      <path d="m654.6,140.83v-.46c0-2.18,1.56-3.38,3.94-3.62l3.62-.36v-1.1c0-1.56-.65-2.59-3-2.59-1.27,0-2.71.24-3.72.5l-.26-1.37c1.22-.31,2.57-.58,3.98-.58,3.43,0,4.56,1.42,4.56,4.27v8.69h-1.25l-.19-1.2c-.82.58-2.21,1.39-3.96,1.39-2.42,0-3.72-1.58-3.72-3.58Zm7.58.86v-3.94l-3.29.31c-1.73.17-2.74.86-2.74,2.33v.31c0,1.34.89,2.33,2.4,2.33,1.42,0,2.95-.84,3.62-1.34Z"/>
      <path d="m683.76,135.41v8.81h-1.56v-8.69c0-1.87-.5-2.83-2.33-2.83-1.37,0-2.81.79-3.48,1.34.1.43.12.91.12,1.39v8.78h-1.56v-8.69c0-1.87-.48-2.83-2.28-2.83-1.46,0-2.78.82-3.43,1.37v10.15h-1.56v-12.77h1.25l.17,1.32c.94-.7,2.26-1.51,4.08-1.51,1.49,0,2.35.62,2.83,1.56.96-.72,2.52-1.56,4.39-1.56,2.57,0,3.36,1.87,3.36,4.15Z"/>
      <path d="m694.87,127.42h2.21l4.94,13.3,4.92-13.3h2.18l.55,16.8h-1.61l-.36-14.26h-.12l-4.46,12.1h-2.23l-4.46-12.1h-.12l-.38,14.26h-1.58l.53-16.8Z"/>
      <path d="m713.45,137.81c0-4.01,1.37-6.55,4.94-6.55,3.77,0,4.85,2.54,4.85,6.53v.6h-8.16c.12,2.88,1.08,4.58,3.55,4.58,1.44,0,2.74-.31,3.65-.6l.29,1.37c-1.06.36-2.33.67-3.94.67-3.55,0-5.16-2.45-5.18-6.6Zm8.21-.79c-.07-2.74-.72-4.39-3.26-4.39-2.38,0-3.19,1.68-3.31,4.39h6.58Z"/>
      <path d="m726.03,137.81c0-4.01,1.37-6.55,4.94-6.55,3.77,0,4.85,2.54,4.85,6.53v.6h-8.16c.12,2.88,1.08,4.58,3.55,4.58,1.44,0,2.74-.31,3.65-.6l.29,1.37c-1.06.36-2.33.67-3.94.67-3.55,0-5.16-2.45-5.18-6.6Zm8.21-.79c-.07-2.74-.72-4.39-3.26-4.39-2.38,0-3.19,1.68-3.31,4.39h6.58Z"/>
      <path d="m740.38,140.9v-8.11h-2.21v-1.34h2.23v-2.9l1.54-.22v3.12h3.62v1.34h-3.62v8.3c0,1.18.29,1.75,1.58,1.75.67,0,1.75-.19,2.21-.34l.31,1.32c-.72.22-1.92.46-2.74.46-2.3,0-2.93-1.06-2.93-3.38Z"/>
      <path d="m748.73,127.73c0-.77.43-1.22,1.2-1.22.72,0,1.15.46,1.15,1.22s-.43,1.25-1.15,1.25c-.77,0-1.2-.46-1.2-1.25Zm.41,3.72h1.56v12.77h-1.56v-12.77Z"/>
      <path d="m754.78,131.45h1.25l.17,1.32c1.01-.7,2.69-1.51,4.51-1.51,2.59,0,3.34,1.66,3.34,3.96v9h-1.56v-8.69c0-1.9-.46-2.83-2.3-2.83-1.44,0-3.12.82-3.84,1.37v10.15h-1.56v-12.77Z"/>
      <path d="m778.25,145.08c0,2.45-2.38,4.18-6.55,4.18-2.78,0-4.87-1.22-4.87-3.34,0-.72.34-1.39.89-1.97l.74-.77c-.38-.29-.58-.72-.58-1.27,0-.65.43-1.2.7-1.51l.72-.84c-.96-.74-1.54-1.97-1.54-3.72,0-3.19,1.94-4.58,4.44-4.58.82,0,1.56.14,2.21.46l3.65-.26v1.44h-2.23c.5.72.79,1.7.79,2.95,0,3.19-1.9,4.61-4.42,4.61-.67,0-1.3-.1-1.85-.31l-.55.72c-.19.24-.31.48-.31.72,0,.43.24.79,1.08.79h4.44c2.18,0,3.24,1.3,3.24,2.71Zm-1.56.17c0-.79-.46-1.54-2.04-1.54h-4.25c-.26,0-.53-.02-.77-.05l-.62.65c-.43.46-.65.98-.65,1.46,0,1.18,1.1,2.09,3.55,2.09,3.02,0,4.78-1.22,4.78-2.62Zm-7.39-9.41c0,2.23,1.03,3.31,2.9,3.31s2.9-1.08,2.9-3.31-1.01-3.29-2.9-3.29-2.9,1.1-2.9,3.29Z"/>
    </g>
    <g>
      <path d="m881.5,199.36c0,5.76-2.33,8.57-6.31,8.57-1.27,0-2.38-.29-3.5-.7l.41-1.39c.94.36,1.99.62,3.22.62,2.98,0,4.3-2.23,4.51-5.93-.79.36-2.16.79-3.82.79-3.38,0-5.04-1.7-5.04-4.92,0-3.05,1.39-5.66,5.14-5.66s5.4,2.45,5.4,8.62Zm-5.26.55c1.34,0,2.81-.46,3.6-.84-.05-4.46-.91-6.87-3.74-6.87-2.4,0-3.48,1.78-3.48,4.2s1.2,3.5,3.62,3.5Z"/>
      <path d="m884.67,204.35v-.46c0-2.18,1.56-3.38,3.94-3.62l3.62-.36v-1.1c0-1.56-.65-2.59-3-2.59-1.27,0-2.71.24-3.72.5l-.26-1.37c1.22-.31,2.57-.58,3.98-.58,3.43,0,4.56,1.42,4.56,4.27v8.69h-1.25l-.19-1.2c-.82.58-2.21,1.39-3.96,1.39-2.42,0-3.72-1.58-3.72-3.58Zm7.58.86v-3.94l-3.29.31c-1.73.17-2.74.86-2.74,2.33v.31c0,1.34.89,2.33,2.4,2.33,1.42,0,2.95-.84,3.62-1.34Z"/>
      <path d="m913.83,198.92v8.81h-1.56v-8.69c0-1.87-.5-2.83-2.33-2.83-1.37,0-2.81.79-3.48,1.34.1.43.12.91.12,1.39v8.78h-1.56v-8.69c0-1.87-.48-2.83-2.28-2.83-1.46,0-2.78.82-3.43,1.37v10.15h-1.56v-12.77h1.25l.17,1.32c.94-.7,2.26-1.51,4.08-1.51,1.49,0,2.35.62,2.83,1.56.96-.72,2.52-1.56,4.39-1.56,2.57,0,3.36,1.87,3.36,4.15Z"/>
      <path d="m917.77,197.77c0-.82.41-1.3,1.3-1.3.84,0,1.25.48,1.25,1.3,0,.86-.41,1.34-1.25,1.34-.89,0-1.3-.48-1.3-1.34Zm0,8.81c0-.82.41-1.3,1.3-1.3.84,0,1.25.48,1.25,1.3,0,.86-.41,1.34-1.25,1.34-.89,0-1.3-.48-1.3-1.34Z"/>
      <path d="m934.52,192.44h-4.8v-1.51h11.21v1.51h-4.78v15.29h-1.63v-15.29Z"/>
      <path d="m941.48,201.32c0-4.01,1.37-6.55,4.94-6.55,3.77,0,4.85,2.54,4.85,6.53v.6h-8.16c.12,2.88,1.08,4.58,3.55,4.58,1.44,0,2.74-.31,3.65-.6l.29,1.37c-1.06.36-2.33.67-3.94.67-3.55,0-5.16-2.45-5.18-6.6Zm8.21-.79c-.07-2.74-.72-4.39-3.26-4.39-2.38,0-3.19,1.68-3.31,4.39h6.58Z"/>
      <path d="m954.1,204.35v-.46c0-2.18,1.56-3.38,3.94-3.62l3.62-.36v-1.1c0-1.56-.65-2.59-3-2.59-1.27,0-2.71.24-3.72.5l-.26-1.37c1.22-.31,2.57-.58,3.98-.58,3.43,0,4.56,1.42,4.56,4.27v8.69h-1.25l-.19-1.2c-.82.58-2.21,1.39-3.96,1.39-2.42,0-3.72-1.58-3.72-3.58Zm7.58.86v-3.94l-3.29.31c-1.73.17-2.74.86-2.74,2.33v.31c0,1.34.89,2.33,2.4,2.33,1.42,0,2.95-.84,3.62-1.34Z"/>
      <path d="m983.26,198.92v8.81h-1.56v-8.69c0-1.87-.5-2.83-2.33-2.83-1.37,0-2.81.79-3.48,1.34.1.43.12.91.12,1.39v8.78h-1.56v-8.69c0-1.87-.48-2.83-2.28-2.83-1.46,0-2.78.82-3.43,1.37v10.15h-1.56v-12.77h1.25l.17,1.32c.94-.7,2.26-1.51,4.08-1.51,1.49,0,2.35.62,2.83,1.56.96-.72,2.52-1.56,4.39-1.56,2.57,0,3.36,1.87,3.36,4.15Z"/>
      <path d="m994.37,190.93h2.21l4.94,13.3,4.92-13.3h2.18l.55,16.8h-1.61l-.36-14.26h-.12l-4.46,12.1h-2.23l-4.46-12.1h-.12l-.38,14.26h-1.58l.53-16.8Z"/>
      <path d="m1012.95,201.32c0-4.01,1.37-6.55,4.95-6.55,3.77,0,4.85,2.54,4.85,6.53v.6h-8.16c.12,2.88,1.08,4.58,3.55,4.58,1.44,0,2.74-.31,3.65-.6l.29,1.37c-1.06.36-2.33.67-3.94.67-3.55,0-5.16-2.45-5.18-6.6Zm8.21-.79c-.07-2.74-.72-4.39-3.26-4.39-2.38,0-3.19,1.68-3.31,4.39h6.58Z"/>
      <path d="m1025.52,201.32c0-4.01,1.37-6.55,4.94-6.55,3.77,0,4.85,2.54,4.85,6.53v.6h-8.16c.12,2.88,1.08,4.58,3.55,4.58,1.44,0,2.74-.31,3.65-.6l.29,1.37c-1.06.36-2.33.67-3.94.67-3.55,0-5.16-2.45-5.18-6.6Zm8.21-.79c-.07-2.74-.72-4.39-3.26-4.39-2.38,0-3.19,1.68-3.31,4.39h6.58Z"/>
      <path d="m1039.88,204.42v-8.11h-2.21v-1.34h2.23v-2.9l1.54-.22v3.12h3.62v1.34h-3.62v8.3c0,1.18.29,1.75,1.58,1.75.67,0,1.75-.19,2.21-.34l.31,1.32c-.72.22-1.92.46-2.74.46-2.3,0-2.93-1.06-2.93-3.38Z"/>
      <path d="m1048.23,191.24c0-.77.43-1.22,1.2-1.22.72,0,1.15.46,1.15,1.22s-.43,1.25-1.15,1.25c-.77,0-1.2-.46-1.2-1.25Zm.41,3.72h1.56v12.77h-1.56v-12.77Z"/>
      <path d="m1054.28,194.96h1.25l.17,1.32c1.01-.7,2.69-1.51,4.51-1.51,2.59,0,3.34,1.66,3.34,3.96v9h-1.56v-8.69c0-1.9-.46-2.83-2.3-2.83-1.44,0-3.12.82-3.84,1.37v10.15h-1.56v-12.77Z"/>
      <path d="m1077.75,208.6c0,2.45-2.38,4.18-6.55,4.18-2.78,0-4.87-1.22-4.87-3.34,0-.72.34-1.39.89-1.97l.74-.77c-.38-.29-.58-.72-.58-1.27,0-.65.43-1.2.7-1.51l.72-.84c-.96-.74-1.54-1.97-1.54-3.72,0-3.19,1.94-4.58,4.44-4.58.82,0,1.56.14,2.21.46l3.65-.26v1.44h-2.23c.5.72.79,1.7.79,2.95,0,3.19-1.9,4.61-4.42,4.61-.67,0-1.3-.1-1.85-.31l-.55.72c-.19.24-.31.48-.31.72,0,.43.24.79,1.08.79h4.44c2.18,0,3.24,1.3,3.24,2.71Zm-1.56.17c0-.79-.46-1.54-2.04-1.54h-4.25c-.26,0-.53-.02-.77-.05l-.62.65c-.43.46-.65.98-.65,1.46,0,1.18,1.1,2.09,3.55,2.09,3.02,0,4.78-1.22,4.78-2.62Zm-7.39-9.41c0,2.23,1.03,3.31,2.9,3.31s2.9-1.08,2.9-3.31-1.01-3.29-2.9-3.29-2.9,1.1-2.9,3.29Z"/>
    </g>
    <g>
      <path d="m287.38,527.75c0,5.76-2.33,8.57-6.31,8.57-1.27,0-2.38-.29-3.5-.7l.41-1.39c.94.36,1.99.62,3.22.62,2.98,0,4.3-2.23,4.51-5.93-.79.36-2.16.79-3.82.79-3.38,0-5.04-1.7-5.04-4.92,0-3.05,1.39-5.66,5.14-5.66s5.4,2.45,5.4,8.62Zm-5.26.55c1.34,0,2.81-.46,3.6-.84-.05-4.46-.91-6.87-3.74-6.87-2.4,0-3.48,1.78-3.48,4.2s1.2,3.5,3.62,3.5Z"/>
      <path d="m290.55,532.75v-.46c0-2.18,1.56-3.38,3.94-3.62l3.62-.36v-1.1c0-1.56-.65-2.59-3-2.59-1.27,0-2.71.24-3.72.5l-.26-1.37c1.22-.31,2.57-.58,3.98-.58,3.43,0,4.56,1.42,4.56,4.27v8.69h-1.25l-.19-1.2c-.82.58-2.21,1.39-3.96,1.39-2.42,0-3.72-1.58-3.72-3.58Zm7.58.86v-3.94l-3.29.31c-1.73.17-2.74.86-2.74,2.33v.31c0,1.34.89,2.33,2.4,2.33,1.42,0,2.95-.84,3.62-1.34Z"/>
      <path d="m319.71,527.32v8.81h-1.56v-8.69c0-1.87-.5-2.83-2.33-2.83-1.37,0-2.81.79-3.48,1.34.1.43.12.91.12,1.39v8.78h-1.56v-8.69c0-1.87-.48-2.83-2.28-2.83-1.46,0-2.78.82-3.43,1.37v10.15h-1.56v-12.77h1.25l.17,1.32c.94-.7,2.26-1.51,4.08-1.51,1.49,0,2.35.62,2.83,1.56.96-.72,2.52-1.56,4.39-1.56,2.57,0,3.36,1.87,3.36,4.15Z"/>
      <path d="m323.65,526.17c0-.82.41-1.3,1.3-1.3.84,0,1.25.48,1.25,1.3,0,.86-.41,1.34-1.25,1.34-.89,0-1.3-.48-1.3-1.34Zm0,8.81c0-.82.41-1.3,1.3-1.3.84,0,1.25.48,1.25,1.3,0,.86-.41,1.34-1.25,1.34-.89,0-1.3-.48-1.3-1.34Z"/>
      <path d="m340.4,520.84h-4.8v-1.51h11.21v1.51h-4.78v15.29h-1.63v-15.29Z"/>
      <path d="m347.36,529.72c0-4.01,1.37-6.55,4.94-6.55,3.77,0,4.85,2.54,4.85,6.53v.6h-8.16c.12,2.88,1.08,4.58,3.55,4.58,1.44,0,2.74-.31,3.65-.6l.29,1.37c-1.06.36-2.33.67-3.94.67-3.55,0-5.16-2.45-5.18-6.6Zm8.21-.79c-.07-2.74-.72-4.39-3.26-4.39-2.38,0-3.19,1.68-3.31,4.39h6.58Z"/>
      <path d="m359.98,532.75v-.46c0-2.18,1.56-3.38,3.94-3.62l3.62-.36v-1.1c0-1.56-.65-2.59-3-2.59-1.27,0-2.71.24-3.72.5l-.26-1.37c1.22-.31,2.57-.58,3.98-.58,3.43,0,4.56,1.42,4.56,4.27v8.69h-1.25l-.19-1.2c-.82.58-2.21,1.39-3.96,1.39-2.42,0-3.72-1.58-3.72-3.58Zm7.58.86v-3.94l-3.29.31c-1.73.17-2.74.86-2.74,2.33v.31c0,1.34.89,2.33,2.4,2.33,1.42,0,2.95-.84,3.62-1.34Z"/>
      <path d="m389.14,527.32v8.81h-1.56v-8.69c0-1.87-.5-2.83-2.33-2.83-1.37,0-2.81.79-3.48,1.34.1.43.12.91.12,1.39v8.78h-1.56v-8.69c0-1.87-.48-2.83-2.28-2.83-1.46,0-2.78.82-3.43,1.37v10.15h-1.56v-12.77h1.25l.17,1.32c.94-.7,2.26-1.51,4.08-1.51,1.49,0,2.35.62,2.83,1.56.96-.72,2.52-1.56,4.39-1.56,2.57,0,3.36,1.87,3.36,4.15Z"/>
      <path d="m400.25,519.33h2.21l4.94,13.3,4.92-13.3h2.18l.55,16.8h-1.61l-.36-14.26h-.12l-4.46,12.1h-2.23l-4.46-12.1h-.12l-.38,14.26h-1.58l.53-16.8Z"/>
      <path d="m418.83,529.72c0-4.01,1.37-6.55,4.94-6.55,3.77,0,4.85,2.54,4.85,6.53v.6h-8.16c.12,2.88,1.08,4.58,3.55,4.58,1.44,0,2.74-.31,3.65-.6l.29,1.37c-1.06.36-2.33.67-3.94.67-3.55,0-5.16-2.45-5.18-6.6Zm8.21-.79c-.07-2.74-.72-4.39-3.26-4.39-2.38,0-3.19,1.68-3.31,4.39h6.58Z"/>
      <path d="m431.4,529.72c0-4.01,1.37-6.55,4.94-6.55,3.77,0,4.85,2.54,4.85,6.53v.6h-8.16c.12,2.88,1.08,4.58,3.55,4.58,1.44,0,2.74-.31,3.65-.6l.29,1.37c-1.06.36-2.33.67-3.94.67-3.55,0-5.16-2.45-5.18-6.6Zm8.21-.79c-.07-2.74-.72-4.39-3.26-4.39-2.38,0-3.19,1.68-3.31,4.39h6.58Z"/>
      <path d="m445.76,532.82v-8.11h-2.21v-1.34h2.23v-2.9l1.54-.22v3.12h3.62v1.34h-3.62v8.3c0,1.18.29,1.75,1.58,1.75.67,0,1.75-.19,2.21-.34l.31,1.32c-.72.22-1.92.46-2.74.46-2.3,0-2.93-1.06-2.93-3.38Z"/>
      <path d="m454.11,519.64c0-.77.43-1.22,1.2-1.22.72,0,1.15.46,1.15,1.22s-.43,1.25-1.15,1.25c-.77,0-1.2-.46-1.2-1.25Zm.41,3.72h1.56v12.77h-1.56v-12.77Z"/>
      <path d="m460.16,523.36h1.25l.17,1.32c1.01-.7,2.69-1.51,4.51-1.51,2.59,0,3.34,1.66,3.34,3.96v9h-1.56v-8.69c0-1.9-.46-2.83-2.3-2.83-1.44,0-3.12.82-3.84,1.37v10.15h-1.56v-12.77Z"/>
      <path d="m483.63,537c0,2.45-2.38,4.18-6.55,4.18-2.78,0-4.87-1.22-4.87-3.34,0-.72.34-1.39.89-1.97l.74-.77c-.38-.29-.58-.72-.58-1.27,0-.65.43-1.2.7-1.51l.72-.84c-.96-.74-1.54-1.97-1.54-3.72,0-3.19,1.94-4.58,4.44-4.58.82,0,1.56.14,2.21.46l3.65-.26v1.44h-2.23c.5.72.79,1.7.79,2.95,0,3.19-1.9,4.61-4.42,4.61-.67,0-1.3-.1-1.85-.31l-.55.72c-.19.24-.31.48-.31.72,0,.43.24.79,1.08.79h4.44c2.18,0,3.24,1.3,3.24,2.71Zm-1.56.17c0-.79-.46-1.54-2.04-1.54h-4.25c-.26,0-.53-.02-.77-.05l-.62.65c-.43.46-.65.98-.65,1.46,0,1.18,1.1,2.09,3.55,2.09,3.02,0,4.78-1.22,4.78-2.62Zm-7.39-9.41c0,2.23,1.03,3.31,2.9,3.31s2.9-1.08,2.9-3.31-1.01-3.29-2.9-3.29-2.9,1.1-2.9,3.29Z"/>
    </g>
  </g>
</svg>