<svg width="522" height="367" viewBox="0 0 522 367" fill="none" xmlns="http://www.w3.org/2000/svg">
<path d="M147.9 135.056L158.412 140.291C163.22 142.745 168.517 143.972 173.976 143.972C193.126 143.972 208.69 128.348 208.69 109.124V91.6187C208.69 62.7424 185.303 39.2651 156.538 39.2651H104.304C75.5391 39.2651 52.1522 62.7424 52.1522 91.6187V109.124C52.1522 128.348 67.7163 143.972 86.8659 143.972C92.2441 143.972 97.5408 142.745 102.43 140.291L112.942 135.056L119.787 131.62L110.09 125.158C106.423 122.704 104.304 118.613 104.304 114.278V111.251C104.304 100.372 113.024 91.6187 123.861 91.6187H136.899C147.737 91.6187 156.456 100.372 156.456 111.251V114.278C156.456 118.613 154.256 122.704 150.671 125.158L141.055 131.62L147.9 135.056ZM140.892 175.466L130.38 170.149L119.868 175.384C109.601 180.538 98.2742 183.237 86.8659 183.237C83.9324 183.237 81.0803 183.074 78.2282 182.746V183.237C78.2282 212.114 101.615 235.591 130.38 235.591H182.533C196.956 235.591 208.609 247.289 208.609 261.768C208.609 276.247 196.956 287.944 182.533 287.944H312.913V248.679V235.591C312.913 216.204 323.425 199.271 338.989 190.272C346.649 185.855 355.531 183.237 365.065 183.237V170.149C365.065 148.471 382.585 130.884 404.179 130.884C411.35 130.884 417.217 136.774 417.217 143.972V170.149V183.237V222.502C417.217 229.701 423.084 235.591 430.255 235.591C437.426 235.591 443.293 229.701 443.293 222.502V140.945C443.293 101.517 418.195 66.5053 380.874 53.9896L373.947 51.6991C367.428 49.4904 363.68 42.619 365.473 35.9112C367.265 29.2034 373.866 25.1133 380.629 26.4222L396.845 29.6943C469.369 44.2551 521.522 108.143 521.522 182.337V183.237C521.522 284.427 439.789 366.475 338.989 366.475H338.093H208.609H208.12C107.564 366.475 26.0761 284.672 26.0761 183.728V183.237V151.171C17.8458 139.228 13.038 124.749 13.038 109.124V91.6187V90.4734C5.45968 87.7739 0 80.5753 0 71.9861C0 61.1064 8.71919 52.3535 19.5571 52.3535H21.8387C36.5065 21.4322 67.8793 0 104.304 0H156.456C192.882 0 224.254 21.4322 238.922 52.3535H241.204C252.042 52.3535 260.761 61.1064 260.761 71.9861C260.761 80.5753 255.301 87.7739 247.723 90.4734V91.6187V109.124C247.723 110.27 247.723 111.415 247.641 112.642C257.42 107.57 268.584 104.789 280.318 104.789H286.837C301.26 104.789 312.913 116.487 312.913 130.966C312.913 145.445 301.26 157.142 286.837 157.142H280.318C269.48 157.142 260.761 165.895 260.761 176.775V183.319H306.72C294.334 197.226 286.837 215.549 286.837 235.673H260.761C226.291 235.673 197.037 213.259 186.607 182.256C182.451 182.992 178.214 183.319 173.895 183.319C162.405 183.319 151.16 180.62 140.892 175.466ZM78.2282 78.5303C81.6861 78.5303 85.0024 79.9092 87.4475 82.3638C89.8926 84.8183 91.2663 88.1474 91.2663 91.6187C91.2663 95.0899 89.8926 98.419 87.4475 100.874C85.0024 103.328 81.6861 104.707 78.2282 104.707C74.7703 104.707 71.4541 103.328 69.009 100.874C66.5639 98.419 65.1902 95.0899 65.1902 91.6187C65.1902 88.1474 66.5639 84.8183 69.009 82.3638C71.4541 79.9092 74.7703 78.5303 78.2282 78.5303ZM169.495 91.6187C169.495 88.1474 170.868 84.8183 173.313 82.3638C175.758 79.9092 179.075 78.5303 182.533 78.5303C185.99 78.5303 189.307 79.9092 191.752 82.3638C194.197 84.8183 195.571 88.1474 195.571 91.6187C195.571 95.0899 194.197 98.419 191.752 100.874C189.307 103.328 185.99 104.707 182.533 104.707C179.075 104.707 175.758 103.328 173.313 100.874C170.868 98.419 169.495 95.0899 169.495 91.6187Z" fill="#D9D9D9" fill-opacity="0.25"/>
</svg>
